{
copyright = "Copyright 2014 Pria Ravichandran (pria.ravichandran@gmail.com)";
customParameters = (
{
name = license;
value = "Licenced under the SIL Open Font License, Version 1.1, available with a FAQ at: http://scripts.sil.org/OFL";
},
{
name = licenseURL;
value = "http://scripts.sil.org/OFL";
},
{
name = vendorID;
value = PYRS;
},
{
name = glyphOrder;
value = (
    ".notdef",
    uni0000,
    CR,
    space,
    uni00A0,
    uni200C,
    uni200D,
    uni25CC,
    A,
    B,
    C,
    D,
    E,
    F,
    G,
    H,
    I,
    J,
    K,
    L,
    M,
    N,
    O,
    P,
    Q,
    R,
    S,
    T,
    U,
    V,
    W,
    X,
    Y,
    Z,
    a,
    b,
    c,
    d,
    e,
    f,
    g,
    h,
    i,
    j,
    k,
    l,
    m,
    n,
    o,
    p,
    q,
    r,
    s,
    t,
    u,
    v,
    w,
    x,
    y,
    z,
    fi,
    fl,
    zero,
    one,
    two,
    three,
    four,
    five,
    six,
    seven,
    eight,
    nine,
    grave,
    dieresis,
    macron,
    acute,
    circumflex,
    caron,
    breve,
    dotaccent,
    ring,
    tilde,
    hungarumlaut,
    ogonek,
    cedilla,
    commaaccent,
    "grave.case",
    "dieresis.case",
    "macron.case",
    "acute.case",
    "circumflex.case",
    "caron.case",
    "breve.case",
    "dotaccent.case",
    "ring.case",
    "tilde.case",
    "hungarumlaut.case",
    Thorn,
    Eth,
    AE,
    Dcroat,
    Lslash,
    OE,
    Oslash,
    germandbls,
    eth,
    thorn,
    florin,
    ae,
    dcroat,
    oe,
    lacute,
    lslash,
    dotlessi,
    oslash,
    gcedilla,
    Agrave,
    Aacute,
    Acircumflex,
    Atilde,
    Adieresis,
    Aring,
    Abreve,
    Aogonek,
    Amacron,
    Ccedilla,
    Cacute,
    Ccaron,
    Dcaron,
    Egrave,
    Eacute,
    Ecircumflex,
    Edieresis,
    Emacron,
    Edotaccent,
    Eogonek,
    Ecaron,
    Gbreve,
    Igrave,
    Iacute,
    Icircumflex,
    Idieresis,
    Imacron,
    Iogonek,
    Idotaccent,
    Lacute,
    Lcaron,
    Ntilde,
    Nacute,

glyphs = (
{
glyphname = .notdef;
lastChange = "2015-05-10 21:39:18 +0000";
layers = (
{
layerId = "24C3257D-BF04-43D4-ADFB-51EF390723A7";
name = Light;
paths = (
{
closed = 1;
nodes = (
"602 696 LINE",
"602 0 LINE",
"94 0 LINE",
"94 696 LINE"
);
},
{
closed = 1;
nodes = (
"225 593 LINE",
"225 102 LINE",
"471 102 LINE",
"470 593 LINE"
);
}
);
width = 697;
},
{
layerId = "12413328-B98D-4C90-AAAC-8248DDAE45D4";
name = Bold;
paths = (
{
closed = 1;
nodes = (
"602 696 LINE",
"602 0 LINE",
"94 0 LINE",
"94 696 LINE"
);
},
{
closed = 1;
nodes = (
"255 573 LINE",
"255 122 LINE",
"440 122 LINE",
"440 573 LINE"
);
}
);
width = 697;
}
);
},
{
glyphname = uni200C;
lastChange = "2015-05-10 21:39:18 +0000";
layers = (
{
layerId = "24C3257D-BF04-43D4-ADFB-51EF390723A7";
name = Light;
paths = (
{
closed = 1;
nodes = (
"-30 1237 LINE",
"30 1237 LINE",
"30 -68 LINE",
"-30 -68 LINE"
);
}
);
width = 0;
},
{
layerId = "12413328-B98D-4C90-AAAC-8248DDAE45D4";
name = Bold;
paths = (
{
closed = 1;
nodes = (
"-30 1237 LINE",
"30 1237 LINE",
"30 -68 LINE",
"-30 -68 LINE"
);
}
);
width = 0;
}
);
unicode = 200C;
},
{
glyphname = uni200D;
lastChange = "2015-05-10 21:39:18 +0000";
layers = (
{
layerId = "24C3257D-BF04-43D4-ADFB-51EF390723A7";
name = Light;
paths = (
{
closed = 1;
nodes = (
"74 1320 LINE",
"114 1280 LINE",
"40 1206 LINE",
"114 1132 LINE",
"75 1093 LINE",
"30 1137 LINE",
"30 -68 LINE",
"-30 -68 LINE",
"-30 1136 LINE",
"-74 1093 LINE",
"-113 1132 LINE",
"-39 1206 LINE",
"-113 1280 LINE",
"-73 1320 LINE",
"0 1246 LINE"
);
}
);
width = 0;
},
{
layerId = "12413328-B98D-4C90-AAAC-8248DDAE45D4";
name = Bold;
paths = (
{
closed = 1;
nodes = (
"74 1320 LINE",
"114 1280 LINE",
"40 1206 LINE",
"114 1132 LINE",
"75 1093 LINE",
"30 1137 LINE",
"30 -68 LINE",
"-30 -68 LINE",
"-30 1136 LINE",
"-74 1093 LINE",
"-113 1132 LINE",
"-39 1206 LINE",
"-113 1280 LINE",
"-73 1320 LINE",
"0 1246 LINE"
);
}
);
width = 0;
}
);
unicode = 200D;
},
{
glyphname = uni25CC;
lastChange = "2015-05-14 08:33:54 +0000";
layers = (
{
layerId = "24C3257D-BF04-43D4-ADFB-51EF390723A7";
name = Light;
paths = (
{
closed = 1;
nodes = (
"284 459 OFFCURVE",
"273 471 OFFCURVE",
"273 488 CURVE SMOOTH",
"273 505 OFFCURVE",
"284 518 OFFCURVE",
"302 518 CURVE SMOOTH",
"319 518 OFFCURVE",
"331 505 OFFCURVE",
"331 488 CURVE SMOOTH",
"331 471 OFFCURVE",
"319 459 OFFCURVE",
"302 459 CURVE SMOOTH"
);
},
{
closed = 1;
nodes = (
"374 444 OFFCURVE",
"363 455 OFFCURVE",
"363 473 CURVE SMOOTH",
"363 490 OFFCURVE",
"374 502 OFFCURVE",
"392 502 CURVE SMOOTH",
"409 502 OFFCURVE",
"421 490 OFFCURVE",
"421 473 CURVE SMOOTH",
"421 455 OFFCURVE",
"409 444 OFFCURVE",
"392 444 CURVE SMOOTH"
);
},
{
closed = 1;
nodes = (
"230 502 OFFCURVE",
"242 490 OFFCURVE",
"242 473 CURVE SMOOTH",
"242 455 OFFCURVE",
"230 444 OFFCURVE",
"213 444 CURVE SMOOTH",
"196 444 OFFCURVE",
"184 455 OFFCURVE",
"184 473 CURVE SMOOTH",
"184 490 OFFCURVE",
"196 502 OFFCURVE",
"213 502 CURVE SMOOTH"
);
},
{
closed = 1;
nodes = (
"451 393 OFFCURVE",
"439 405 OFFCURVE",
"439 422 CURVE SMOOTH",
"439 439 OFFCURVE",
"451 452 OFFCURVE",
"468 452 CURVE SMOOTH",
"485 452 OFFCURVE",
"498 439 OFFCURVE",
"498 422 CURVE SMOOTH",
"498 405 OFFCURVE",
"485 393 OFFCURVE",
"468 393 CURVE SMOOTH"
);
},
{
closed = 1;
nodes = (
"154 452 OFFCURVE",
"166 439 OFFCURVE",
"166 422 CURVE SMOOTH",
"166 405 OFFCURVE",
"154 393 OFFCURVE",
"137 393 CURVE SMOOTH",
"120 393 OFFCURVE",
"107 405 OFFCURVE",
"107 422 CURVE SMOOTH",
"107 439 OFFCURVE",
"120 452 OFFCURVE",
"137 452 CURVE SMOOTH"
);
},
{
closed = 1;
nodes = (
"499 314 OFFCURVE",
"487 326 OFFCURVE",
"487 343 CURVE SMOOTH",
"487 360 OFFCURVE",
"499 373 OFFCURVE",
"516 373 CURVE SMOOTH",
"533 373 OFFCURVE",
"545 360 OFFCURVE",
"545 343 CURVE SMOOTH",
"545 326 OFFCURVE",
"533 314 OFFCURVE",
"516 314 CURVE SMOOTH"
);
},
{
closed = 1;
nodes = (
"106 373 OFFCURVE",
"118 360 OFFCURVE",
"118 343 CURVE SMOOTH",
"118 326 OFFCURVE",
"106 314 OFFCURVE",
"89 314 CURVE SMOOTH",
"72 314 OFFCURVE",
"59 326 OFFCURVE",
"59 343 CURVE SMOOTH",
"59 360 OFFCURVE",
"72 373 OFFCURVE",
"89 373 CURVE SMOOTH"
);
},
{
closed = 1;
nodes = (
"513 229 OFFCURVE",
"501 240 OFFCURVE",
"501 257 CURVE SMOOTH",
"501 275 OFFCURVE",
"513 287 OFFCURVE",
"530 287 CURVE SMOOTH",
"547 287 OFFCURVE",
"560 275 OFFCURVE",
"560 257 CURVE SMOOTH",
"560 240 OFFCURVE",
"547 229 OFFCURVE",
"530 229 CURVE SMOOTH"
);
},
{
closed = 1;
nodes = (
"92 287 OFFCURVE",
"104 275 OFFCURVE",
"104 257 CURVE SMOOTH",
"104 240 OFFCURVE",
"92 229 OFFCURVE",
"75 229 CURVE SMOOTH",
"58 229 OFFCURVE",
"45 240 OFFCURVE",
"45 257 CURVE SMOOTH",
"45 275 OFFCURVE",
"58 287 OFFCURVE",
"75 287 CURVE SMOOTH"
);
},
{
closed = 1;
nodes = (
"499 145 OFFCURVE",
"487 157 OFFCURVE",
"487 174 CURVE SMOOTH",
"487 191 OFFCURVE",
"499 203 OFFCURVE",
"516 203 CURVE SMOOTH",
"533 203 OFFCURVE",
"545 191 OFFCURVE",
"545 174 CURVE SMOOTH",
"545 157 OFFCURVE",
"533 145 OFFCURVE",
"516 145 CURVE SMOOTH"
);
},
{
closed = 1;
nodes = (
"106 203 OFFCURVE",
"118 191 OFFCURVE",
"118 174 CURVE SMOOTH",
"118 157 OFFCURVE",
"106 145 OFFCURVE",
"89 145 CURVE SMOOTH",
"72 145 OFFCURVE",
"59 157 OFFCURVE",
"59 174 CURVE SMOOTH",
"59 191 OFFCURVE",
"72 203 OFFCURVE",
"89 203 CURVE SMOOTH"
);
},
{
closed = 1;
nodes = (
"452 65 OFFCURVE",
"440 77 OFFCURVE",
"440 94 CURVE SMOOTH",
"440 111 OFFCURVE",
"452 123 OFFCURVE",
"469 123 CURVE SMOOTH",
"486 123 OFFCURVE",
"499 111 OFFCURVE",
"499 94 CURVE SMOOTH",
"499 77 OFFCURVE",
"486 65 OFFCURVE",
"469 65 CURVE SMOOTH"
);
},
{
closed = 1;
nodes = (
"153 123 OFFCURVE",
"165 111 OFFCURVE",
"165 94 CURVE SMOOTH",
"165 77 OFFCURVE",
"153 65 OFFCURVE",
"136 65 CURVE SMOOTH",
"119 65 OFFCURVE",
"106 77 OFFCURVE",
"106 94 CURVE SMOOTH",
"106 111 OFFCURVE",
"119 123 OFFCURVE",
"136 123 CURVE SMOOTH"
);
},
{
closed = 1;
nodes = (
"230 74 OFFCURVE",
"242 61 OFFCURVE",
"242 44 CURVE SMOOTH",
"242 27 OFFCURVE",
"230 15 OFFCURVE",
"213 15 CURVE SMOOTH",
"196 15 OFFCURVE",
"184 27 OFFCURVE",
"184 44 CURVE SMOOTH",
"184 61 OFFCURVE",
"196 74 OFFCURVE",
"213 74 CURVE SMOOTH"
);
},
{
closed = 1;
nodes = (
"374 15 OFFCURVE",
"363 27 OFFCURVE",
"363 44 CURVE SMOOTH",
"363 61 OFFCURVE",
"374 74 OFFCURVE",
"392 74 CURVE SMOOTH",
"409 74 OFFCURVE",
"421 61 OFFCURVE",
"421 44 CURVE SMOOTH",
"421 27 OFFCURVE",
"409 15 OFFCURVE",
"392 15 CURVE SMOOTH"
);
},
{
closed = 1;
nodes = (
"284 0 OFFCURVE",
"273 12 OFFCURVE",
"273 29 CURVE SMOOTH",
"273 46 OFFCURVE",
"284 59 OFFCURVE",
"302 59 CURVE SMOOTH",
"319 59 OFFCURVE",
"331 46 OFFCURVE",
"331 29 CURVE SMOOTH",
"331 12 OFFCURVE",
"319 0 OFFCURVE",
"302 0 CURVE SMOOTH"
);
}
);
width = 605;
},
{
layerId = "12413328-B98D-4C90-AAAC-8248DDAE45D4";
name = Bold;
paths = (
{
closed = 1;
nodes = (
"284 459 OFFCURVE",
"273 471 OFFCURVE",
"273 488 CURVE SMOOTH",
"273 505 OFFCURVE",
"284 518 OFFCURVE",
"302 518 CURVE SMOOTH",
"319 518 OFFCURVE",
"331 505 OFFCURVE",
"331 488 CURVE SMOOTH",
"331 471 OFFCURVE",
"319 459 OFFCURVE",
"302 459 CURVE SMOOTH"
);
},
{
closed = 1;
nodes = (
"374 444 OFFCURVE",
"363 455 OFFCURVE",
"363 473 CURVE SMOOTH",
"363 490 OFFCURVE",
"374 502 OFFCURVE",
"392 502 CURVE SMOOTH",
"409 502 OFFCURVE",
"421 490 OFFCURVE",
"421 473 CURVE SMOOTH",
"421 455 OFFCURVE",
"409 444 OFFCURVE",
"392 444 CURVE SMOOTH"
);
},
{
closed = 1;
nodes = (
"230 502 OFFCURVE",
"242 490 OFFCURVE",
"242 473 CURVE SMOOTH",
"242 455 OFFCURVE",
"230 444 OFFCURVE",
"213 444 CURVE SMOOTH",
"196 444 OFFCURVE",
"184 455 OFFCURVE",
"184 473 CURVE SMOOTH",
"184 490 OFFCURVE",
"196 502 OFFCURVE",
"213 502 CURVE SMOOTH"
);
},
{
closed = 1;
nodes = (
"451 393 OFFCURVE",
"439 405 OFFCURVE",
"439 422 CURVE SMOOTH",
"439 439 OFFCURVE",
"451 452 OFFCURVE",
"468 452 CURVE SMOOTH",
"485 452 OFFCURVE",
"498 439 OFFCURVE",
"498 422 CURVE SMOOTH",
"498 405 OFFCURVE",
"485 393 OFFCURVE",
"468 393 CURVE SMOOTH"
);
},
{
closed = 1;
nodes = (
"154 452 OFFCURVE",
"166 439 OFFCURVE",
"166 422 CURVE SMOOTH",
"166 405 OFFCURVE",
"154 393 OFFCURVE",
"137 393 CURVE SMOOTH",
"120 393 OFFCURVE",
"107 405 OFFCURVE",
"107 422 CURVE SMOOTH",
"107 439 OFFCURVE",
"120 452 OFFCURVE",
"137 452 CURVE SMOOTH"
);
},
{
closed = 1;
nodes = (
"499 314 OFFCURVE",
"487 326 OFFCURVE",
"487 343 CURVE SMOOTH",
"487 360 OFFCURVE",
"499 373 OFFCURVE",
"516 373 CURVE SMOOTH",
"533 373 OFFCURVE",
"545 360 OFFCURVE",
"545 343 CURVE SMOOTH",
"545 326 OFFCURVE",
"533 314 OFFCURVE",
"516 314 CURVE SMOOTH"
);
},
{
closed = 1;
nodes = (
"106 373 OFFCURVE",
"118 360 OFFCURVE",
"118 343 CURVE SMOOTH",
"118 326 OFFCURVE",
"106 314 OFFCURVE",
"89 314 CURVE SMOOTH",
"72 314 OFFCURVE",
"59 326 OFFCURVE",
"59 343 CURVE SMOOTH",
"59 360 OFFCURVE",
"72 373 OFFCURVE",
"89 373 CURVE SMOOTH"
);
},
{
closed = 1;
nodes = (
"513 229 OFFCURVE",
"501 240 OFFCURVE",
"501 257 CURVE SMOOTH",
"501 275 OFFCURVE",
"513 287 OFFCURVE",
"530 287 CURVE SMOOTH",
"547 287 OFFCURVE",
"560 275 OFFCURVE",
"560 257 CURVE SMOOTH",
"560 240 OFFCURVE",
"547 229 OFFCURVE",
"530 229 CURVE SMOOTH"
);
},
{
closed = 1;
nodes = (
"92 287 OFFCURVE",
"104 275 OFFCURVE",
"104 257 CURVE SMOOTH",
"104 240 OFFCURVE",
"92 229 OFFCURVE",
"75 229 CURVE SMOOTH",
"58 229 OFFCURVE",
"45 240 OFFCURVE",
"45 257 CURVE SMOOTH",
"45 275 OFFCURVE",
"58 287 OFFCURVE",
"75 287 CURVE SMOOTH"
);
},
{
closed = 1;
nodes = (
"499 145 OFFCURVE",
"487 157 OFFCURVE",
"487 174 CURVE SMOOTH",
"487 191 OFFCURVE",
"499 203 OFFCURVE",
"516 203 CURVE SMOOTH",
"533 203 OFFCURVE",
"545 191 OFFCURVE",
"545 174 CURVE SMOOTH",
"545 157 OFFCURVE",
"533 145 OFFCURVE",
"516 145 CURVE SMOOTH"
);
},
{
closed = 1;
nodes = (
"106 203 OFFCURVE",
"118 191 OFFCURVE",
"118 174 CURVE SMOOTH",
"118 157 OFFCURVE",
"106 145 OFFCURVE",
"89 145 CURVE SMOOTH",
"72 145 OFFCURVE",
"59 157 OFFCURVE",
"59 174 CURVE SMOOTH",
"59 191 OFFCURVE",
"72 203 OFFCURVE",
"89 203 CURVE SMOOTH"
);
},
{
closed = 1;
nodes = (
"452 65 OFFCURVE",
"440 77 OFFCURVE",
"440 94 CURVE SMOOTH",
"440 111 OFFCURVE",
"452 123 OFFCURVE",
"469 123 CURVE SMOOTH",
"486 123 OFFCURVE",
"499 111 OFFCURVE",
"499 94 CURVE SMOOTH",
"499 77 OFFCURVE",
"486 65 OFFCURVE",
"469 65 CURVE SMOOTH"
);
},
{
closed = 1;
nodes = (
"153 123 OFFCURVE",
"165 111 OFFCURVE",
"165 94 CURVE SMOOTH",
"165 77 OFFCURVE",
"153 65 OFFCURVE",
"136 65 CURVE SMOOTH",
"119 65 OFFCURVE",
"106 77 OFFCURVE",
"106 94 CURVE SMOOTH",
"106 111 OFFCURVE",
"119 123 OFFCURVE",
"136 123 CURVE SMOOTH"
);
},
{
closed = 1;
nodes = (
"230 74 OFFCURVE",
"242 61 OFFCURVE",
"242 44 CURVE SMOOTH",
"242 27 OFFCURVE",
"230 15 OFFCURVE",
"213 15 CURVE SMOOTH",
"196 15 OFFCURVE",
"184 27 OFFCURVE",
"184 44 CURVE SMOOTH",
"184 61 OFFCURVE",
"196 74 OFFCURVE",
"213 74 CURVE SMOOTH"
);
},
{
closed = 1;
nodes = (
"374 15 OFFCURVE",
"363 27 OFFCURVE",
"363 44 CURVE SMOOTH",
"363 61 OFFCURVE",
"374 74 OFFCURVE",
"392 74 CURVE SMOOTH",
"409 74 OFFCURVE",
"421 61 OFFCURVE",
"421 44 CURVE SMOOTH",
"421 27 OFFCURVE",
"409 15 OFFCURVE",
"392 15 CURVE SMOOTH"
);
},
{
closed = 1;
nodes = (
"284 0 OFFCURVE",
"273 12 OFFCURVE",
"273 29 CURVE SMOOTH",
"273 46 OFFCURVE",
"284 59 OFFCURVE",
"302 59 CURVE SMOOTH",
"319 59 OFFCURVE",
"331 46 OFFCURVE",
"331 29 CURVE SMOOTH",
"331 12 OFFCURVE",
"319 0 OFFCURVE",
"302 0 CURVE SMOOTH"
);
}
);
width = 605;
}
);
unicode = 25CC;
},
{
glyphname = A;
lastChange = "2015-05-10 21:39:18 +0000";
layers = (
{
anchors = (
{
name = bottom;
position = "{590, 0}";
},
{
name = topU;
position = "{327, 680}";
}
);
layerId = "24C3257D-BF04-43D4-ADFB-51EF390723A7";
name = Light;
paths = (
{
closed = 1;
nodes = (
"327 502 LINE",
"238 265 LINE",
"418 265 LINE"
);
},
{
closed = 1;
nodes = (
"385 680 LINE",
"649 8 LINE",
"519 -10 LINE",
"458 160 LINE",
"200 160 LINE",
"140 0 LINE",
"10 0 LINE",
"275 680 LINE"
);
}
);
width = 659;
},
{
anchors = (
{
name = bottom;
position = "{612, 0}";
},
{
name = topU;
position = "{360, 680}";
}
);
layerId = "12413328-B98D-4C90-AAAC-8248DDAE45D4";
name = Bold;
paths = (
{
closed = 1;
nodes = (
"353 462 LINE",
"288 277 LINE",
"421 277 LINE"
);
},
{
closed = 1;
nodes = (
"447 680 LINE",
"701 8 LINE",
"522 -10 LINE",
"473 134 LINE",
"238 134 LINE",
"191 0 LINE",
"10 0 LINE",
"265 680 LINE"
);
}
);
width = 711;
}
);
unicode = 0041;
},
{
glyphname = B;
lastChange = "2015-05-10 21:39:18 +0000";
layers = (
{
layerId = "24C3257D-BF04-43D4-ADFB-51EF390723A7";
name = Light;
paths = (
{
closed = 1;
nodes = (
"85 0 LINE",
"85 680 LINE",
"349 680 LINE SMOOTH",
"481 680 OFFCURVE",
"572 627 OFFCURVE",
"572 490 CURVE SMOOTH",
"572 439 OFFCURVE",
"536 398 OFFCURVE",
"499 369 CURVE",
"560 337 OFFCURVE",
"604 284 OFFCURVE",
"604 200 CURVE SMOOTH",
"604 75 OFFCURVE",
"509 0 OFFCURVE",
"364 0 CURVE SMOOTH"
);
},
{
closed = 1;
nodes = (
"214 572 LINE",
"214 403 LINE",
"310 403 LINE SMOOTH",
"382 403 OFFCURVE",
"435 429 OFFCURVE",
"435 488 CURVE SMOOTH",
"435 552 OFFCURVE",
"395 572 OFFCURVE",
"330 572 CURVE SMOOTH"
);
},
{
closed = 1;
nodes = (
"214 298 LINE",
"214 107 LINE",
"354 107 LINE SMOOTH",
"423 107 OFFCURVE",
"469 140 OFFCURVE",
"469 199 CURVE SMOOTH",
"469 263 OFFCURVE",
"427 298 OFFCURVE",
"363 298 CURVE SMOOTH"
);
}
);
width = 629;
},
{
layerId = "12413328-B98D-4C90-AAAC-8248DDAE45D4";
name = Bold;
paths = (
{
closed = 1;
nodes = (
"80 0 LINE",
"80 680 LINE",
"317 680 LINE SMOOTH",
"466 680 OFFCURVE",
"597 623 OFFCURVE",
"597 484 CURVE SMOOTH",
"597 431 OFFCURVE",
"565 392 OFFCURVE",
"534 361 CURVE",
"587 324 OFFCURVE",
"625 268 OFFCURVE",
"625 203 CURVE SMOOTH",
"625 47 OFFCURVE",
"484 0 OFFCURVE",
"337 0 CURVE SMOOTH"
);
},
{
closed = 1;
nodes = (
"262 537 LINE",
"262 422 LINE",
"303 422 LINE SMOOTH",
"359 422 OFFCURVE",
"409 439 OFFCURVE",
"409 475 CURVE SMOOTH",
"409 516 OFFCURVE",
"372 537 OFFCURVE",
"311 537 CURVE SMOOTH"
);
},
{
closed = 1;
nodes = (
"262 279 LINE",
"262 143 LINE",
"341 143 LINE SMOOTH",
"397 143 OFFCURVE",
"437 164 OFFCURVE",
"437 207 CURVE SMOOTH",
"437 252 OFFCURVE",
"400 279 OFFCURVE",
"339 279 CURVE SMOOTH"
);
}
);
width = 645;
}
);
unicode = 0042;
},
{
glyphname = C;
lastChange = "2015-05-10 21:39:18 +0000";
layers = (
{
anchors = (
{
name = bottom;
position = "{357, 0}";
},
{
name = topU;
position = "{364, 680}";
}
);
layerId = "24C3257D-BF04-43D4-ADFB-51EF390723A7";
name = Light;
paths = (
{
closed = 1;
nodes = (
"503 557 LINE",
"444 574 OFFCURVE",
"418 585 OFFCURVE",
"359 585 CURVE SMOOTH",
"251 585 OFFCURVE",
"170 491 OFFCURVE",
"170 338 CURVE SMOOTH",
"170 206 OFFCURVE",
"235 95 OFFCURVE",
"351 95 CURVE SMOOTH",
"408 95 OFFCURVE",
"459 109 OFFCURVE",
"500 126 CURVE",
"549 30 LINE",
"497 3 OFFCURVE",
"414 -14 OFFCURVE",
"358 -14 CURVE SMOOTH",
"146 -14 OFFCURVE",
"35 141 OFFCURVE",
"35 337 CURVE SMOOTH",
"35 546 OFFCURVE",
"164 694 OFFCURVE",
"363 694 CURVE SMOOTH",
"403 694 OFFCURVE",
"484 682 OFFCURVE",
"543 650 CURVE"
);
}
);
width = 564;
},
{
anchors = (
{
name = bottom;
position = "{383, 0}";
},
{
name = topU;
position = "{380, 680}";
}
);
layerId = "12413328-B98D-4C90-AAAC-8248DDAE45D4";
name = Bold;
paths = (
{
closed = 1;
nodes = (
"525 514 LINE",
"453 539 OFFCURVE",
"426 544 OFFCURVE",
"381 544 CURVE SMOOTH",
"300 544 OFFCURVE",
"218 462 OFFCURVE",
"218 338 CURVE SMOOTH",
"218 210 OFFCURVE",
"303 136 OFFCURVE",
"388 136 CURVE SMOOTH",
"437 136 OFFCURVE",
"482 152 OFFCURVE",
"517 173 CURVE",
"586 37 LINE",
"533 5 OFFCURVE",
"452 -13 OFFCURVE",
"383 -13 CURVE SMOOTH",
"162 -13 OFFCURVE",
"30 132 OFFCURVE",
"30 337 CURVE SMOOTH",
"30 546 OFFCURVE",
"178 693 OFFCURVE",
"379 693 CURVE SMOOTH",
"447 693 OFFCURVE",
"526 673 OFFCURVE",
"579 637 CURVE"
);
}
);
width = 596;
}
);
unicode = 0043;
},
{
glyphname = D;
lastChange = "2015-05-10 21:39:18 +0000";
layers = (
{
anchors = (
{
name = topU;
position = "{327, 680}";
}
);
layerId = "24C3257D-BF04-43D4-ADFB-51EF390723A7";
name = Light;
paths = (
{
closed = 1;
nodes = (
"85 0 LINE",
"85 680 LINE",
"343 680 LINE SMOOTH",
"555 680 OFFCURVE",
"656 539 OFFCURVE",
"656 344 CURVE SMOOTH",
"656 131 OFFCURVE",
"544 3 OFFCURVE",
"343 0 CURVE SMOOTH"
);
},
{
closed = 1;
nodes = (
"214 570 LINE",
"214 109 LINE",
"341 109 LINE SMOOTH",
"450 109 OFFCURVE",
"522 175 OFFCURVE",
"522 344 CURVE SMOOTH",
"522 485 OFFCURVE",
"468 570 OFFCURVE",
"348 570 CURVE SMOOTH"
);
}
);
width = 691;
},
{
anchors = (
{
name = topU;
position = "{360, 680}";
}
);
layerId = "12413328-B98D-4C90-AAAC-8248DDAE45D4";
name = Bold;
paths = (
{
closed = 1;
nodes = (
"80 0 LINE",
"80 680 LINE",
"388 680 LINE SMOOTH",
"597 680 OFFCURVE",
"709 537 OFFCURVE",
"709 344 CURVE SMOOTH",
"709 132 OFFCURVE",
"575 0 OFFCURVE",
"384 0 CURVE SMOOTH"
);
},
{
closed = 1;
nodes = (
"262 537 LINE",
"262 143 LINE",
"372 143 LINE SMOOTH",
"456 143 OFFCURVE",
"521 209 OFFCURVE",
"521 344 CURVE SMOOTH",
"521 456 OFFCURVE",
"471 537 OFFCURVE",
"379 537 CURVE SMOOTH"
);
}
);
width = 739;
}
);
unicode = 0044;
},
{
glyphname = E;
lastChange = "2015-05-10 21:39:18 +0000";
layers = (
{
anchors = (
{
name = bottom;
position = "{440, 0}";
},
{
name = topU;
position = "{302, 680}";
}
);
layerId = "24C3257D-BF04-43D4-ADFB-51EF390723A7";
name = Light;
paths = (
{
closed = 1;
nodes = (
"85 0 LINE",
"85 680 LINE",
"491 680 LINE",
"511 578 LINE",
"214 578 LINE",
"214 395 LINE",
"436 395 LINE",
"457 292 LINE",
"214 292 LINE",
"214 101 LINE",
"540 101 LINE",
"561 0 LINE"
);
}
);
width = 581;
},
{
anchors = (
{
name = bottom;
position = "{416, 0}";
},
{
name = topU;
position = "{336, 680}";
}
);
layerId = "12413328-B98D-4C90-AAAC-8248DDAE45D4";
name = Bold;
paths = (
{
closed = 1;
nodes = (
"80 0 LINE",
"80 680 LINE",
"531 680 LINE",
"548 537 LINE",
"262 537 LINE",
"262 413 LINE",
"471 413 LINE",
"488 270 LINE",
"262 270 LINE",
"262 143 LINE",
"561 143 LINE",
"578 0 LINE"
);
}
);
width = 598;
}
);
unicode = 0045;
},
{
glyphname = F;
lastChange = "2015-05-10 21:39:18 +0000";
layers = (
{
layerId = "24C3257D-BF04-43D4-ADFB-51EF390723A7";
name = Light;
paths = (
{
closed = 1;
nodes = (
"446 288 LINE",
"214 288 LINE",
"214 0 LINE",
"85 0 LINE",
"85 680 LINE",
"470 680 LINE",
"490 578 LINE",
"214 578 LINE",
"214 389 LINE",
"427 389 LINE"
);
}
);
width = 510;
},
{
layerId = "12413328-B98D-4C90-AAAC-8248DDAE45D4";
name = Bold;
paths = (
{
closed = 1;
nodes = (
"488 257 LINE",
"262 257 LINE",
"262 0 LINE",
"80 0 LINE",
"80 679 LINE",
"521 679 LINE",
"538 536 LINE",
"262 536 LINE",
"262 400 LINE",
"471 400 LINE"
);
}
);
width = 558;
}
);
unicode = 0046;
},
{
glyphname = G;
lastChange = "2015-05-10 21:42:55 +0000";
layers = (
{
anchors = (
{
name = bottom;
position = "{374, 0}";
},
{
name = topU;
position = "{389, 680}";
}
);
layerId = "24C3257D-BF04-43D4-ADFB-51EF390723A7";
name = Light;
paths = (
{
closed = 1;
nodes = (
"337 372 LINE",
"585 372 LINE",
"585 36 LINE",
"533 8 OFFCURVE",
"457 -14 OFFCURVE",
"373 -14 CURVE SMOOTH",
"161 -14 OFFCURVE",
"35 142 OFFCURVE",
"35 337 CURVE SMOOTH",
"35 544 OFFCURVE",
"184 694 OFFCURVE",
"389 694 CURVE SMOOTH",
"429 694 OFFCURVE",
"515 682 OFFCURVE",
"575 650 CURVE",
"534 557 LINE",
"475 574 OFFCURVE",
"450 585 OFFCURVE",
"391 585 CURVE SMOOTH",
"271 585 OFFCURVE",
"170 503 OFFCURVE",
"170 338 CURVE SMOOTH",
"170 189 OFFCURVE",
"251 95 OFFCURVE",
"370 95 CURVE SMOOTH",
"414 95 OFFCURVE",
"445 101 OFFCURVE",
"469 106 CURVE",
"469 272 LINE",
"326 272 LINE"
);
}
);
width = 630;
},
{
anchors = (
{
name = bottom;
position = "{393, 0}";
},
{
name = topU;
position = "{398, 680}";
}
);
layerId = "12413328-B98D-4C90-AAAC-8248DDAE45D4";
name = Bold;
paths = (
{
closed = 1;
nodes = (
"361 392 LINE",
"626 392 LINE",
"626 37 LINE",
"573 5 OFFCURVE",
"462 -13 OFFCURVE",
"393 -13 CURVE SMOOTH",
"172 -13 OFFCURVE",
"30 116 OFFCURVE",
"30 337 CURVE SMOOTH",
"30 560 OFFCURVE",
"198 693 OFFCURVE",
"399 693 CURVE SMOOTH",
"467 693 OFFCURVE",
"566 673 OFFCURVE",
"619 637 CURVE",
"565 514 LINE",
"493 539 OFFCURVE",
"446 544 OFFCURVE",
"401 544 CURVE SMOOTH",
"320 544 OFFCURVE",
"218 477 OFFCURVE",
"218 338 CURVE SMOOTH",
"218 191 OFFCURVE",
"313 136 OFFCURVE",
"398 136 CURVE SMOOTH",
"417 136 OFFCURVE",
"439 138 OFFCURVE",
"462 142 CURVE",
"462 259 LINE",
"345 259 LINE"
);
}
);
width = 666;
}
);
unicode = 0047;
},
{
glyphname = H;
lastChange = "2015-05-10 21:39:18 +0000";
layers = (
{
layerId = "24C3257D-BF04-43D4-ADFB-51EF390723A7";
name = Light;
paths = (
{
closed = 1;
nodes = (
"482 0 LINE",
"482 288 LINE",
"214 288 LINE",
"214 0 LINE",
"85 0 LINE",
"85 680 LINE",
"214 685 LINE",
"214 392 LINE",
"482 392 LINE",
"482 680 LINE",
"611 680 LINE",
"611 0 LINE"
);
}
);
width = 696;
},
{
layerId = "12413328-B98D-4C90-AAAC-8248DDAE45D4";
name = Bold;
paths = (
{
closed = 1;
nodes = (
"500 0 LINE",
"500 266 LINE",
"262 266 LINE",
"262 0 LINE",
"80 0 LINE",
"80 680 LINE",
"262 686 LINE",
"262 409 LINE",
"500 409 LINE",
"500 680 LINE",
"682 680 LINE",
"682 0 LINE"
);
}
);
width = 762;
}
);
unicode = 0048;
},
{
glyphname = I;
lastChange = "2015-05-10 21:39:18 +0000";
layers = (
{
anchors = (
{
name = bottom;
position = "{152, 0}";
},
{
name = topU;
position = "{152, 680}";
}
);
layerId = "24C3257D-BF04-43D4-ADFB-51EF390723A7";
name = Light;
paths = (
{
closed = 1;
nodes = (
"85 0 LINE",
"85 680 LINE",
"214 680 LINE",
"214 0 LINE"
);
}
);
width = 299;
},
{
anchors = (
{
name = bottom;
position = "{157, 0}";
},
{
name = topU;
position = "{175, 680}";
}
);
layerId = "12413328-B98D-4C90-AAAC-8248DDAE45D4";
name = Bold;
paths = (
{
closed = 1;
nodes = (
"80 0 LINE",
"80 680 LINE",
"262 680 LINE",
"262 0 LINE"
);
}
);
width = 342;
}
);
unicode = 0049;
},
{
glyphname = J;
lastChange = "2015-05-10 21:39:18 +0000";
layers = (
{
layerId = "24C3257D-BF04-43D4-ADFB-51EF390723A7";
name = Light;
paths = (
{
closed = 1;
nodes = (
"88 680 LINE",
"219 680 LINE",
"219 68 LINE SMOOTH",
"219 -24 OFFCURVE",
"182 -63 OFFCURVE",
"62 -102 CURVE",
"10 -6 LINE",
"81 19 OFFCURVE",
"88 31 OFFCURVE",
"88 87 CURVE SMOOTH"
);
}
);
width = 294;
},
{
layerId = "12413328-B98D-4C90-AAAC-8248DDAE45D4";
name = Bold;
paths = (
{
closed = 1;
nodes = (
"93 680 LINE",
"275 680 LINE",
"275 84 LINE SMOOTH",
"275 -17 OFFCURVE",
"225 -61 OFFCURVE",
"84 -106 CURVE",
"10 38 LINE",
"83 67 OFFCURVE",
"93 101 OFFCURVE",
"93 137 CURVE SMOOTH"
);
}
);
width = 345;
}
);
unicode = 004A;
},
{
glyphname = K;
lastChange = "2015-05-10 22:42:01 +0000";
layers = (
{
anchors = (
{
name = bottom;
position = "{356, 0}";
}
);
layerId = "24C3257D-BF04-43D4-ADFB-51EF390723A7";
name = Light;
paths = (
{
closed = 1;
nodes = (
"648 0 LINE",
"371.698 376.511 LINE",
"606 621 LINE",
"510 695 LINE",
"215 395 LINE",
"215 680 LINE",
"85 680 LINE",
"85 0 LINE",
"215 0 LINE",
"215 213 LINE",
"282.384 283.314 LINE",
"487 0 LINE"
);
}
);
width = 658;
},
{
anchors = (
{
name = bottom;
position = "{376, 0}";
}
);
layerId = "12413328-B98D-4C90-AAAC-8248DDAE45D4";
name = Bold;
paths = (
{
closed = 1;
nodes = (
"720 0 LINE",
"445 377 LINE",
"676 593 LINE",
"535 695 LINE",
"262 444 LINE",
"262 680 LINE",
"80 680 LINE",
"80 0 LINE",
"262 0 LINE",
"262 204 LINE",
"315 254 LINE",
"489 0 LINE"
);
}
);
width = 730;
}
);
unicode = 004B;
},
{
glyphname = L;
lastChange = "2015-05-10 21:39:18 +0000";
layers = (
{
anchors = (
{
name = bottom;
position = "{369, 0}";
},
{
name = topU;
position = "{239, 680}";
}
);
layerId = "24C3257D-BF04-43D4-ADFB-51EF390723A7";
name = Light;
paths = (
{
closed = 1;
nodes = (
"534 0 LINE",
"85 0 LINE",
"85 680 LINE",
"214 680 LINE",
"214 101 LINE",
"514 101 LINE"
);
}
);
width = 544;
},
{
anchors = (
{
name = bottom;
position = "{333, 0}";
},
{
name = topU;
position = "{300, 680}";
}
);
layerId = "12413328-B98D-4C90-AAAC-8248DDAE45D4";
name = Bold;
paths = (
{
closed = 1;
nodes = (
"568 0 LINE",
"80 0 LINE",
"80 680 LINE",
"262 680 LINE",
"262 143 LINE",
"551 143 LINE"
);
}
);
width = 578;
}
);
unicode = 004C;
},
{
glyphname = M;
lastChange = "2015-05-10 22:42:12 +0000";
layers = (
{
layerId = "24C3257D-BF04-43D4-ADFB-51EF390723A7";
name = Light;
paths = (
{
closed = 1;
nodes = (
"377 206 LINE",
"214 415 LINE",
"214 0 LINE",
"85 0 LINE",
"85 680 LINE",
"167 680 LINE",
"397 366 LINE",
"606 680 LINE",
"685 680 LINE",
"685 0 LINE",
"554 0 LINE",
"554 392 LINE",
"427 213 LINE"
);
}
);
width = 770;
},
{
layerId = "12413328-B98D-4C90-AAAC-8248DDAE45D4";
name = Bold;
paths = (
{
closed = 1;
nodes = (
"372 195 LINE",
"262 329 LINE",
"262 0 LINE",
"80 0 LINE",
"80 680 LINE",
"205 680 LINE",
"410 421 LINE",
"598 680 LINE",
"719 680 LINE",
"719 0 LINE",
"537 0 LINE",
"537 329 LINE",
"445 205 LINE"
);
}
);
width = 799;
}
);
unicode = 004D;
},
{
glyphname = N;
lastChange = "2015-05-10 21:39:18 +0000";
layers = (
{
anchors = (
{
name = bottom;
position = "{381, 0}";
},
{
name = topU;
position = "{378, 680}";
}
);
layerId = "24C3257D-BF04-43D4-ADFB-51EF390723A7";
name = Light;
paths = (
{
closed = 1;
nodes = (
"85 0 LINE",
"85 680 LINE",
"214 680 LINE",
"529 226 LINE",
"529 680 LINE",
"659 680 LINE",
"659 0 LINE",
"529 0 LINE",
"214 455 LINE",
"214 0 LINE"
);
}
);
width = 744;
},
{
anchors = (
{
name = bottom;
position = "{394, 0}";
},
{
name = topU;
position = "{382, 680}";
}
);
layerId = "12413328-B98D-4C90-AAAC-8248DDAE45D4";
name = Bold;
paths = (
{
closed = 1;
nodes = (
"80 0 LINE",
"80 680 LINE",
"249 680 LINE",
"511 311 LINE",
"511 680 LINE",
"693 680 LINE",
"693 0 LINE",
"523 0 LINE",
"262 358 LINE",
"262 0 LINE"
);
}
);
width = 773;
}
);
unicode = 004E;
},
{
glyphname = O;
lastChange = "2015-05-10 22:42:24 +0000";
layers = (
{
anchors = (
{
name = topU;
position = "{368, 680}";
}
);
layerId = "24C3257D-BF04-43D4-ADFB-51EF390723A7";
name = Light;
paths = (
{
closed = 1;
nodes = (
"581 696 OFFCURVE",
"702 539 OFFCURVE",
"702 344 CURVE SMOOTH",
"702 133 OFFCURVE",
"567 -10 OFFCURVE",
"368 -14 CURVE SMOOTH",
"156 -14 OFFCURVE",
"35 142 OFFCURVE",
"35 337 CURVE SMOOTH",
"35 546 OFFCURVE",
"169 692 OFFCURVE",
"368 696 CURVE SMOOTH"
);
},
{
closed = 1;
nodes = (
"170 195 OFFCURVE",
"246 95 OFFCURVE",
"367 95 CURVE SMOOTH",
"476 95 OFFCURVE",
"567 175 OFFCURVE",
"567 344 CURVE SMOOTH",
"567 485 OFFCURVE",
"491 586 OFFCURVE",
"370 586 CURVE SMOOTH",
"263 586 OFFCURVE",
"170 490 OFFCURVE",
"170 338 CURVE SMOOTH"
);
}
);
width = 737;
},
{
anchors = (
{
name = topU;
position = "{381, 680}";
}
);
layerId = "12413328-B98D-4C90-AAAC-8248DDAE45D4";
name = Bold;
paths = (
{
closed = 1;
nodes = (
"602 694 OFFCURVE",
"733 539 OFFCURVE",
"733 344 CURVE SMOOTH",
"733 133 OFFCURVE",
"589 -14 OFFCURVE",
"381 -14 CURVE SMOOTH",
"164 -14 OFFCURVE",
"30 142 OFFCURVE",
"30 337 CURVE SMOOTH",
"30 546 OFFCURVE",
"177 694 OFFCURVE",
"381 694 CURVE SMOOTH"
);
},
{
closed = 1;
nodes = (
"217 223 OFFCURVE",
"277 138 OFFCURVE",
"380 138 CURVE SMOOTH",
"473 138 OFFCURVE",
"546 207 OFFCURVE",
"546 344 CURVE SMOOTH",
"546 457 OFFCURVE",
"484 542 OFFCURVE",
"383 542 CURVE SMOOTH",
"292 542 OFFCURVE",
"217 461 OFFCURVE",
"217 338 CURVE SMOOTH"
);
}
);
width = 763;
}
);
unicode = 004F;
},
{
glyphname = P;
lastChange = "2015-05-10 21:39:18 +0000";
layers = (
{
layerId = "24C3257D-BF04-43D4-ADFB-51EF390723A7";
name = Light;
paths = (
{
closed = 1;
nodes = (
"85 0 LINE",
"85 680 LINE",
"298 680 LINE SMOOTH",
"446 680 OFFCURVE",
"567 618 OFFCURVE",
"567 462 CURVE SMOOTH",
"566 307 OFFCURVE",
"433 237 OFFCURVE",
"289 237 CURVE SMOOTH",
"214 237 LINE",
"214 0 LINE"
);
},
{
closed = 1;
nodes = (
"214 572 LINE",
"214 344 LINE",
"296 344 LINE SMOOTH",
"373 344 OFFCURVE",
"425 378 OFFCURVE",
"430 454 CURVE",
"430 542 OFFCURVE",
"379 572 OFFCURVE",
"294 572 CURVE SMOOTH"
);
}
);
width = 592;
},
{
layerId = "12413328-B98D-4C90-AAAC-8248DDAE45D4";
name = Bold;
paths = (
{
closed = 1;
nodes = (
"80 0 LINE",
"80 680 LINE",
"366 680 LINE SMOOTH",
"517 680 OFFCURVE",
"646 599 OFFCURVE",
"646 435 CURVE SMOOTH",
"646 272 OFFCURVE",
"505 198 OFFCURVE",
"358 198 CURVE SMOOTH",
"262 198 LINE",
"262 0 LINE"
);
},
{
closed = 1;
nodes = (
"262 537 LINE",
"262 341 LINE",
"362 341 LINE SMOOTH",
"418 341 OFFCURVE",
"458 382 OFFCURVE",
"458 435 CURVE SMOOTH",
"458 495 OFFCURVE",
"421 537 OFFCURVE",
"360 537 CURVE SMOOTH"
);
}
);
width = 666;
}
);
unicode = 0050;
},
{
glyphname = Q;
lastChange = "2015-05-10 22:42:31 +0000";
layers = (
{
layerId = "24C3257D-BF04-43D4-ADFB-51EF390723A7";
name = Light;
paths = (
{
closed = 1;
nodes = (
"684 31 LINE",
"608 -36 LINE",
"367 188 LINE",
"455 255 LINE"
);
},
{
closed = 1;
nodes = (
"581 696 OFFCURVE",
"702 539 OFFCURVE",
"702 344 CURVE SMOOTH",
"702 133 OFFCURVE",
"567 -10 OFFCURVE",
"368 -14 CURVE SMOOTH",
"156 -14 OFFCURVE",
"35 142 OFFCURVE",
"35 337 CURVE SMOOTH",
"35 546 OFFCURVE",
"169 692 OFFCURVE",
"368 696 CURVE SMOOTH"
);
},
{
closed = 1;
nodes = (
"170 195 OFFCURVE",
"246 95 OFFCURVE",
"367 95 CURVE SMOOTH",
"476 95 OFFCURVE",
"567 175 OFFCURVE",
"567 344 CURVE SMOOTH",
"567 485 OFFCURVE",
"491 586 OFFCURVE",
"370 586 CURVE SMOOTH",
"263 586 OFFCURVE",
"170 490 OFFCURVE",
"170 338 CURVE SMOOTH"
);
}
);
width = 737;
},
{
layerId = "12413328-B98D-4C90-AAAC-8248DDAE45D4";
name = Bold;
paths = (
{
closed = 1;
nodes = (
"717 45 LINE",
"605 -52 LINE",
"336 229 LINE",
"456 331 LINE"
);
},
{
closed = 1;
nodes = (
"602 694 OFFCURVE",
"733 539 OFFCURVE",
"733 344 CURVE SMOOTH",
"733 133 OFFCURVE",
"589 -14 OFFCURVE",
"381 -14 CURVE SMOOTH",
"164 -14 OFFCURVE",
"30 142 OFFCURVE",
"30 337 CURVE SMOOTH",
"30 546 OFFCURVE",
"177 694 OFFCURVE",
"381 694 CURVE SMOOTH"
);
},
{
closed = 1;
nodes = (
"217 223 OFFCURVE",
"277 138 OFFCURVE",
"380 138 CURVE SMOOTH",
"473 138 OFFCURVE",
"546 207 OFFCURVE",
"546 344 CURVE SMOOTH",
"546 457 OFFCURVE",
"484 542 OFFCURVE",
"383 542 CURVE SMOOTH",
"292 542 OFFCURVE",
"217 461 OFFCURVE",
"217 338 CURVE SMOOTH"
);
}
);
width = 763;
}
);
unicode = 0051;
},
{
glyphname = R;
lastChange = "2015-05-10 21:43:31 +0000";
layers = (
{
anchors = (
{
name = bottom;
position = "{348, 0}";
},
{
name = topU;
position = "{299, 680}";
}
);
layerId = "24C3257D-BF04-43D4-ADFB-51EF390723A7";
name = Light;
paths = (
{
closed = 1;
nodes = (
"214 572 LINE",
"214 364 LINE",
"296 364 LINE SMOOTH",
"373 364 OFFCURVE",
"430 393 OFFCURVE",
"430 465 CURVE SMOOTH",
"430 541 OFFCURVE",
"379 572 OFFCURVE",
"294 572 CURVE SMOOTH"
);
},
{
closed = 1;
nodes = (
"298 680 LINE SMOOTH",
"446 680 OFFCURVE",
"567 614 OFFCURVE",
"567 471 CURVE SMOOTH",
"567 387 OFFCURVE",
"519 325 OFFCURVE",
"451 292 CURVE",
"618 0 LINE",
"480 0 LINE",
"336 258 LINE",
"214 258 LINE",
"214 0 LINE",
"85 0 LINE",
"85 680 LINE"
);
}
);
width = 628;
},
{
anchors = (
{
name = bottom;
position = "{381, 0}";
},
{
name = topU;
position = "{360, 680}";
}
);
layerId = "12413328-B98D-4C90-AAAC-8248DDAE45D4";
name = Bold;
paths = (
{
closed = 1;
nodes = (
"262 537 LINE",
"262 357 LINE",
"362 357 LINE SMOOTH",
"418 357 OFFCURVE",
"458 395 OFFCURVE",
"458 448 CURVE SMOOTH",
"458 508 OFFCURVE",
"421 537 OFFCURVE",
"360 537 CURVE SMOOTH"
);
},
{
closed = 1;
nodes = (
"366 680 LINE SMOOTH",
"517 680 OFFCURVE",
"646 612 OFFCURVE",
"646 448 CURVE SMOOTH",
"646 365 OFFCURVE",
"609 305 OFFCURVE",
"554 268 CURVE",
"704 0 LINE",
"493 0 LINE",
"383 214 LINE",
"262 214 LINE",
"262 0 LINE",
"80 0 LINE",
"80 680 LINE"
);
}
);
width = 714;
}
);
unicode = 0052;
},
{
glyphname = S;
lastChange = "2015-05-10 21:43:41 +0000";
layers = (
{
anchors = (
{
name = bottom;
position = "{248, 0}";
},
{
name = topU;
position = "{269, 680}";
}
);
layerId = "24C3257D-BF04-43D4-ADFB-51EF390723A7";
name = Light;
paths = (
{
closed = 1;
nodes = (
"76 150 LINE",
"117 129 OFFCURVE",
"189 102 OFFCURVE",
"246 102 CURVE SMOOTH",
"327 102 OFFCURVE",
"368 128 OFFCURVE",
"368 176 CURVE SMOOTH",
"368 221 OFFCURVE",
"300 251 OFFCURVE",
"238 288 CURVE SMOOTH",
"142 346 OFFCURVE",
"35 409 OFFCURVE",
"35 514 CURVE SMOOTH",
"35 617 OFFCURVE",
"120 696 OFFCURVE",
"269 696 CURVE SMOOTH",
"337 696 OFFCURVE",
"409 670 OFFCURVE",
"461 645 CURVE",
"418 541 LINE",
"377 561 OFFCURVE",
"330 583 OFFCURVE",
"271 583 CURVE SMOOTH",
"214 583 OFFCURVE",
"169 561 OFFCURVE",
"169 514 CURVE SMOOTH",
"169 463 OFFCURVE",
"230 438 OFFCURVE",
"297 398 CURVE SMOOTH",
"394 340 OFFCURVE",
"502 290 OFFCURVE",
"502 174 CURVE SMOOTH",
"502 66 OFFCURVE",
"412 -13 OFFCURVE",
"248 -13 CURVE SMOOTH",
"191 -13 OFFCURVE",
"91 18 OFFCURVE",
"47 45 CURVE"
);
}
);
width = 527;
},
{
anchors = (
{
name = bottom;
position = "{256, 0}";
},
{
name = topU;
position = "{284, 680}";
}
);
layerId = "12413328-B98D-4C90-AAAC-8248DDAE45D4";
name = Bold;
paths = (
{
closed = 1;
nodes = (
"93 179 LINE",
"128 158 OFFCURVE",
"202 136 OFFCURVE",
"251 136 CURVE SMOOTH",
"308 136 OFFCURVE",
"339 164 OFFCURVE",
"339 189 CURVE SMOOTH",
"339 213 OFFCURVE",
"286 237 OFFCURVE",
"234 268 CURVE SMOOTH",
"146 320 OFFCURVE",
"30 382 OFFCURVE",
"30 498 CURVE SMOOTH",
"31 610 OFFCURVE",
"128 693 OFFCURVE",
"283 693 CURVE SMOOTH",
"351 693 OFFCURVE",
"430 673 OFFCURVE",
"483 637 CURVE",
"429 514 LINE",
"357 539 OFFCURVE",
"330 544 OFFCURVE",
"285 544 CURVE SMOOTH",
"244 544 OFFCURVE",
"218 521 OFFCURVE",
"218 496 CURVE SMOOTH",
"218 467 OFFCURVE",
"267 450 OFFCURVE",
"321 419 CURVE SMOOTH",
"417 364 OFFCURVE",
"527 298 OFFCURVE",
"527 187 CURVE SMOOTH",
"527 72 OFFCURVE",
"424 -13 OFFCURVE",
"256 -13 CURVE SMOOTH",
"187 -13 OFFCURVE",
"86 10 OFFCURVE",
"33 42 CURVE"
);
}
);
width = 547;
}
);
unicode = 0053;
},
{
glyphname = T;
lastChange = "2015-05-10 22:42:43 +0000";
layers = (
{
anchors = (
{
name = bottom;
position = "{283, 0}";
},
{
name = topU;
position = "{284, 680}";
}
);
layerId = "24C3257D-BF04-43D4-ADFB-51EF390723A7";
name = Light;
paths = (
{
closed = 1;
nodes = (
"581 578 LINE",
"348 578 LINE",
"348 0 LINE",
"217 0 LINE",
"217 578 LINE",
"10 578 LINE",
"10 680 LINE",
"560 680 LINE"
);
}
);
width = 591;
},
{
anchors = (
{
name = bottom;
position = "{306, 0}";
},
{
name = topU;
position = "{308, 680}";
}
);
layerId = "12413328-B98D-4C90-AAAC-8248DDAE45D4";
name = Bold;
paths = (
{
closed = 1;
nodes = (
"609 537 LINE",
"392 537 LINE",
"392 0 LINE",
"210 0 LINE",
"210 537 LINE",
"10 537 LINE",
"10 680 LINE",
"592 680 LINE"
);
}
);
width = 619;
}
);
unicode = 0054;
},
{
glyphname = U;
lastChange = "2015-05-10 21:43:56 +0000";
layers = (
{
anchors = (
{
name = bottom;
position = "{355, 0}";
},
{
name = topU;
position = "{355, 680}";
}
);
layerId = "24C3257D-BF04-43D4-ADFB-51EF390723A7";
name = Light;
paths = (
{
closed = 1;
nodes = (
"206 257 LINE SMOOTH",
"206 144 OFFCURVE",
"268 95 OFFCURVE",
"355 95 CURVE SMOOTH",
"443 95 OFFCURVE",
"504 148 OFFCURVE",
"504 257 CURVE SMOOTH",
"504 680 LINE",
"635 680 LINE",
"635 247 LINE SMOOTH",
"635 100 OFFCURVE",
"526 -10 OFFCURVE",
"355 -11 CURVE SMOOTH",
"184 -12 OFFCURVE",
"76 100 OFFCURVE",
"76 247 CURVE SMOOTH",
"75 680 LINE",
"206 680 LINE"
);
}
);
width = 710;
},
{
anchors = (
{
name = bottom;
position = "{374, 0}";
},
{
name = topU;
position = "{375, 680}";
}
);
layerId = "12413328-B98D-4C90-AAAC-8248DDAE45D4";
name = Bold;
paths = (
{
closed = 1;
nodes = (
"252 269 LINE SMOOTH",
"252 184 OFFCURVE",
"303 138 OFFCURVE",
"375 138 CURVE SMOOTH",
"447 138 OFFCURVE",
"498 184 OFFCURVE",
"498 269 CURVE SMOOTH",
"498 680 LINE",
"680 680 LINE",
"680 260 LINE SMOOTH",
"680 83 OFFCURVE",
"556 -14 OFFCURVE",
"375 -14 CURVE SMOOTH",
"194 -14 OFFCURVE",
"70 83 OFFCURVE",
"70 260 CURVE SMOOTH",
"70 680 LINE",
"252 680 LINE"
);
}
);
width = 750;
}
);
unicode = 0055;
},
{
glyphname = V;
lastChange = "2015-05-10 22:42:52 +0000";
layers = (
{
layerId = "24C3257D-BF04-43D4-ADFB-51EF390723A7";
name = Light;
paths = (
{
closed = 1;
nodes = (
"332 178 LINE",
"519 680 LINE",
"649 680 LINE",
"384 0 LINE",
"274 0 LINE",
"10 672 LINE",
"140 690 LINE"
);
}
);
width = 659;
},
{
layerId = "12413328-B98D-4C90-AAAC-8248DDAE45D4";
name = Bold;
paths = (
{
closed = 1;
nodes = (
"358 218 LINE",
"520 680 LINE",
"701 680 LINE",
"446 0 LINE",
"264 0 LINE",
"10 672 LINE",
"189 690 LINE"
);
}
);
width = 711;
}
);
unicode = 0056;
},
{
glyphname = W;
lastChange = "2015-05-10 21:39:18 +0000";
layers = (
{
layerId = "24C3257D-BF04-43D4-ADFB-51EF390723A7";
name = Light;
paths = (
{
closed = 1;
nodes = (
"785 680 LINE",
"658 178 LINE",
"529 680 LINE",
"399 680 LINE",
"272 178 LINE",
"140 690 LINE",
"10 672 LINE",
"214 0 LINE",
"324 0 LINE",
"462 496 LINE",
"600 0 LINE",
"710 0 LINE",
"915 680 LINE"
);
}
);
width = 925;
},
{
layerId = "12413328-B98D-4C90-AAAC-8248DDAE45D4";
name = Bold;
paths = (
{
closed = 1;
nodes = (
"809 680 LINE",
"707 218 LINE",
"591 680 LINE",
"410 680 LINE",
"308 218 LINE",
"189 690 LINE",
"10 672 LINE",
"214 0 LINE",
"396 0 LINE",
"501 427 LINE",
"613 0 LINE",
"795 0 LINE",
"990 680 LINE"
);
}
);
width = 1000;
}
);
unicode = 0057;
},
{
glyphname = X;
lastChange = "2015-05-10 22:43:01 +0000";
layers = (
{
layerId = "24C3257D-BF04-43D4-ADFB-51EF390723A7";
name = Light;
paths = (
{
closed = 1;
nodes = (
"10 0 LINE",
"248 344 LINE",
"22 656 LINE",
"135 700 LINE",
"325 428 LINE",
"492 680 LINE",
"627 680 LINE",
"390 339 LINE",
"614 0 LINE",
"478 0 LINE",
"314 256 LINE",
"143 0 LINE"
);
}
);
width = 637;
},
{
layerId = "12413328-B98D-4C90-AAAC-8248DDAE45D4";
name = Bold;
paths = (
{
closed = 1;
nodes = (
"10 0 LINE",
"247 338 LINE",
"29 648 LINE",
"225 705 LINE",
"362 498 LINE",
"478 680 LINE",
"704 680 LINE",
"477 345 LINE",
"705 0 LINE",
"472 0 LINE",
"362 186 LINE",
"225 0 LINE"
);
}
);
width = 715;
}
);
unicode = 0058;
},
{
glyphname = Y;
lastChange = "2015-05-10 21:39:18 +0000";
layers = (
{
anchors = (
{
name = topU;
position = "{296, 680}";
}
);
layerId = "24C3257D-BF04-43D4-ADFB-51EF390723A7";
name = Light;
paths = (
{
closed = 1;
nodes = (
"232 0 LINE",
"232 265 LINE",
"10 657 LINE",
"138 694 LINE",
"296 396 LINE",
"461 680 LINE",
"598 680 LINE",
"362 260 LINE",
"362 0 LINE"
);
}
);
width = 608;
},
{
anchors = (
{
name = topU;
position = "{316, 680}";
}
);
layerId = "12413328-B98D-4C90-AAAC-8248DDAE45D4";
name = Bold;
paths = (
{
closed = 1;
nodes = (
"226 0 LINE",
"226 268 LINE",
"10 646 LINE",
"184 694 LINE",
"316 435 LINE",
"457 680 LINE",
"644 680 LINE",
"408 266 LINE",
"408 0 LINE"
);
}
);
width = 654;
}
);
unicode = 0059;
},
{
glyphname = Z;
lastChange = "2015-05-10 22:43:10 +0000";
layers = (
{
anchors = (
{
name = topU;
position = "{280, 680}";
}
);
layerId = "24C3257D-BF04-43D4-ADFB-51EF390723A7";
name = Light;
paths = (
{
closed = 1;
nodes = (
"562 0 LINE",
"30 0 LINE",
"15 101 LINE",
"403 578 LINE",
"59 578 LINE",
"44 680 LINE",
"539 680 LINE",
"554 578 LINE",
"155 101 LINE",
"547 101 LINE"
);
}
);
width = 577;
},
{
anchors = (
{
name = topU;
position = "{292, 680}";
}
);
layerId = "12413328-B98D-4C90-AAAC-8248DDAE45D4";
name = Bold;
paths = (
{
closed = 1;
nodes = (
"571 0 LINE",
"30 0 LINE",
"10 128 LINE",
"357 537 LINE",
"56 537 LINE",
"39 680 LINE",
"555 680 LINE",
"574 551 LINE",
"220 143 LINE",
"554 143 LINE"
);
}
);
width = 584;
}
);
unicode = 005A;
},
{
glyphname = a;
lastChange = "2015-05-10 21:44:35 +0000";
layers = (
{
anchors = (
{
name = bottom;
position = "{425, 0}";
},
{
name = top;
position = "{255, 485}";
}
);
layerId = "24C3257D-BF04-43D4-ADFB-51EF390723A7";
name = Light;
paths = (
{
closed = 1;
nodes = (
"67 454 LINE",
"104 479 OFFCURVE",
"200 498 OFFCURVE",
"241 498 CURVE SMOOTH",
"357 498 OFFCURVE",
"452 423 OFFCURVE",
"452 319 CURVE SMOOTH",
"452 0 LINE",
"367 0 LINE",
"345 52 LINE",
"309 14 OFFCURVE",
"265 -12 OFFCURVE",
"217 -12 CURVE SMOOTH",
"98 -12 OFFCURVE",
"42 52 OFFCURVE",
"42 145 CURVE SMOOTH",
"42 245 OFFCURVE",
"117 300 OFFCURVE",
"226 300 CURVE SMOOTH",
"321 300 LINE",
"320 349 OFFCURVE",
"291 378 OFFCURVE",
"243 378 CURVE SMOOTH",
"198 378 OFFCURVE",
"138 363 OFFCURVE",
"102 346 CURVE"
);
},
{
closed = 1;
nodes = (
"153 117 OFFCURVE",
"178 91 OFFCURVE",
"215 91 CURVE SMOOTH",
"251 91 OFFCURVE",
"289 107 OFFCURVE",
"322 139 CURVE",
"322 213 LINE",
"224 213 LINE SMOOTH",
"179 213 OFFCURVE",
"153 180 OFFCURVE",
"153 145 CURVE SMOOTH"
);
}
);
width = 503;
},
{
anchors = (
{
name = bottom;
position = "{410, 0}";
},
{
name = top;
position = "{261, 485}";
}
);
layerId = "12413328-B98D-4C90-AAAC-8248DDAE45D4";
name = Bold;
paths = (
{
closed = 1;
nodes = (
"48 456 LINE",
"99 479 OFFCURVE",
"182 502 OFFCURVE",
"262 502 CURVE SMOOTH",
"394 502 OFFCURVE",
"463 423 OFFCURVE",
"463 300 CURVE SMOOTH",
"463 0 LINE",
"375 0 LINE",
"323 50 LINE",
"292 11 OFFCURVE",
"255 -11 OFFCURVE",
"214 -11 CURVE SMOOTH",
"91 -11 OFFCURVE",
"32 56 OFFCURVE",
"32 156 CURVE SMOOTH",
"32 261 OFFCURVE",
"110 298 OFFCURVE",
"222 298 CURVE SMOOTH",
"280 298 LINE",
"275 337 OFFCURVE",
"250 354 OFFCURVE",
"217 354 CURVE SMOOTH",
"184 354 OFFCURVE",
"133 341 OFFCURVE",
"96 325 CURVE"
);
},
{
closed = 1;
nodes = (
"184 139 OFFCURVE",
"198 125 OFFCURVE",
"217 125 CURVE SMOOTH",
"238 125 OFFCURVE",
"260 135 OFFCURVE",
"281 152 CURVE",
"281 198 LINE",
"225 198 LINE SMOOTH",
"201 198 OFFCURVE",
"184 182 OFFCURVE",
"184 159 CURVE SMOOTH"
);
}
);
width = 509;
}
);
unicode = 0061;
},
{
glyphname = b;
lastChange = "2015-05-25 07:52:52 +0000";
layers = (
{
layerId = "24C3257D-BF04-43D4-ADFB-51EF390723A7";
name = Light;
paths = (
{
closed = 1;
nodes = (
"65 0 LINE",
"65 695 LINE",
"194 706 LINE",
"194 83 LINE",
"131 0 LINE"
);
},
{
closed = 1;
nodes = (
"113 408 LINE",
"158 463 OFFCURVE",
"216 498 OFFCURVE",
"285 498 CURVE SMOOTH",
"436 498 OFFCURVE",
"529 399 OFFCURVE",
"529 244 CURVE SMOOTH",
"529 92 OFFCURVE",
"438 -12 OFFCURVE",
"281 -12 CURVE SMOOTH",
"219 -12 OFFCURVE",
"143 33 OFFCURVE",
"113 79 CURVE",
"150 167 LINE",
"197 116 OFFCURVE",
"235 99 OFFCURVE",
"280 99 CURVE SMOOTH",
"353 99 OFFCURVE",
"395 161 OFFCURVE",
"395 244 CURVE SMOOTH",
"395 328 OFFCURVE",
"353 387 OFFCURVE",
"280 387 CURVE SMOOTH",
"235 387 OFFCURVE",
"197 365 OFFCURVE",
"150 324 CURVE"
);
}
);
width = 554;
},
{
layerId = "12413328-B98D-4C90-AAAC-8248DDAE45D4";
name = Bold;
paths = (
{
closed = 1;
nodes = (
"60 0 LINE",
"60 695 LINE",
"242 706 LINE",
"242 91 LINE",
"152 0 LINE"
);
},
{
closed = 1;
nodes = (
"132 413 LINE",
"168 457 OFFCURVE",
"239 502 OFFCURVE",
"314 502 CURVE SMOOTH",
"457 502 OFFCURVE",
"563 422 OFFCURVE",
"563 249 CURVE SMOOTH",
"563 76 OFFCURVE",
"459 -11 OFFCURVE",
"306 -11 CURVE SMOOTH",
"246 -11 OFFCURVE",
"188 14 OFFCURVE",
"132 78 CURVE",
"183 185 LINE",
"222 149 OFFCURVE",
"259 129 OFFCURVE",
"294 129 CURVE SMOOTH",
"339 129 OFFCURVE",
"375 173 OFFCURVE",
"375 248 CURVE SMOOTH",
"375 322 OFFCURVE",
"343 362 OFFCURVE",
"286 362 CURVE SMOOTH",
"254 362 OFFCURVE",
"222 336 OFFCURVE",
"183 296 CURVE"
);
}
);
width = 583;
}
);
unicode = 0062;
},
{
glyphname = c;
lastChange = "2015-05-10 22:43:31 +0000";
layers = (
{
anchors = (
{
name = bottom;
position = "{270, 0}";
},
{
name = top;
position = "{261, 485}";
}
);
layerId = "24C3257D-BF04-43D4-ADFB-51EF390723A7";
name = Light;
paths = (
{
closed = 1;
nodes = (
"414 354 LINE",
"367 375 OFFCURVE",
"329 387 OFFCURVE",
"284 387 CURVE SMOOTH",
"211 387 OFFCURVE",
"159 325 OFFCURVE",
"159 242 CURVE SMOOTH",
"159 158 OFFCURVE",
"211 99 OFFCURVE",
"284 99 CURVE SMOOTH",
"329 99 OFFCURVE",
"367 111 OFFCURVE",
"414 132 CURVE",
"451 38 LINE",
"406 3 OFFCURVE",
"324 -12 OFFCURVE",
"283 -12 CURVE SMOOTH",
"126 -12 OFFCURVE",
"25 87 OFFCURVE",
"25 242 CURVE SMOOTH",
"25 397 OFFCURVE",
"126 498 OFFCURVE",
"283 498 CURVE SMOOTH",
"324 498 OFFCURVE",
"403 480 OFFCURVE",
"451 447 CURVE"
);
}
);
width = 472;
},
{
anchors = (
{
name = bottom;
position = "{283, 0}";
},
{
name = top;
position = "{261, 485}";
}
);
layerId = "12413328-B98D-4C90-AAAC-8248DDAE45D4";
name = Bold;
paths = (
{
closed = 1;
nodes = (
"400 328 LINE",
"361 348 OFFCURVE",
"338 354 OFFCURVE",
"303 354 CURVE SMOOTH",
"254 354 OFFCURVE",
"208 311 OFFCURVE",
"208 242 CURVE SMOOTH",
"208 174 OFFCURVE",
"254 137 OFFCURVE",
"303 137 CURVE SMOOTH",
"335 137 OFFCURVE",
"361 143 OFFCURVE",
"400 163 CURVE",
"451 38 LINE",
"395 -6 OFFCURVE",
"325 -11 OFFCURVE",
"285 -11 CURVE SMOOTH",
"128 -11 OFFCURVE",
"20 79 OFFCURVE",
"20 242 CURVE SMOOTH",
"20 405 OFFCURVE",
"128 502 OFFCURVE",
"285 502 CURVE SMOOTH",
"325 502 OFFCURVE",
"395 497 OFFCURVE",
"451 453 CURVE"
);
}
);
width = 457;
}
);
unicode = 0063;
},
{
glyphname = d;
lastChange = "2015-05-25 07:52:58 +0000";
layers = (
{
layerId = "24C3257D-BF04-43D4-ADFB-51EF390723A7";
name = Light;
paths = (
{
closed = 1;
nodes = (
"376 695 LINE",
"507 706 LINE",
"507 0 LINE",
"439 0 LINE",
"376 91 LINE"
);
},
{
closed = 1;
nodes = (
"441 78 LINE",
"396 23 OFFCURVE",
"338 -12 OFFCURVE",
"269 -12 CURVE SMOOTH",
"118 -12 OFFCURVE",
"25 87 OFFCURVE",
"25 242 CURVE SMOOTH",
"25 394 OFFCURVE",
"116 498 OFFCURVE",
"273 498 CURVE SMOOTH",
"335 498 OFFCURVE",
"411 453 OFFCURVE",
"441 407 CURVE",
"404 319 LINE",
"357 370 OFFCURVE",
"319 387 OFFCURVE",
"274 387 CURVE SMOOTH",
"201 387 OFFCURVE",
"159 325 OFFCURVE",
"159 242 CURVE SMOOTH",
"159 158 OFFCURVE",
"201 99 OFFCURVE",
"274 99 CURVE SMOOTH",
"319 99 OFFCURVE",
"357 121 OFFCURVE",
"404 162 CURVE"
);
}
);
width = 572;
},
{
layerId = "12413328-B98D-4C90-AAAC-8248DDAE45D4";
name = Bold;
paths = (
{
closed = 1;
nodes = (
"341 695 LINE",
"523 706 LINE",
"523 0 LINE",
"431 0 LINE",
"341 117 LINE"
);
},
{
closed = 1;
nodes = (
"451 78 LINE",
"415 34 OFFCURVE",
"344 -11 OFFCURVE",
"269 -11 CURVE SMOOTH",
"126 -11 OFFCURVE",
"20 69 OFFCURVE",
"20 242 CURVE SMOOTH",
"20 415 OFFCURVE",
"124 502 OFFCURVE",
"277 502 CURVE SMOOTH",
"337 502 OFFCURVE",
"395 477 OFFCURVE",
"451 413 CURVE",
"400 306 LINE",
"361 342 OFFCURVE",
"324 362 OFFCURVE",
"289 362 CURVE SMOOTH",
"244 362 OFFCURVE",
"208 318 OFFCURVE",
"208 243 CURVE SMOOTH",
"208 169 OFFCURVE",
"240 129 OFFCURVE",
"297 129 CURVE SMOOTH",
"329 129 OFFCURVE",
"361 155 OFFCURVE",
"400 195 CURVE"
);
}
);
width = 583;
}
);
unicode = 0064;
},
{
glyphname = e;
lastChange = "2015-05-10 21:44:45 +0000";
layers = (
{
anchors = (
{
name = bottom;
position = "{360, 0}";
},
{
name = top;
position = "{267, 485}";
}
);
layerId = "24C3257D-BF04-43D4-ADFB-51EF390723A7";
name = Light;
paths = (
{
closed = 1;
nodes = (
"163 204 LINE",
"175 140 OFFCURVE",
"213 99 OFFCURVE",
"309 99 CURVE SMOOTH",
"366 99 OFFCURVE",
"407 117 OFFCURVE",
"450 142 CURVE",
"488 48 LINE",
"443 13 OFFCURVE",
"390 -12 OFFCURVE",
"306 -12 CURVE SMOOTH",
"118 -12 OFFCURVE",
"25 87 OFFCURVE",
"25 242 CURVE SMOOTH",
"25 397 OFFCURVE",
"118 498 OFFCURVE",
"269 498 CURVE SMOOTH",
"421 498 OFFCURVE",
"490 381 OFFCURVE",
"490 244 CURVE SMOOTH",
"490 204 LINE"
);
},
{
closed = 1;
nodes = (
"367 291 LINE",
"354 356 OFFCURVE",
"318 387 OFFCURVE",
"266 387 CURVE SMOOTH",
"213 387 OFFCURVE",
"175 354 OFFCURVE",
"164 291 CURVE"
);
}
);
width = 515;
},
{
anchors = (
{
name = bottom;
position = "{360, 0}";
},
{
name = top;
position = "{282, 485}";
}
);
layerId = "12413328-B98D-4C90-AAAC-8248DDAE45D4";
name = Bold;
paths = (
{
closed = 1;
nodes = (
"218 197 LINE",
"231 157 OFFCURVE",
"266 131 OFFCURVE",
"328 131 CURVE SMOOTH",
"386 131 OFFCURVE",
"432 149 OFFCURVE",
"461 164 CURVE",
"512 41 LINE",
"473 13 OFFCURVE",
"391 -11 OFFCURVE",
"310 -11 CURVE SMOOTH",
"143 -11 OFFCURVE",
"20 77 OFFCURVE",
"20 242 CURVE SMOOTH",
"20 405 OFFCURVE",
"134 502 OFFCURVE",
"281 502 CURVE SMOOTH",
"436 502 OFFCURVE",
"513 386 OFFCURVE",
"513 250 CURVE SMOOTH",
"513 197 LINE"
);
},
{
closed = 1;
nodes = (
"339 287 LINE",
"339 315 OFFCURVE",
"321 356 OFFCURVE",
"276 356 CURVE SMOOTH",
"243 356 OFFCURVE",
"212 324 OFFCURVE",
"213 287 CURVE"
);
}
);
width = 533;
}
);
unicode = 0065;
},
{
glyphname = f;
lastChange = "2015-05-10 21:44:54 +0000";
layers = (
{
layerId = "24C3257D-BF04-43D4-ADFB-51EF390723A7";
name = Light;
paths = (
{
closed = 1;
nodes = (
"12 484 LINE",
"87 484 LINE",
"87 521 LINE SMOOTH",
"87 633 OFFCURVE",
"156 702 OFFCURVE",
"276 702 CURVE SMOOTH",
"307 702 OFFCURVE",
"352 688 OFFCURVE",
"373 671 CURVE",
"336 577 LINE",
"316 585 OFFCURVE",
"298 590 OFFCURVE",
"282 590 CURVE SMOOTH",
"237 590 OFFCURVE",
"217 554 OFFCURVE",
"217 503 CURVE SMOOTH",
"217 484 LINE",
"309 484 LINE",
"350 384 LINE",
"217 384 LINE",
"217 0 LINE",
"87 0 LINE",
"87 384 LINE",
"12 384 LINE"
);
}
);
width = 373;
},
{
layerId = "12413328-B98D-4C90-AAAC-8248DDAE45D4";
name = Bold;
paths = (
{
closed = 1;
nodes = (
"10 465 LINE",
"90 465 LINE",
"90 510 LINE SMOOTH",
"90 639 OFFCURVE",
"201 703 OFFCURVE",
"317 703 CURVE SMOOTH",
"364 703 OFFCURVE",
"427 681 OFFCURVE",
"451 660 CURVE",
"399 536 LINE",
"376 549 OFFCURVE",
"349 555 OFFCURVE",
"329 555 CURVE SMOOTH",
"294 555 OFFCURVE",
"272 530 OFFCURVE",
"272 490 CURVE SMOOTH",
"272 465 LINE",
"406 465 LINE",
"423 322 LINE",
"272 322 LINE",
"272 0 LINE",
"90 0 LINE",
"90 322 LINE",
"10 322 LINE"
);
}
);
width = 451;
}
);
unicode = 0066;
},
{
glyphname = g;
lastChange = "2015-05-25 07:53:26 +0000";
layers = (
{
anchors = (
{
name = top;
position = "{261, 485}";
}
);
layerId = "24C3257D-BF04-43D4-ADFB-51EF390723A7";
name = Light;
paths = (
{
closed = 1;
nodes = (
"507 -23 LINE SMOOTH",
"507 -159 OFFCURVE",
"403 -230 OFFCURVE",
"249 -230 CURVE SMOOTH",
"208 -230 OFFCURVE",
"103 -210 OFFCURVE",
"51 -175 CURVE",
"90 -83 LINE",
"150 -112 OFFCURVE",
"197 -125 OFFCURVE",
"246 -126 CURVE SMOOTH",
"323 -125 OFFCURVE",
"376 -86 OFFCURVE",
"376 -22 CURVE SMOOTH",
"376 390 LINE",
"439 485 LINE",
"507 485 LINE"
);
},
{
closed = 1;
nodes = (
"441 78 LINE",
"396 23 OFFCURVE",
"338 -12 OFFCURVE",
"269 -12 CURVE SMOOTH",
"118 -12 OFFCURVE",
"25 87 OFFCURVE",
"25 242 CURVE SMOOTH",
"25 394 OFFCURVE",
"116 498 OFFCURVE",
"273 498 CURVE SMOOTH",
"335 498 OFFCURVE",
"411 453 OFFCURVE",
"441 407 CURVE",
"404 319 LINE",
"357 370 OFFCURVE",
"319 387 OFFCURVE",
"274 387 CURVE SMOOTH",
"201 387 OFFCURVE",
"159 325 OFFCURVE",
"159 242 CURVE SMOOTH",
"159 158 OFFCURVE",
"201 99 OFFCURVE",
"274 99 CURVE SMOOTH",
"319 99 OFFCURVE",
"357 121 OFFCURVE",
"404 162 CURVE"
);
}
);
width = 568;
},
{
anchors = (
{
name = top;
position = "{278, 485}";
}
);
layerId = "12413328-B98D-4C90-AAAC-8248DDAE45D4";
name = Bold;
paths = (
{
closed = 1;
nodes = (
"523 -16 LINE SMOOTH",
"523 -140 OFFCURVE",
"417 -230 OFFCURVE",
"256 -230 CURVE SMOOTH",
"215 -230 OFFCURVE",
"97 -215 OFFCURVE",
"34 -174 CURVE",
"89 -46 LINE",
"154 -78 OFFCURVE",
"203 -83 OFFCURVE",
"243 -83 CURVE SMOOTH",
"300 -83 OFFCURVE",
"341 -54 OFFCURVE",
"341 -15 CURVE SMOOTH",
"341 370 LINE",
"432 484 LINE",
"523 484 LINE"
);
},
{
closed = 1;
nodes = (
"451 78 LINE",
"415 34 OFFCURVE",
"344 -11 OFFCURVE",
"269 -11 CURVE SMOOTH",
"126 -11 OFFCURVE",
"20 69 OFFCURVE",
"20 242 CURVE SMOOTH",
"20 415 OFFCURVE",
"124 502 OFFCURVE",
"277 502 CURVE SMOOTH",
"337 502 OFFCURVE",
"395 477 OFFCURVE",
"451 413 CURVE",
"400 306 LINE",
"361 342 OFFCURVE",
"324 362 OFFCURVE",
"289 362 CURVE SMOOTH",
"244 362 OFFCURVE",
"208 318 OFFCURVE",
"208 243 CURVE SMOOTH",
"208 169 OFFCURVE",
"240 129 OFFCURVE",
"297 129 CURVE SMOOTH",
"329 129 OFFCURVE",
"361 155 OFFCURVE",
"400 195 CURVE"
);
}
);
width = 579;
}
);
unicode = 0067;
},
{
glyphname = h;
lastChange = "2015-05-10 21:39:18 +0000";
layers = (
{
layerId = "24C3257D-BF04-43D4-ADFB-51EF390723A7";
name = Light;
paths = (
{
closed = 1;
nodes = (
"171 433 LINE",
"233 477 OFFCURVE",
"306 501 OFFCURVE",
"358 501 CURVE SMOOTH",
"490 501 OFFCURVE",
"524 416 OFFCURVE",
"524 304 CURVE SMOOTH",
"524 0 LINE",
"394 0 LINE",
"394 298 LINE SMOOTH",
"394 359 OFFCURVE",
"367 393 OFFCURVE",
"324 393 CURVE SMOOTH",
"273 393 OFFCURVE",
"227 360 OFFCURVE",
"194 336 CURVE"
);
},
{
closed = 1;
nodes = (
"65 0 LINE",
"65 695 LINE",
"194 706 LINE",
"194 0 LINE"
);
}
);
width = 575;
},
{
layerId = "12413328-B98D-4C90-AAAC-8248DDAE45D4";
name = Bold;
paths = (
{
closed = 1;
nodes = (
"200 435 LINE",
"248 465 OFFCURVE",
"320 501 OFFCURVE",
"398 501 CURVE SMOOTH",
"521 501 OFFCURVE",
"574 421 OFFCURVE",
"574 313 CURVE SMOOTH",
"574 0 LINE",
"392 0 LINE",
"392 296 LINE SMOOTH",
"392 326 OFFCURVE",
"381 354 OFFCURVE",
"340 354 CURVE SMOOTH",
"317 354 OFFCURVE",
"271 339 OFFCURVE",
"242 326 CURVE"
);
},
{
closed = 1;
nodes = (
"60 0 LINE",
"60 695 LINE",
"242 706 LINE",
"242 0 LINE"
);
}
);
width = 620;
}
);
unicode = 0068;
},
{
glyphname = i;
lastChange = "2015-05-10 21:39:18 +0000";
layers = (
{
anchors = (
{
name = bottom;
position = "{121, 0}";
}
);
layerId = "24C3257D-BF04-43D4-ADFB-51EF390723A7";
name = Light;
paths = (
{
closed = 1;
nodes = (
"55 0 LINE",
"55 485 LINE",
"185 485 LINE",
"185 0 LINE"
);
},
{
closed = 1;
nodes = (
"79 554 OFFCURVE",
"47 586 OFFCURVE",
"47 627 CURVE SMOOTH",
"47 668 OFFCURVE",
"79 700 OFFCURVE",
"119 700 CURVE SMOOTH",
"160 700 OFFCURVE",
"193 668 OFFCURVE",
"193 627 CURVE SMOOTH",
"193 586 OFFCURVE",
"160 554 OFFCURVE",
"119 554 CURVE SMOOTH"
);
}
);
width = 240;
},
{
anchors = (
{
name = bottom;
position = "{154, 0}";
}
);
layerId = "12413328-B98D-4C90-AAAC-8248DDAE45D4";
name = Bold;
paths = (
{
closed = 1;
nodes = (
"50 0 LINE",
"50 485 LINE",
"232 485 LINE",
"232 0 LINE"
);
},
{
closed = 1;
nodes = (
"87 551 OFFCURVE",
"42 596 OFFCURVE",
"42 649 CURVE SMOOTH",
"42 704 OFFCURVE",
"87 749 OFFCURVE",
"140 749 CURVE SMOOTH",
"195 749 OFFCURVE",
"240 704 OFFCURVE",
"240 649 CURVE SMOOTH",
"240 596 OFFCURVE",
"195 551 OFFCURVE",
"140 551 CURVE SMOOTH"
);
}
);
width = 282;
}
);
unicode = 0069;
},
{
glyphname = j;
lastChange = "2015-05-10 22:43:56 +0000";
layers = (
{
layerId = "24C3257D-BF04-43D4-ADFB-51EF390723A7";
name = Light;
paths = (
{
closed = 1;
nodes = (
"177 554 OFFCURVE",
"210 586 OFFCURVE",
"210 627 CURVE SMOOTH",
"210 668 OFFCURVE",
"177 700 OFFCURVE",
"136 700 CURVE SMOOTH",
"95 700 OFFCURVE",
"63 668 OFFCURVE",
"63 627 CURVE SMOOTH",
"63 586 OFFCURVE",
"95 554 OFFCURVE",
"136 554 CURVE SMOOTH"
);
},
{
closed = 1;
nodes = (
"71 485 LINE",
"71 20 LINE SMOOTH",
"71 -37 OFFCURVE",
"66 -70 OFFCURVE",
"-5 -95 CURVE",
"46 -194 LINE",
"173 -154 OFFCURVE",
"202 -103 OFFCURVE",
"202 -11 CURVE SMOOTH",
"202 485 LINE"
);
}
);
width = 261;
},
{
layerId = "12413328-B98D-4C90-AAAC-8248DDAE45D4";
name = Bold;
paths = (
{
closed = 1;
nodes = (
"211 551 OFFCURVE",
"256 596 OFFCURVE",
"256 649 CURVE SMOOTH",
"256 704 OFFCURVE",
"211 749 OFFCURVE",
"156 749 CURVE SMOOTH",
"103 749 OFFCURVE",
"58 704 OFFCURVE",
"58 649 CURVE SMOOTH",
"58 596 OFFCURVE",
"107 551 OFFCURVE",
"156 551 CURVE SMOOTH"
);
},
{
closed = 1;
nodes = (
"66 485 LINE",
"66 29 LINE SMOOTH",
"66 -10 OFFCURVE",
"62 -38 OFFCURVE",
"-10 -63 CURVE",
"62 -194 LINE",
"203 -149 OFFCURVE",
"248 -102 OFFCURVE",
"248 2 CURVE SMOOTH",
"248 485 LINE"
);
}
);
width = 302;
}
);
unicode = 006A;
},
{
glyphname = k;
lastChange = "2015-05-10 22:44:09 +0000";
layers = (
{
anchors = (
{
name = bottom;
position = "{275, 0}";
}
);
layerId = "24C3257D-BF04-43D4-ADFB-51EF390723A7";
name = Light;
paths = (
{
closed = 1;
nodes = (
"65 0 LINE",
"65 695 LINE",
"194 706 LINE",
"194 308 LINE",
"402 499 LINE",
"475 407 LINE",
"339 288 LINE",
"517 0 LINE",
"368 0 LINE",
"246 205 LINE",
"194 159 LINE",
"194 0 LINE"
);
}
);
width = 517;
},
{
anchors = (
{
name = bottom;
position = "{307, 0}";
}
);
layerId = "12413328-B98D-4C90-AAAC-8248DDAE45D4";
name = Bold;
paths = (
{
closed = 1;
nodes = (
"60 0 LINE",
"60 695 LINE",
"242 706 LINE",
"242 346 LINE",
"423 499 LINE",
"532 374 LINE",
"402.812 276.886 LINE",
"567 0 LINE",
"371 0 LINE",
"275.199 180.957 LINE",
"242 156 LINE",
"242 0 LINE"
);
}
);
width = 567;
}
);
unicode = 006B;
},
{
glyphname = l;
lastChange = "2015-05-10 21:39:18 +0000";
layers = (
{
anchors = (
{
name = bottom;
position = "{136, 0}";
}
);
layerId = "24C3257D-BF04-43D4-ADFB-51EF390723A7";
name = Light;
paths = (
{
closed = 1;
nodes = (
"65 0 LINE",
"65 695 LINE",
"194 706 LINE",
"194 0 LINE"
);
}
);
width = 259;
},
{
anchors = (
{
name = bottom;
position = "{158, 0}";
}
);
layerId = "12413328-B98D-4C90-AAAC-8248DDAE45D4";
name = Bold;
paths = (
{
closed = 1;
nodes = (
"60 0 LINE",
"60 695 LINE",
"242 706 LINE",
"242 0 LINE"
);
}
);
width = 302;
}
);
unicode = 006C;
},
{
glyphname = m;
lastChange = "2015-05-10 21:45:34 +0000";
layers = (
{
layerId = "24C3257D-BF04-43D4-ADFB-51EF390723A7";
name = Light;
paths = (
{
closed = 1;
nodes = (
"55 0 LINE",
"55 485 LINE",
"140 485 LINE",
"162 433 LINE",
"224 477 OFFCURVE",
"292 501 OFFCURVE",
"339 501 CURVE SMOOTH",
"454 501 OFFCURVE",
"495 436 OFFCURVE",
"495 324 CURVE SMOOTH",
"495 0 LINE",
"365 0 LINE",
"365 298 LINE SMOOTH",
"365 359 OFFCURVE",
"348 393 OFFCURVE",
"305 393 CURVE SMOOTH",
"259 393 OFFCURVE",
"218 360 OFFCURVE",
"185 336 CURVE",
"185 0 LINE"
);
},
{
closed = 1;
nodes = (
"471 433 LINE",
"533 477 OFFCURVE",
"601 501 OFFCURVE",
"648 501 CURVE SMOOTH",
"763 501 OFFCURVE",
"804 436 OFFCURVE",
"804 324 CURVE SMOOTH",
"804 0 LINE",
"674 0 LINE",
"674 298 LINE SMOOTH",
"674 359 OFFCURVE",
"657 393 OFFCURVE",
"614 393 CURVE SMOOTH",
"568 393 OFFCURVE",
"527 360 OFFCURVE",
"494 336 CURVE"
);
}
);
width = 855;
},
{
layerId = "12413328-B98D-4C90-AAAC-8248DDAE45D4";
name = Bold;
paths = (
{
closed = 1;
nodes = (
"50 0 LINE",
"50 485 LINE",
"158 485 LINE",
"190 435 LINE",
"238 465 OFFCURVE",
"310 501 OFFCURVE",
"383 501 CURVE SMOOTH",
"511 501 OFFCURVE",
"554 421 OFFCURVE",
"554 313 CURVE SMOOTH",
"554 0 LINE",
"372 0 LINE",
"372 296 LINE SMOOTH",
"372 326 OFFCURVE",
"369 354 OFFCURVE",
"325 354 CURVE SMOOTH",
"307 354 OFFCURVE",
"261 339 OFFCURVE",
"232 326 CURVE",
"232 0 LINE"
);
},
{
closed = 1;
nodes = (
"511 435 LINE",
"559 465 OFFCURVE",
"631 501 OFFCURVE",
"704 501 CURVE SMOOTH",
"832 501 OFFCURVE",
"875 421 OFFCURVE",
"875 313 CURVE SMOOTH",
"875 0 LINE",
"693 0 LINE",
"693 296 LINE SMOOTH",
"693 326 OFFCURVE",
"690 354 OFFCURVE",
"646 354 CURVE SMOOTH",
"628 354 OFFCURVE",
"582 339 OFFCURVE",
"553 326 CURVE"
);
}
);
width = 921;
}
);
unicode = 006D;
},
{
glyphname = n;
lastChange = "2015-05-10 21:45:43 +0000";
layers = (
{
anchors = (
{
name = bottom;
position = "{293, 0}";
},
{
name = top;
position = "{296, 485}";
}
);
layerId = "24C3257D-BF04-43D4-ADFB-51EF390723A7";
name = Light;
paths = (
{
closed = 1;
nodes = (
"55 0 LINE",
"55 485 LINE",
"140 485 LINE",
"162 433 LINE",
"224 477 OFFCURVE",
"297 501 OFFCURVE",
"349 501 CURVE SMOOTH",
"481 501 OFFCURVE",
"515 416 OFFCURVE",
"515 304 CURVE SMOOTH",
"515 0 LINE",
"385 0 LINE",
"385 298 LINE SMOOTH",
"385 359 OFFCURVE",
"358 393 OFFCURVE",
"315 393 CURVE SMOOTH",
"264 393 OFFCURVE",
"218 360 OFFCURVE",
"185 336 CURVE",
"185 0 LINE"
);
}
);
width = 566;
},
{
anchors = (
{
name = bottom;
position = "{302, 0}";
},
{
name = top;
position = "{356, 485}";
}
);
layerId = "12413328-B98D-4C90-AAAC-8248DDAE45D4";
name = Bold;
paths = (
{
closed = 1;
nodes = (
"50 0 LINE",
"50 485 LINE",
"158 485 LINE",
"190 435 LINE",
"238 465 OFFCURVE",
"310 501 OFFCURVE",
"388 501 CURVE SMOOTH",
"511 501 OFFCURVE",
"564 421 OFFCURVE",
"564 313 CURVE SMOOTH",
"564 0 LINE",
"382 0 LINE",
"382 296 LINE SMOOTH",
"382 326 OFFCURVE",
"370 354 OFFCURVE",
"330 354 CURVE SMOOTH",
"307 354 OFFCURVE",
"261 339 OFFCURVE",
"232 326 CURVE",
"232 0 LINE"
);
}
);
width = 610;
}
);
unicode = 006E;
},
{
glyphname = o;
lastChange = "2015-05-10 22:49:14 +0000";
layers = (
{
anchors = (
{
name = top;
position = "{283, 485}";
}
);
layerId = "24C3257D-BF04-43D4-ADFB-51EF390723A7";
name = Light;
paths = (
{
closed = 1;
nodes = (
"543 399 OFFCURVE",
"441 498 OFFCURVE",
"284 498 CURVE SMOOTH",
"127 498 OFFCURVE",
"25 397 OFFCURVE",
"25 242 CURVE SMOOTH",
"25 87 OFFCURVE",
"127 -12 OFFCURVE",
"284 -12 CURVE SMOOTH",
"441 -12 OFFCURVE",
"543 89 OFFCURVE",
"543 244 CURVE SMOOTH"
);
},
{
closed = 1;
nodes = (
"211 99 OFFCURVE",
"159 158 OFFCURVE",
"159 242 CURVE SMOOTH",
"159 325 OFFCURVE",
"211 387 OFFCURVE",
"284 387 CURVE SMOOTH",
"357 387 OFFCURVE",
"409 328 OFFCURVE",
"409 244 CURVE SMOOTH",
"409 161 OFFCURVE",
"357 99 OFFCURVE",
"284 99 CURVE SMOOTH"
);
}
);
width = 568;
},
{
anchors = (
{
name = top;
position = "{295, 485}";
}
);
layerId = "12413328-B98D-4C90-AAAC-8248DDAE45D4";
name = Bold;
paths = (
{
closed = 1;
nodes = (
"570 413 OFFCURVE",
"455 502 OFFCURVE",
"295 502 CURVE SMOOTH",
"143 502 OFFCURVE",
"20 408 OFFCURVE",
"20 245 CURVE SMOOTH",
"20 72 OFFCURVE",
"135 -11 OFFCURVE",
"291 -11 CURVE SMOOTH",
"447 -11 OFFCURVE",
"570 77 OFFCURVE",
"570 240 CURVE SMOOTH"
);
},
{
closed = 1;
nodes = (
"238 137 OFFCURVE",
"208 180 OFFCURVE",
"208 245 CURVE SMOOTH",
"208 313 OFFCURVE",
"240 354 OFFCURVE",
"297 354 CURVE SMOOTH",
"352 354 OFFCURVE",
"382 305 OFFCURVE",
"382 240 CURVE SMOOTH",
"382 172 OFFCURVE",
"350 137 OFFCURVE",
"293 137 CURVE SMOOTH"
);
}
);
width = 590;
}
);
unicode = 006F;
},
{
glyphname = p;
lastChange = "2015-05-25 07:53:29 +0000";
layers = (
{
layerId = "24C3257D-BF04-43D4-ADFB-51EF390723A7";
name = Light;
paths = (
{
closed = 1;
nodes = (
"61 -219 LINE",
"61 485 LINE",
"127 485 LINE",
"190 406 LINE",
"190 -209 LINE"
);
},
{
closed = 1;
nodes = (
"109 408 LINE",
"154 463 OFFCURVE",
"212 498 OFFCURVE",
"281 498 CURVE SMOOTH",
"432 498 OFFCURVE",
"525 399 OFFCURVE",
"525 244 CURVE SMOOTH",
"525 92 OFFCURVE",
"434 -12 OFFCURVE",
"277 -12 CURVE SMOOTH",
"215 -12 OFFCURVE",
"139 33 OFFCURVE",
"109 79 CURVE",
"146 167 LINE",
"193 116 OFFCURVE",
"231 99 OFFCURVE",
"276 99 CURVE SMOOTH",
"349 99 OFFCURVE",
"391 161 OFFCURVE",
"391 244 CURVE SMOOTH",
"391 328 OFFCURVE",
"349 387 OFFCURVE",
"276 387 CURVE SMOOTH",
"231 387 OFFCURVE",
"193 365 OFFCURVE",
"146 324 CURVE"
);
}
);
width = 550;
},
{
layerId = "12413328-B98D-4C90-AAAC-8248DDAE45D4";
name = Bold;
paths = (
{
closed = 1;
nodes = (
"56 -219 LINE",
"56 484 LINE",
"147 484 LINE",
"238 393 LINE",
"238 -209 LINE"
);
},
{
closed = 1;
nodes = (
"128 413 LINE",
"164 457 OFFCURVE",
"235 502 OFFCURVE",
"310 502 CURVE SMOOTH",
"453 502 OFFCURVE",
"559 422 OFFCURVE",
"559 249 CURVE SMOOTH",
"559 76 OFFCURVE",
"455 -11 OFFCURVE",
"302 -11 CURVE SMOOTH",
"242 -11 OFFCURVE",
"184 14 OFFCURVE",
"128 78 CURVE",
"179 185 LINE",
"218 149 OFFCURVE",
"255 129 OFFCURVE",
"290 129 CURVE SMOOTH",
"335 129 OFFCURVE",
"371 173 OFFCURVE",
"371 248 CURVE SMOOTH",
"371 322 OFFCURVE",
"339 362 OFFCURVE",
"282 362 CURVE SMOOTH",
"250 362 OFFCURVE",
"218 336 OFFCURVE",
"179 296 CURVE"
);
}
);
width = 579;
}
);
unicode = 0070;
},
{
glyphname = q;
lastChange = "2015-05-25 07:53:34 +0000";
layers = (
{
layerId = "24C3257D-BF04-43D4-ADFB-51EF390723A7";
name = Light;
paths = (
{
closed = 1;
nodes = (
"507 485 LINE",
"507 -209 LINE",
"376 -219 LINE",
"376 389 LINE",
"439 485 LINE"
);
},
{
closed = 1;
nodes = (
"441 78 LINE",
"396 23 OFFCURVE",
"338 -12 OFFCURVE",
"269 -12 CURVE SMOOTH",
"118 -12 OFFCURVE",
"25 87 OFFCURVE",
"25 242 CURVE SMOOTH",
"25 394 OFFCURVE",
"116 498 OFFCURVE",
"273 498 CURVE SMOOTH",
"335 498 OFFCURVE",
"411 453 OFFCURVE",
"441 407 CURVE",
"404 319 LINE",
"357 370 OFFCURVE",
"319 387 OFFCURVE",
"274 387 CURVE SMOOTH",
"201 387 OFFCURVE",
"159 325 OFFCURVE",
"159 242 CURVE SMOOTH",
"159 158 OFFCURVE",
"201 99 OFFCURVE",
"274 99 CURVE SMOOTH",
"319 99 OFFCURVE",
"357 121 OFFCURVE",
"404 162 CURVE"
);
}
);
width = 568;
},
{
layerId = "12413328-B98D-4C90-AAAC-8248DDAE45D4";
name = Bold;
paths = (
{
closed = 1;
nodes = (
"523 484 LINE",
"523 -208 LINE",
"341 -219 LINE",
"341 389 LINE",
"432 484 LINE"
);
},
{
closed = 1;
nodes = (
"451 78 LINE",
"415 34 OFFCURVE",
"344 -11 OFFCURVE",
"269 -11 CURVE SMOOTH",
"126 -11 OFFCURVE",
"20 69 OFFCURVE",
"20 242 CURVE SMOOTH",
"20 415 OFFCURVE",
"124 502 OFFCURVE",
"277 502 CURVE SMOOTH",
"337 502 OFFCURVE",
"395 477 OFFCURVE",
"451 413 CURVE",
"400 306 LINE",
"361 342 OFFCURVE",
"324 362 OFFCURVE",
"289 362 CURVE SMOOTH",
"244 362 OFFCURVE",
"208 318 OFFCURVE",
"208 243 CURVE SMOOTH",
"208 169 OFFCURVE",
"240 129 OFFCURVE",
"297 129 CURVE SMOOTH",
"329 129 OFFCURVE",
"361 155 OFFCURVE",
"400 195 CURVE"
);
}
);
width = 579;
}
);
unicode = 0071;
},
{
glyphname = r;
lastChange = "2015-05-10 21:39:18 +0000";
layers = (
{
anchors = (
{
name = bottom;
position = "{121, 0}";
},
{
name = top;
position = "{199, 485}";
}
);
layerId = "24C3257D-BF04-43D4-ADFB-51EF390723A7";
name = Light;
paths = (
{
closed = 1;
nodes = (
"55 0 LINE",
"55 485 LINE",
"123 485 LINE",
"166 404 LINE",
"206 439 OFFCURVE",
"279 485 OFFCURVE",
"331 485 CURVE",
"357 381 LINE",
"313 381 OFFCURVE",
"241 345 OFFCURVE",
"185 296 CURVE",
"185 0 LINE"
);
}
);
width = 367;
},
{
anchors = (
{
name = bottom;
position = "{139, 0}";
},
{
name = top;
position = "{205, 485}";
}
);
layerId = "12413328-B98D-4C90-AAAC-8248DDAE45D4";
name = Bold;
paths = (
{
closed = 1;
nodes = (
"50 0 LINE",
"50 484 LINE",
"141 484 LINE",
"185 425 LINE",
"225 452 OFFCURVE",
"293 485 OFFCURVE",
"348 485 CURVE",
"385 339 LINE",
"337 339 OFFCURVE",
"273 317 OFFCURVE",
"232 285 CURVE",
"232 0 LINE"
);
}
);
width = 395;
}
);
unicode = 0072;
},
{
glyphname = s;
lastChange = "2015-05-10 21:45:52 +0000";
layers = (
{
anchors = (
{
name = bottom;
position = "{195, 0}";
},
{
name = top;
position = "{218, 485}";
}
);
layerId = "24C3257D-BF04-43D4-ADFB-51EF390723A7";
name = Light;
paths = (
{
closed = 1;
nodes = (
"66 126 LINE",
"113 105 OFFCURVE",
"157 93 OFFCURVE",
"193 93 CURVE SMOOTH",
"227 93 OFFCURVE",
"273 106 OFFCURVE",
"273 135 CURVE SMOOTH",
"273 162 OFFCURVE",
"243 183 OFFCURVE",
"188 200 CURVE SMOOTH",
"111 225 OFFCURVE",
"27 270 OFFCURVE",
"27 350 CURVE SMOOTH",
"27 442 OFFCURVE",
"100 498 OFFCURVE",
"216 498 CURVE SMOOTH",
"257 498 OFFCURVE",
"333 480 OFFCURVE",
"382 447 CURVE",
"343 360 LINE",
"296 381 OFFCURVE",
"259 393 OFFCURVE",
"214 393 CURVE SMOOTH",
"181 393 OFFCURVE",
"156 374 OFFCURVE",
"156 351 CURVE SMOOTH",
"156 331 OFFCURVE",
"199 316 OFFCURVE",
"232 304 CURVE SMOOTH",
"313 275 OFFCURVE",
"397 224 OFFCURVE",
"397 140 CURVE SMOOTH",
"397 44 OFFCURVE",
"327 -12 OFFCURVE",
"195 -12 CURVE SMOOTH",
"154 -12 OFFCURVE",
"72 3 OFFCURVE",
"27 38 CURVE"
);
}
);
width = 422;
},
{
anchors = (
{
name = bottom;
position = "{229, 0}";
},
{
name = top;
position = "{247, 485}";
}
);
layerId = "12413328-B98D-4C90-AAAC-8248DDAE45D4";
name = Bold;
paths = (
{
closed = 1;
nodes = (
"73 161 LINE",
"112 143 OFFCURVE",
"176 127 OFFCURVE",
"211 127 CURVE SMOOTH",
"235 127 OFFCURVE",
"253 136 OFFCURVE",
"253 149 CURVE SMOOTH",
"253 157 OFFCURVE",
"233 170 OFFCURVE",
"205 179 CURVE SMOOTH",
"125 207 OFFCURVE",
"32 251 OFFCURVE",
"32 340 CURVE SMOOTH",
"32 441 OFFCURVE",
"112 502 OFFCURVE",
"247 502 CURVE SMOOTH",
"287 502 OFFCURVE",
"374 494 OFFCURVE",
"430 450 CURVE",
"379 335 LINE",
"340 352 OFFCURVE",
"295 364 OFFCURVE",
"260 364 CURVE SMOOTH",
"231 364 OFFCURVE",
"210 355 OFFCURVE",
"210 342 CURVE SMOOTH",
"210 334 OFFCURVE",
"231 322 OFFCURVE",
"261 312 CURVE SMOOTH",
"341 284 OFFCURVE",
"431 240 OFFCURVE",
"431 151 CURVE SMOOTH",
"431 50 OFFCURVE",
"364 -11 OFFCURVE",
"229 -11 CURVE SMOOTH",
"189 -11 OFFCURVE",
"78 2 OFFCURVE",
"22 46 CURVE"
);
}
);
width = 451;
}
);
unicode = 0073;
},
{
glyphname = t;
lastChange = "2015-05-10 21:46:00 +0000";
layers = (
{
anchors = (
{
name = bottom;
position = "{227, 0}";
}
);
layerId = "24C3257D-BF04-43D4-ADFB-51EF390723A7";
name = Light;
paths = (
{
closed = 1;
nodes = (
"332 384 LINE",
"204 384 LINE",
"204 178 LINE SMOOTH",
"204 127 OFFCURVE",
"228 91 OFFCURVE",
"275 91 CURVE SMOOTH",
"292 91 OFFCURVE",
"309 95 OFFCURVE",
"328 104 CURVE",
"366 10 LINE",
"345 -7 OFFCURVE",
"299 -20 OFFCURVE",
"268 -20 CURVE SMOOTH",
"148 -20 OFFCURVE",
"75 43 OFFCURVE",
"75 155 CURVE SMOOTH",
"75 384 LINE",
"10 384 LINE",
"10 484 LINE",
"75 484 LINE",
"75 599 LINE",
"204 622 LINE",
"204 484 LINE",
"292 484 LINE"
);
}
);
width = 381;
},
{
anchors = (
{
name = bottom;
position = "{269, 0}";
}
);
layerId = "12413328-B98D-4C90-AAAC-8248DDAE45D4";
name = Bold;
paths = (
{
closed = 1;
nodes = (
"411 322 LINE",
"267 322 LINE",
"267 202 LINE SMOOTH",
"267 162 OFFCURVE",
"289 137 OFFCURVE",
"324 137 CURVE SMOOTH",
"344 137 OFFCURVE",
"371 143 OFFCURVE",
"394 156 CURVE",
"446 32 LINE",
"422 11 OFFCURVE",
"359 -11 OFFCURVE",
"312 -11 CURVE SMOOTH",
"196 -11 OFFCURVE",
"85 53 OFFCURVE",
"85 182 CURVE SMOOTH",
"85 322 LINE",
"10 322 LINE",
"10 465 LINE",
"85 465 LINE",
"85 596 LINE",
"267 621 LINE",
"267 465 LINE",
"394 465 LINE"
);
}
);
width = 456;
}
);
unicode = 0074;
},
{
glyphname = u;
lastChange = "2015-05-10 21:46:10 +0000";
layers = (
{
anchors = (
{
name = bottom;
position = "{468, 0}";
},
{
name = top;
position = "{287, 485}";
}
);
layerId = "24C3257D-BF04-43D4-ADFB-51EF390723A7";
name = Light;
paths = (
{
closed = 1;
nodes = (
"511 485 LINE",
"511 0 LINE",
"426 0 LINE",
"404 52 LINE",
"342 8 OFFCURVE",
"269 -16 OFFCURVE",
"217 -16 CURVE SMOOTH",
"85 -16 OFFCURVE",
"51 69 OFFCURVE",
"51 181 CURVE SMOOTH",
"51 485 LINE",
"181 485 LINE",
"181 187 LINE SMOOTH",
"181 126 OFFCURVE",
"208 92 OFFCURVE",
"251 92 CURVE SMOOTH",
"302 92 OFFCURVE",
"348 125 OFFCURVE",
"381 149 CURVE",
"381 485 LINE"
);
}
);
width = 566;
},
{
anchors = (
{
name = bottom;
position = "{508, 0}";
},
{
name = top;
position = "{305, 485}";
}
);
layerId = "12413328-B98D-4C90-AAAC-8248DDAE45D4";
name = Bold;
paths = (
{
closed = 1;
nodes = (
"560 484 LINE",
"560 -1 LINE",
"472 -1 LINE",
"420 49 LINE",
"372 19 OFFCURVE",
"300 -17 OFFCURVE",
"222 -17 CURVE SMOOTH",
"99 -17 OFFCURVE",
"46 63 OFFCURVE",
"46 171 CURVE SMOOTH",
"46 484 LINE",
"228 484 LINE",
"228 188 LINE SMOOTH",
"228 158 OFFCURVE",
"240 130 OFFCURVE",
"280 130 CURVE SMOOTH",
"303 130 OFFCURVE",
"349 145 OFFCURVE",
"378 158 CURVE",
"378 484 LINE"
);
}
);
width = 610;
}
);
unicode = 0075;
},
{
glyphname = v;
lastChange = "2015-05-10 21:39:18 +0000";
layers = (
{
layerId = "24C3257D-BF04-43D4-ADFB-51EF390723A7";
name = Light;
paths = (
{
closed = 1;
nodes = (
"189 0 LINE",
"10 465 LINE",
"137 503 LINE",
"249 191 LINE",
"355 485 LINE",
"492 485 LINE",
"301 0 LINE"
);
}
);
width = 502;
},
{
layerId = "12413328-B98D-4C90-AAAC-8248DDAE45D4";
name = Bold;
paths = (
{
closed = 1;
nodes = (
"196 0 LINE",
"20 455 LINE",
"188 503 LINE",
"285 211 LINE",
"378 485 LINE",
"559 485 LINE",
"368 0 LINE"
);
}
);
width = 569;
}
);
unicode = 0076;
},
{
glyphname = w;
lastChange = "2015-05-10 21:39:18 +0000";
layers = (
{
layerId = "24C3257D-BF04-43D4-ADFB-51EF390723A7";
name = Light;
paths = (
{
closed = 1;
nodes = (
"443 0 LINE",
"352 297 LINE",
"265 0 LINE",
"155 0 LINE",
"10 465 LINE",
"138 503 LINE",
"213 203 LINE",
"283 485 LINE",
"426 485 LINE",
"501 203 LINE",
"570 485 LINE",
"707 485 LINE",
"552 0 LINE"
);
}
);
width = 717;
},
{
layerId = "12413328-B98D-4C90-AAAC-8248DDAE45D4";
name = Bold;
paths = (
{
closed = 1;
nodes = (
"475 0 LINE",
"399 251 LINE",
"324 0 LINE",
"158 0 LINE",
"10 455 LINE",
"178 503 LINE",
"248 210 LINE",
"315 485 LINE",
"486 485 LINE",
"558 210 LINE",
"621 485 LINE",
"802 485 LINE",
"641 0 LINE"
);
}
);
width = 812;
}
);
unicode = 0077;
},
{
glyphname = x;
lastChange = "2015-05-10 22:49:42 +0000";
layers = (
{
layerId = "24C3257D-BF04-43D4-ADFB-51EF390723A7";
name = Light;
paths = (
{
closed = 1;
nodes = (
"10 0 LINE",
"175 247 LINE",
"27 464 LINE",
"148 501 LINE",
"258 330 LINE",
"358 485 LINE",
"500 485 LINE",
"335 228 LINE",
"484 0 LINE",
"341 0 LINE",
"251 146 LINE",
"154 0 LINE"
);
}
);
width = 510;
},
{
layerId = "12413328-B98D-4C90-AAAC-8248DDAE45D4";
name = Bold;
paths = (
{
closed = 1;
nodes = (
"10 0 LINE",
"168 241 LINE",
"11 458 LINE",
"187 500 LINE",
"272 368 LINE",
"346 485 LINE",
"547 485 LINE",
"382 231 LINE",
"547 0 LINE",
"343 0 LINE",
"278 104 LINE",
"215 0 LINE"
);
}
);
width = 557;
}
);
unicode = 0078;
},
{
glyphname = y;
lastChange = "2015-05-10 21:39:18 +0000";
layers = (
{
anchors = (
{
name = top;
position = "{247, 486}";
}
);
layerId = "24C3257D-BF04-43D4-ADFB-51EF390723A7";
name = Light;
paths = (
{
closed = 1;
nodes = (
"177 34 LINE",
"10 465 LINE",
"138 503 LINE",
"250 191 LINE",
"356 485 LINE",
"493 485 LINE",
"276 -64 LINE SMOOTH",
"245 -143 OFFCURVE",
"158 -202 OFFCURVE",
"73 -222 CURVE",
"27 -115 LINE",
"74 -95 OFFCURVE",
"137 -68 OFFCURVE",
"154 -23 CURVE SMOOTH"
);
}
);
width = 503;
},
{
anchors = (
{
name = top;
position = "{277, 485}";
}
);
layerId = "12413328-B98D-4C90-AAAC-8248DDAE45D4";
name = Bold;
paths = (
{
closed = 1;
nodes = (
"184 9 LINE",
"10 455 LINE",
"178 503 LINE",
"277 211 LINE",
"370 485 LINE",
"551 485 LINE",
"338 -57 LINE SMOOTH",
"307 -136 OFFCURVE",
"213 -198 OFFCURVE",
"117 -219 CURVE",
"56 -78 LINE",
"104 -58 OFFCURVE",
"169 -31 OFFCURVE",
"180 -2 CURVE SMOOTH"
);
}
);
width = 561;
}
);
unicode = 0079;
},
{
glyphname = z;
lastChange = "2015-05-10 22:49:29 +0000";
layers = (
{
anchors = (
{
name = top;
position = "{215, 485}";
}
);
layerId = "24C3257D-BF04-43D4-ADFB-51EF390723A7";
name = Light;
paths = (
{
closed = 1;
nodes = (
"420 411 LINE",
"176 105 LINE",
"420 105 LINE",
"430 0 LINE",
"30 0 LINE",
"13 69 LINE",
"254 378 LINE",
"50 378 LINE",
"25 485 LINE",
"413 485 LINE"
);
}
);
width = 443;
},
{
anchors = (
{
name = top;
position = "{224, 485}";
}
);
layerId = "12413328-B98D-4C90-AAAC-8248DDAE45D4";
name = Bold;
paths = (
{
closed = 1;
nodes = (
"426 384 LINE",
"230 143 LINE",
"427 143 LINE",
"444 0 LINE",
"30 0 LINE",
"8 94 LINE",
"207 342 LINE",
"47 342 LINE",
"30 485 LINE",
"417 485 LINE"
);
}
);
width = 452;
}
);
unicode = 007A;
},
{
glyphname = zero;
lastChange = "2015-05-10 21:39:18 +0000";
layers = (
{
layerId = "24C3257D-BF04-43D4-ADFB-51EF390723A7";
name = Light;
paths = (
{
closed = 1;
nodes = (
"25 456 OFFCURVE",
"142 579 OFFCURVE",
"304 579 CURVE SMOOTH",
"465 579 OFFCURVE",
"581 456 OFFCURVE",
"581 287 CURVE SMOOTH",
"581 113 OFFCURVE",
"464 -13 OFFCURVE",
"303 -13 CURVE SMOOTH",
"142 -13 OFFCURVE",
"25 112 OFFCURVE",
"25 285 CURVE SMOOTH"
);
},
{
closed = 1;
nodes = (
"144 178 OFFCURVE",
"211 98 OFFCURVE",
"304 98 CURVE SMOOTH",
"397 98 OFFCURVE",
"464 176 OFFCURVE",
"464 283 CURVE SMOOTH",
"464 391 OFFCURVE",
"396 469 OFFCURVE",
"303 469 CURVE SMOOTH",
"211 469 OFFCURVE",
"144 393 OFFCURVE",
"144 288 CURVE SMOOTH"
);
}
);
width = 606;
},
{
layerId = "12413328-B98D-4C90-AAAC-8248DDAE45D4";
name = Bold;
paths = (
{
closed = 1;
nodes = (
"20 455 OFFCURVE",
"154 579 OFFCURVE",
"339 579 CURVE SMOOTH",
"524 579 OFFCURVE",
"658 456 OFFCURVE",
"658 286 CURVE SMOOTH",
"658 112 OFFCURVE",
"524 -14 OFFCURVE",
"338 -14 CURVE SMOOTH",
"154 -14 OFFCURVE",
"20 111 OFFCURVE",
"20 284 CURVE SMOOTH"
);
},
{
closed = 1;
nodes = (
"208 198 OFFCURVE",
"263 134 OFFCURVE",
"339 134 CURVE SMOOTH",
"415 134 OFFCURVE",
"470 197 OFFCURVE",
"470 283 CURVE SMOOTH",
"470 369 OFFCURVE",
"415 431 OFFCURVE",
"338 431 CURVE SMOOTH",
"263 431 OFFCURVE",
"208 371 OFFCURVE",
"208 287 CURVE SMOOTH"
);
}
);
width = 678;
}
);
unicode = 0030;
},
{
glyphname = one;
lastChange = "2015-05-10 21:39:18 +0000";
layers = (
{
layerId = "24C3257D-BF04-43D4-ADFB-51EF390723A7";
name = Light;
paths = (
{
closed = 1;
nodes = (
"173 0 LINE",
"173 422 LINE",
"59 378 LINE",
"10 475 LINE",
"216 566 LINE",
"303 566 LINE",
"303 0 LINE"
);
}
);
width = 368;
},
{
layerId = "12413328-B98D-4C90-AAAC-8248DDAE45D4";
name = Bold;
paths = (
{
closed = 1;
nodes = (
"197 0 LINE",
"197 363 LINE",
"81 313 LINE",
"10 459 LINE",
"258 566 LINE",
"379 566 LINE",
"379 0 LINE"
);
}
);
width = 439;
}
);
unicode = 0031;
},
{
glyphname = two;
lastChange = "2015-05-10 21:39:18 +0000";
layers = (
{
layerId = "24C3257D-BF04-43D4-ADFB-51EF390723A7";
name = Light;
paths = (
{
closed = 1;
nodes = (
"359 579 OFFCURVE",
"436 503 OFFCURVE",
"436 403 CURVE SMOOTH",
"436 310 OFFCURVE",
"394 259 OFFCURVE",
"297 178 CURVE SMOOTH",
"202 99 LINE",
"455 99 LINE",
"467 0 LINE",
"25 0 LINE",
"25 87 LINE",
"227 259 LINE SMOOTH",
"295 317 OFFCURVE",
"327 359 OFFCURVE",
"327 398 CURVE SMOOTH",
"327 448 OFFCURVE",
"283 474 OFFCURVE",
"218 474 CURVE SMOOTH",
"158 474 OFFCURVE",
"96 443 OFFCURVE",
"61 423 CURVE",
"38 527 LINE",
"75 549 OFFCURVE",
"142 579 OFFCURVE",
"231 579 CURVE SMOOTH"
);
}
);
width = 487;
},
{
layerId = "12413328-B98D-4C90-AAAC-8248DDAE45D4";
name = Bold;
paths = (
{
closed = 1;
nodes = (
"372 579 OFFCURVE",
"470 529 OFFCURVE",
"470 403 CURVE SMOOTH",
"470 320 OFFCURVE",
"416 256 OFFCURVE",
"324 178 CURVE SMOOTH",
"283 143 LINE",
"465 143 LINE",
"477 0 LINE",
"25 0 LINE",
"25 106 LINE",
"214 270 LINE SMOOTH",
"257 308 OFFCURVE",
"308 343 OFFCURVE",
"308 382 CURVE SMOOTH",
"308 415 OFFCURVE",
"275 430 OFFCURVE",
"225 430 CURVE SMOOTH",
"165 430 OFFCURVE",
"96 399 OFFCURVE",
"61 379 CURVE",
"38 527 LINE",
"75 549 OFFCURVE",
"142 579 OFFCURVE",
"231 579 CURVE SMOOTH"
);
}
);
width = 497;
}
);
unicode = 0032;
},
{
glyphname = three;
lastChange = "2015-05-10 21:39:18 +0000";
layers = (
{
layerId = "24C3257D-BF04-43D4-ADFB-51EF390723A7";
name = Light;
paths = (
{
closed = 1;
nodes = (
"372 579 OFFCURVE",
"442 498 OFFCURVE",
"442 405 CURVE SMOOTH",
"442 344 OFFCURVE",
"400 290 OFFCURVE",
"361 273 CURVE",
"398 264 OFFCURVE",
"454 204 OFFCURVE",
"454 121 CURVE SMOOTH",
"454 10 OFFCURVE",
"362 -76 OFFCURVE",
"218 -76 CURVE SMOOTH",
"145 -76 OFFCURVE",
"61 -45 OFFCURVE",
"0 -13 CURVE",
"66 74 LINE",
"119 42 OFFCURVE",
"161 29 OFFCURVE",
"220 29 CURVE SMOOTH",
"279 29 OFFCURVE",
"335 63 OFFCURVE",
"335 120 CURVE SMOOTH",
"335 181 OFFCURVE",
"290 220 OFFCURVE",
"185 220 CURVE SMOOTH",
"143 220 LINE",
"125 321 LINE",
"191 321 LINE SMOOTH",
"272 321 OFFCURVE",
"323 354 OFFCURVE",
"323 403 CURVE SMOOTH",
"323 442 OFFCURVE",
"286 474 OFFCURVE",
"229 474 CURVE SMOOTH",
"169 474 OFFCURVE",
"116 447 OFFCURVE",
"80 422 CURVE",
"19 509 LINE",
"84 552 OFFCURVE",
"152 579 OFFCURVE",
"232 579 CURVE SMOOTH"
);
}
);
width = 484;
},
{
layerId = "12413328-B98D-4C90-AAAC-8248DDAE45D4";
name = Bold;
paths = (
{
closed = 1;
nodes = (
"402 579 OFFCURVE",
"500 507 OFFCURVE",
"500 402 CURVE SMOOTH",
"500 354 OFFCURVE",
"461 291 OFFCURVE",
"425 272 CURVE",
"472 244 OFFCURVE",
"511 180 OFFCURVE",
"511 121 CURVE SMOOTH",
"511 4 OFFCURVE",
"404 -78 OFFCURVE",
"243 -78 CURVE SMOOTH",
"170 -78 OFFCURVE",
"76 -51 OFFCURVE",
"0 -2 CURVE",
"97 119 LINE",
"154 83 OFFCURVE",
"197 69 OFFCURVE",
"244 69 CURVE SMOOTH",
"289 69 OFFCURVE",
"323 91 OFFCURVE",
"323 126 CURVE SMOOTH",
"323 165 OFFCURVE",
"294 187 OFFCURVE",
"254 187 CURVE SMOOTH",
"151 187 LINE",
"136 330 LINE",
"218 330 LINE SMOOTH",
"275 330 OFFCURVE",
"312 353 OFFCURVE",
"312 386 CURVE SMOOTH",
"312 411 OFFCURVE",
"289 431 OFFCURVE",
"237 431 CURVE SMOOTH",
"200 431 OFFCURVE",
"155 414 OFFCURVE",
"108 382 CURVE",
"21 505 LINE",
"92 561 OFFCURVE",
"176 579 OFFCURVE",
"255 579 CURVE SMOOTH"
);
}
);
width = 536;
}
);
unicode = 0033;
},
{
glyphname = four;
lastChange = "2015-05-10 21:39:18 +0000";
layers = (
{
layerId = "24C3257D-BF04-43D4-ADFB-51EF390723A7";
name = Light;
paths = (
{
closed = 1;
nodes = (
"527 59 LINE",
"435 59 LINE",
"435 -69 LINE",
"304 -69 LINE",
"304 59 LINE",
"27 59 LINE",
"10 166 LINE",
"338 571 LINE",
"435 571 LINE",
"435 166 LINE",
"540 166 LINE"
);
},
{
closed = 1;
nodes = (
"150 166 LINE",
"304 166 LINE",
"304 363 LINE"
);
}
);
width = 560;
},
{
layerId = "12413328-B98D-4C90-AAAC-8248DDAE45D4";
name = Bold;
paths = (
{
closed = 1;
nodes = (
"582 54 LINE",
"491 54 LINE",
"491 -63 LINE",
"309 -63 LINE",
"309 54 LINE",
"31 54 LINE",
"10 187 LINE",
"355 571 LINE",
"491 571 LINE",
"491 197 LINE",
"591 197 LINE"
);
},
{
closed = 1;
nodes = (
"224 197 LINE",
"309 197 LINE",
"309 297 LINE"
);
}
);
width = 611;
}
);
unicode = 0034;
},
{
glyphname = five;
lastChange = "2015-05-10 21:39:18 +0000";
layers = (
{
layerId = "24C3257D-BF04-43D4-ADFB-51EF390723A7";
name = Light;
paths = (
{
closed = 1;
nodes = (
"68 206 LINE",
"86 566 LINE",
"452 566 LINE",
"438 461 LINE",
"196 461 LINE",
"190 342 LINE",
"211 353 OFFCURVE",
"237 357 OFFCURVE",
"264 357 CURVE SMOOTH",
"413 357 OFFCURVE",
"486 259 OFFCURVE",
"487 147 CURVE SMOOTH",
"487 16 OFFCURVE",
"393 -76 OFFCURVE",
"241 -76 CURVE SMOOTH",
"166 -76 OFFCURVE",
"84 -46 OFFCURVE",
"25 -14 CURVE",
"89 77 LINE",
"142 48 OFFCURVE",
"184 33 OFFCURVE",
"244 33 CURVE SMOOTH",
"315 33 OFFCURVE",
"369 76 OFFCURVE",
"369 147 CURVE SMOOTH",
"369 212 OFFCURVE",
"326 253 OFFCURVE",
"269 253 CURVE SMOOTH",
"222 253 OFFCURVE",
"192 227 OFFCURVE",
"183 206 CURVE"
);
}
);
width = 512;
},
{
layerId = "12413328-B98D-4C90-AAAC-8248DDAE45D4";
name = Bold;
paths = (
{
closed = 1;
nodes = (
"71 180 LINE",
"90 566 LINE",
"484 566 LINE",
"466 423 LINE",
"243 423 LINE",
"243 358 LINE",
"259 367 OFFCURVE",
"277 374 OFFCURVE",
"305 374 CURVE SMOOTH",
"440 374 OFFCURVE",
"513 271 OFFCURVE",
"513 154 CURVE SMOOTH",
"513 18 OFFCURVE",
"416 -79 OFFCURVE",
"259 -79 CURVE SMOOTH",
"187 -79 OFFCURVE",
"87 -50 OFFCURVE",
"20 -3 CURVE",
"111 126 LINE",
"171 93 OFFCURVE",
"213 76 OFFCURVE",
"262 76 CURVE SMOOTH",
"311 76 OFFCURVE",
"349 106 OFFCURVE",
"349 154 CURVE SMOOTH",
"349 197 OFFCURVE",
"322 223 OFFCURVE",
"285 223 CURVE SMOOTH",
"254 223 OFFCURVE",
"232 200 OFFCURVE",
"224 180 CURVE"
);
}
);
width = 533;
}
);
unicode = 0035;
},
{
glyphname = six;
lastChange = "2015-05-10 21:39:18 +0000";
layers = (
{
layerId = "24C3257D-BF04-43D4-ADFB-51EF390723A7";
name = Light;
paths = (
{
closed = 1;
nodes = (
"137 356 OFFCURVE",
"192 402 OFFCURVE",
"281 402 CURVE SMOOTH",
"408 402 OFFCURVE",
"500 309 OFFCURVE",
"500 195 CURVE SMOOTH",
"500 72 OFFCURVE",
"409 -13 OFFCURVE",
"284 -13 CURVE SMOOTH",
"134 -13 OFFCURVE",
"25 78 OFFCURVE",
"25 252 CURVE SMOOTH",
"25 487 OFFCURVE",
"254 613 OFFCURVE",
"415 634 CURVE",
"433 527 LINE",
"303 492 OFFCURVE",
"146 421 OFFCURVE",
"146 261 CURVE SMOOTH",
"146 144 OFFCURVE",
"202 94 OFFCURVE",
"280 94 CURVE SMOOTH",
"339 94 OFFCURVE",
"384 137 OFFCURVE",
"384 190 CURVE SMOOTH",
"384 253 OFFCURVE",
"339 300 OFFCURVE",
"278 300 CURVE SMOOTH",
"210 300 OFFCURVE",
"151 276 OFFCURVE",
"104 218 CURVE",
"79 300 LINE"
);
}
);
width = 525;
},
{
layerId = "12413328-B98D-4C90-AAAC-8248DDAE45D4";
name = Bold;
paths = (
{
closed = 1;
nodes = (
"172 350 OFFCURVE",
"248 398 OFFCURVE",
"319 398 CURVE SMOOTH",
"463 398 OFFCURVE",
"565 315 OFFCURVE",
"565 195 CURVE SMOOTH",
"565 74 OFFCURVE",
"469 -13 OFFCURVE",
"312 -13 CURVE SMOOTH",
"139 -13 OFFCURVE",
"20 98 OFFCURVE",
"20 252 CURVE SMOOTH",
"20 557 OFFCURVE",
"319 623 OFFCURVE",
"480 634 CURVE",
"498 467 LINE",
"398 452 OFFCURVE",
"211 451 OFFCURVE",
"211 261 CURVE SMOOTH",
"211 187 OFFCURVE",
"247 134 OFFCURVE",
"307 134 CURVE SMOOTH",
"343 134 OFFCURVE",
"377 166 OFFCURVE",
"377 209 CURVE SMOOTH",
"377 250 OFFCURVE",
"342 280 OFFCURVE",
"295 280 CURVE SMOOTH",
"239 280 OFFCURVE",
"186 232 OFFCURVE",
"139 181 CURVE",
"114 294 LINE"
);
}
);
width = 585;
}
);
unicode = 0036;
},
{
glyphname = seven;
lastChange = "2015-05-10 21:39:18 +0000";
layers = (
{
layerId = "24C3257D-BF04-43D4-ADFB-51EF390723A7";
name = Light;
paths = (
{
closed = 1;
nodes = (
"137 -34 LINE",
"311 461 LINE",
"26 461 LINE",
"10 566 LINE",
"416 566 LINE",
"454 514 LINE",
"258 -69 LINE"
);
}
);
width = 474;
},
{
layerId = "12413328-B98D-4C90-AAAC-8248DDAE45D4";
name = Bold;
paths = (
{
closed = 1;
nodes = (
"108 -30 LINE",
"299 423 LINE",
"27 423 LINE",
"10 566 LINE",
"464 566 LINE",
"498 494 LINE",
"289 -77 LINE"
);
}
);
width = 518;
}
);
unicode = 0037;
},
{
glyphname = eight;
lastChange = "2015-05-10 22:54:47 +0000";
layers = (
{
layerId = "24C3257D-BF04-43D4-ADFB-51EF390723A7";
name = Light;
paths = (
{
closed = 1;
nodes = (
"385 643 OFFCURVE",
"464 563 OFFCURVE",
"464 468 CURVE SMOOTH",
"464 412 OFFCURVE",
"428 363 OFFCURVE",
"377 340 CURVE",
"433 321 OFFCURVE",
"489 253 OFFCURVE",
"489 185 CURVE SMOOTH",
"489 77 OFFCURVE",
"402 -13 OFFCURVE",
"258 -13 CURVE SMOOTH",
"111 -13 OFFCURVE",
"25 77 OFFCURVE",
"25 185 CURVE SMOOTH",
"25 253 OFFCURVE",
"81 321 OFFCURVE",
"137 340 CURVE",
"86 363 OFFCURVE",
"51 412 OFFCURVE",
"51 468 CURVE SMOOTH",
"51 563 OFFCURVE",
"130 643 OFFCURVE",
"258 643 CURVE SMOOTH"
);
},
{
closed = 1;
nodes = (
"207 537 OFFCURVE",
"167 505 OFFCURVE",
"167 468 CURVE SMOOTH",
"166 423 OFFCURVE",
"198 394 OFFCURVE",
"258 385 CURVE",
"317 394 OFFCURVE",
"347 423 OFFCURVE",
"347 468 CURVE SMOOTH",
"347 505 OFFCURVE",
"308 537 OFFCURVE",
"256 537 CURVE SMOOTH"
);
},
{
closed = 1;
nodes = (
"181 276 OFFCURVE",
"142 231 OFFCURVE",
"142 183 CURVE SMOOTH",
"142 126 OFFCURVE",
"198 92 OFFCURVE",
"257 92 CURVE SMOOTH",
"315 92 OFFCURVE",
"373 126 OFFCURVE",
"373 183 CURVE SMOOTH",
"373 231 OFFCURVE",
"333 276 OFFCURVE",
"258 288 CURVE"
);
}
);
width = 514;
},
{
layerId = "12413328-B98D-4C90-AAAC-8248DDAE45D4";
name = Bold;
paths = (
{
closed = 1;
nodes = (
"419 643 OFFCURVE",
"530 570 OFFCURVE",
"530 457 CURVE SMOOTH",
"530 412 OFFCURVE",
"503 368 OFFCURVE",
"470 340 CURVE",
"515 308 OFFCURVE",
"552 254 OFFCURVE",
"552 197 CURVE SMOOTH",
"552 73 OFFCURVE",
"454 -13 OFFCURVE",
"287 -13 CURVE SMOOTH",
"126 -13 OFFCURVE",
"20 65 OFFCURVE",
"20 197 CURVE SMOOTH",
"20 254 OFFCURVE",
"58 309 OFFCURVE",
"103 341 CURVE",
"71 369 OFFCURVE",
"42 412 OFFCURVE",
"42 457 CURVE SMOOTH",
"42 570 OFFCURVE",
"152 643 OFFCURVE",
"287 643 CURVE SMOOTH"
);
},
{
closed = 1;
nodes = (
"248 494 OFFCURVE",
"231 465 OFFCURVE",
"231 446 CURVE SMOOTH",
"231 422 OFFCURVE",
"250 394 OFFCURVE",
"287 389 CURVE",
"322 394 OFFCURVE",
"341 422 OFFCURVE",
"341 447 CURVE SMOOTH",
"341 466 OFFCURVE",
"325 494 OFFCURVE",
"285 494 CURVE SMOOTH"
);
},
{
closed = 1;
nodes = (
"234 274 OFFCURVE",
"208 234 OFFCURVE",
"208 205 CURVE SMOOTH",
"208 169 OFFCURVE",
"246 135 OFFCURVE",
"286 135 CURVE SMOOTH",
"325 135 OFFCURVE",
"365 169 OFFCURVE",
"365 205 CURVE SMOOTH",
"365 234 OFFCURVE",
"336 274 OFFCURVE",
"287 283 CURVE"
);
}
);
width = 572;
}
);
unicode = 0038;
},
{
glyphname = nine;
lastChange = "2015-05-10 21:39:18 +0000";
layers = (
{
layerId = "24C3257D-BF04-43D4-ADFB-51EF390723A7";
name = Light;
paths = (
{
closed = 1;
nodes = (
"388 210 OFFCURVE",
"333 164 OFFCURVE",
"244 164 CURVE SMOOTH",
"117 164 OFFCURVE",
"25 257 OFFCURVE",
"25 371 CURVE SMOOTH",
"25 494 OFFCURVE",
"116 579 OFFCURVE",
"241 579 CURVE SMOOTH",
"391 579 OFFCURVE",
"500 488 OFFCURVE",
"500 314 CURVE SMOOTH",
"500 79 OFFCURVE",
"271 -47 OFFCURVE",
"110 -68 CURVE",
"92 39 LINE",
"222 74 OFFCURVE",
"379 145 OFFCURVE",
"379 305 CURVE SMOOTH",
"379 422 OFFCURVE",
"323 472 OFFCURVE",
"245 472 CURVE SMOOTH",
"186 472 OFFCURVE",
"141 429 OFFCURVE",
"141 376 CURVE SMOOTH",
"141 313 OFFCURVE",
"186 266 OFFCURVE",
"247 266 CURVE SMOOTH",
"315 266 OFFCURVE",
"374 290 OFFCURVE",
"421 348 CURVE",
"446 266 LINE"
);
}
);
width = 525;
},
{
layerId = "12413328-B98D-4C90-AAAC-8248DDAE45D4";
name = Bold;
paths = (
{
closed = 1;
nodes = (
"413 216 OFFCURVE",
"337 168 OFFCURVE",
"266 168 CURVE SMOOTH",
"122 168 OFFCURVE",
"20 251 OFFCURVE",
"20 371 CURVE SMOOTH",
"20 492 OFFCURVE",
"116 579 OFFCURVE",
"273 579 CURVE SMOOTH",
"446 579 OFFCURVE",
"565 468 OFFCURVE",
"565 314 CURVE SMOOTH",
"565 9 OFFCURVE",
"266 -57 OFFCURVE",
"105 -68 CURVE",
"87 99 LINE",
"187 114 OFFCURVE",
"374 115 OFFCURVE",
"374 305 CURVE SMOOTH",
"374 379 OFFCURVE",
"338 432 OFFCURVE",
"278 432 CURVE SMOOTH",
"242 432 OFFCURVE",
"208 400 OFFCURVE",
"208 357 CURVE SMOOTH",
"208 316 OFFCURVE",
"243 286 OFFCURVE",
"290 286 CURVE SMOOTH",
"346 286 OFFCURVE",
"399 334 OFFCURVE",
"446 385 CURVE",
"471 272 LINE"
);
}
);
width = 585;
}
);
unicode = 0039;
},
{
glyphname = grave;
lastChange = "2015-05-10 21:39:18 +0000";
layers = (
{
anchors = (
{
name = _top;
position = "{124, 485}";
}
);
layerId = "24C3257D-BF04-43D4-ADFB-51EF390723A7";
name = Light;
paths = (
{
closed = 1;
nodes = (
"10 753 LINE",
"144 753 LINE",
"195 614 LINE",
"105 589 LINE"
);
}
);
width = 205;
},
{
anchors = (
{
name = _top;
position = "{168, 485}";
}
);
layerId = "12413328-B98D-4C90-AAAC-8248DDAE45D4";
name = Bold;
paths = (
{
closed = 1;
nodes = (
"10 787 LINE",
"190 787 LINE",
"256 610 LINE",
"124 588 LINE"
);
}
);
width = 266;
}
);
unicode = 0060;
},
{
glyphname = dieresis;
lastChange = "2015-05-10 22:48:44 +0000";
layers = (
{
anchors = (
{
name = _top;
position = "{182, 485}";
}
);
layerId = "24C3257D-BF04-43D4-ADFB-51EF390723A7";
name = Light;
paths = (
{
closed = 1;
nodes = (
"39 603 OFFCURVE",
"10 631 OFFCURVE",
"10 667 CURVE SMOOTH",
"10 703 OFFCURVE",
"39 732 OFFCURVE",
"76 732 CURVE SMOOTH",
"112 732 OFFCURVE",
"139 703 OFFCURVE",
"139 667 CURVE SMOOTH",
"139 631 OFFCURVE",
"112 603 OFFCURVE",
"76 603 CURVE SMOOTH"
);
},
{
closed = 1;
nodes = (
"231 603 OFFCURVE",
"201 631 OFFCURVE",
"201 667 CURVE SMOOTH",
"201 703 OFFCURVE",
"231 732 OFFCURVE",
"266 732 CURVE SMOOTH",
"303 732 OFFCURVE",
"331 703 OFFCURVE",
"331 667 CURVE SMOOTH",
"331 631 OFFCURVE",
"303 603 OFFCURVE",
"266 603 CURVE SMOOTH"
);
}
);
width = 341;
},
{
anchors = (
{
name = _top;
position = "{203, 485}";
}
);
layerId = "12413328-B98D-4C90-AAAC-8248DDAE45D4";
name = Bold;
paths = (
{
closed = 1;
nodes = (
"49 603 OFFCURVE",
"10 639 OFFCURVE",
"10 686 CURVE SMOOTH",
"10 731 OFFCURVE",
"49 769 OFFCURVE",
"93 769 CURVE SMOOTH",
"141 769 OFFCURVE",
"177 731 OFFCURVE",
"177 686 CURVE SMOOTH",
"177 639 OFFCURVE",
"141 603 OFFCURVE",
"93 603 CURVE SMOOTH"
);
},
{
closed = 1;
nodes = (
"260 603 OFFCURVE",
"221 639 OFFCURVE",
"221 686 CURVE SMOOTH",
"221 731 OFFCURVE",
"260 769 OFFCURVE",
"304 769 CURVE SMOOTH",
"352 769 OFFCURVE",
"388 731 OFFCURVE",
"388 686 CURVE SMOOTH",
"388 639 OFFCURVE",
"352 603 OFFCURVE",
"304 603 CURVE SMOOTH"
);
}
);
width = 398;
}
);
unicode = 00A8;
},
{
glyphname = macron;
lastChange = "2015-05-10 21:39:18 +0000";
layers = (
{
anchors = (
{
name = _top;
position = "{148, 485}";
}
);
layerId = "24C3257D-BF04-43D4-ADFB-51EF390723A7";
name = Light;
paths = (
{
closed = 1;
nodes = (
"10 716 LINE",
"262 716 LINE",
"272 613 LINE",
"10 613 LINE"
);
}
);
width = 282;
},
{
anchors = (
{
name = _top;
position = "{162, 485}";
}
);
layerId = "12413328-B98D-4C90-AAAC-8248DDAE45D4";
name = Bold;
paths = (
{
closed = 1;
nodes = (
"10 756 LINE",
"290 756 LINE",
"300 613 LINE",
"10 613 LINE"
);
}
);
width = 310;
}
);
unicode = 00AF;
},
{
glyphname = acute;
lastChange = "2015-05-10 21:39:18 +0000";
layers = (
{
anchors = (
{
name = _top;
position = "{91, 485}";
}
);
layerId = "24C3257D-BF04-43D4-ADFB-51EF390723A7";
name = Light;
paths = (
{
closed = 1;
nodes = (
"10 614 LINE",
"61 753 LINE",
"195 753 LINE",
"100 589 LINE"
);
}
);
width = 205;
},
{
anchors = (
{
name = _top;
position = "{102, 485}";
}
);
layerId = "12413328-B98D-4C90-AAAC-8248DDAE45D4";
name = Bold;
paths = (
{
closed = 1;
nodes = (
"10 610 LINE",
"76 787 LINE",
"256 787 LINE",
"142 588 LINE"
);
}
);
width = 266;
}
);
unicode = 00B4;
},
{
glyphname = circumflex;
lastChange = "2015-05-10 21:39:18 +0000";
layers = (
{
anchors = (
{
name = _top;
position = "{205, 485}";
}
);
layerId = "24C3257D-BF04-43D4-ADFB-51EF390723A7";
name = Light;
paths = (
{
closed = 1;
nodes = (
"133 589 LINE",
"10 605 LINE",
"162 753 LINE",
"233 753 LINE",
"385 605 LINE",
"266 589 LINE",
"200 654 LINE"
);
}
);
width = 395;
},
{
anchors = (
{
name = _top;
position = "{240, 485}";
}
);
layerId = "12413328-B98D-4C90-AAAC-8248DDAE45D4";
name = Bold;
paths = (
{
closed = 1;
nodes = (
"187 588 LINE",
"10 608 LINE",
"184 787 LINE",
"291 787 LINE",
"465 608 LINE",
"292 588 LINE",
"240 650 LINE"
);
}
);
width = 475;
}
);
unicode = 02C6;
},
{
glyphname = caron;
lastChange = "2015-05-10 22:58:11 +0000";
layers = (
{
anchors = (
{
name = _top;
position = "{198, 485}";
}
);
layerId = "24C3257D-BF04-43D4-ADFB-51EF390723A7";
name = Light;
paths = (
{
closed = 1;
nodes = (
"266 753 LINE",
"385 737 LINE",
"233 589 LINE",
"162 589 LINE",
"10 737 LINE",
"133 753 LINE",
"200 688 LINE"
);
}
);
width = 395;
},
{
anchors = (
{
name = _top;
position = "{237, 485}";
}
);
layerId = "12413328-B98D-4C90-AAAC-8248DDAE45D4";
name = Bold;
paths = (
{
closed = 1;
nodes = (
"292 787 LINE",
"465 767 LINE",
"291 588 LINE",
"184 588 LINE",
"10 767 LINE",
"187 787 LINE",
"240 725 LINE"
);
}
);
width = 475;
}
);
unicode = 02C7;
},
{
glyphname = breve;
lastChange = "2015-05-10 21:39:18 +0000";
layers = (
{
anchors = (
{
name = _top;
position = "{158, 485}";
}
);
layerId = "24C3257D-BF04-43D4-ADFB-51EF390723A7";
name = Light;
paths = (
{
closed = 1;
nodes = (
"304 753 LINE",
"304 669 OFFCURVE",
"257 590 OFFCURVE",
"157 589 CURVE SMOOTH",
"57 590 OFFCURVE",
"10 669 OFFCURVE",
"10 753 CURVE",
"99 753 LINE",
"99 718 OFFCURVE",
"113 682 OFFCURVE",
"157 682 CURVE SMOOTH",
"200 682 OFFCURVE",
"217 718 OFFCURVE",
"217 753 CURVE"
);
}
);
width = 314;
},
{
anchors = (
{
name = _top;
position = "{191, 485}";
}
);
layerId = "12413328-B98D-4C90-AAAC-8248DDAE45D4";
name = Bold;
paths = (
{
closed = 1;
nodes = (
"370 777 LINE",
"370 662 OFFCURVE",
"299 589 OFFCURVE",
"190 588 CURVE SMOOTH",
"81 589 OFFCURVE",
"10 662 OFFCURVE",
"10 777 CURVE",
"139 777 LINE",
"139 744 OFFCURVE",
"158 721 OFFCURVE",
"190 721 CURVE SMOOTH",
"222 721 OFFCURVE",
"241 744 OFFCURVE",
"241 777 CURVE"
);
}
);
width = 380;
}
);
unicode = 02D8;
},
{
glyphname = dotaccent;
lastChange = "2015-05-10 22:48:34 +0000";
layers = (
{
anchors = (
{
name = _top;
position = "{86, 485}";
}
);
layerId = "24C3257D-BF04-43D4-ADFB-51EF390723A7";
name = Light;
paths = (
{
closed = 1;
nodes = (
"43 594 OFFCURVE",
"10 626 OFFCURVE",
"10 667 CURVE SMOOTH",
"10 708 OFFCURVE",
"43 741 OFFCURVE",
"84 741 CURVE SMOOTH",
"125 741 OFFCURVE",
"156 708 OFFCURVE",
"156 667 CURVE SMOOTH",
"156 626 OFFCURVE",
"125 594 OFFCURVE",
"84 594 CURVE SMOOTH"
);
}
);
width = 166;
},
{
anchors = (
{
name = _top;
position = "{100, 485}";
}
);
layerId = "12413328-B98D-4C90-AAAC-8248DDAE45D4";
name = Bold;
paths = (
{
closed = 1;
nodes = (
"51 594 OFFCURVE",
"10 633 OFFCURVE",
"10 686 CURVE SMOOTH",
"10 737 OFFCURVE",
"51 778 OFFCURVE",
"102 778 CURVE SMOOTH",
"155 778 OFFCURVE",
"192 737 OFFCURVE",
"192 686 CURVE SMOOTH",
"192 633 OFFCURVE",
"155 594 OFFCURVE",
"102 594 CURVE SMOOTH"
);
}
);
width = 202;
}
);
unicode = 02D9;
},
{
glyphname = ring;
lastChange = "2015-05-10 21:39:18 +0000";
layers = (
{
anchors = (
{
name = _top;
position = "{126, 485}";
}
);
layerId = "24C3257D-BF04-43D4-ADFB-51EF390723A7";
name = Light;
paths = (
{
closed = 1;
nodes = (
"174 793 OFFCURVE",
"224 749 OFFCURVE",
"224 692 CURVE SMOOTH",
"224 635 OFFCURVE",
"174 594 OFFCURVE",
"117 594 CURVE SMOOTH",
"60 594 OFFCURVE",
"10 635 OFFCURVE",
"10 692 CURVE SMOOTH",
"10 749 OFFCURVE",
"60 793 OFFCURVE",
"117 793 CURVE SMOOTH"
);
},
{
closed = 1;
nodes = (
"138 652 OFFCURVE",
"156 671 OFFCURVE",
"156 692 CURVE SMOOTH",
"156 713 OFFCURVE",
"138 731 OFFCURVE",
"117 731 CURVE SMOOTH",
"96 731 OFFCURVE",
"77 713 OFFCURVE",
"77 692 CURVE SMOOTH",
"77 671 OFFCURVE",
"96 652 OFFCURVE",
"117 652 CURVE SMOOTH"
);
}
);
width = 234;
},
{
anchors = (
{
name = _top;
position = "{134, 485}";
}
);
layerId = "12413328-B98D-4C90-AAAC-8248DDAE45D4";
name = Bold;
paths = (
{
closed = 1;
nodes = (
"198 826 OFFCURVE",
"256 774 OFFCURVE",
"256 709 CURVE SMOOTH",
"256 641 OFFCURVE",
"198 594 OFFCURVE",
"133 594 CURVE SMOOTH",
"66 594 OFFCURVE",
"10 641 OFFCURVE",
"10 709 CURVE SMOOTH",
"10 774 OFFCURVE",
"66 826 OFFCURVE",
"133 826 CURVE SMOOTH"
);
},
{
closed = 1;
nodes = (
"151 679 OFFCURVE",
"163 693 OFFCURVE",
"163 709 CURVE SMOOTH",
"163 725 OFFCURVE",
"151 737 OFFCURVE",
"135 737 CURVE SMOOTH",
"119 737 OFFCURVE",
"105 725 OFFCURVE",
"105 709 CURVE SMOOTH",
"105 693 OFFCURVE",
"119 679 OFFCURVE",
"135 679 CURVE SMOOTH"
);
}
);
width = 266;
}
);
unicode = 02DA;
},
{
glyphname = tilde;
lastChange = "2015-05-10 21:46:27 +0000";
layers = (
{
anchors = (
{
name = _top;
position = "{179, 485}";
}
);
layerId = "24C3257D-BF04-43D4-ADFB-51EF390723A7";
name = Light;
paths = (
{
closed = 1;
nodes = (
"337 716 LINE",
"337 625 OFFCURVE",
"283 595 OFFCURVE",
"230 595 CURVE SMOOTH",
"174 595 OFFCURVE",
"176 631 OFFCURVE",
"124 631 CURVE SMOOTH",
"109 631 OFFCURVE",
"96 613 OFFCURVE",
"96 600 CURVE",
"10 600 LINE",
"10 689 OFFCURVE",
"64 720 OFFCURVE",
"117 720 CURVE SMOOTH",
"173 720 OFFCURVE",
"177 685 OFFCURVE",
"229 685 CURVE SMOOTH",
"244 685 OFFCURVE",
"256 700 OFFCURVE",
"256 716 CURVE"
);
}
);
width = 347;
},
{
anchors = (
{
name = _top;
position = "{207, 485}";
}
);
layerId = "12413328-B98D-4C90-AAAC-8248DDAE45D4";
name = Bold;
paths = (
{
closed = 1;
nodes = (
"381 755 LINE",
"381 635 OFFCURVE",
"319 595 OFFCURVE",
"258 595 CURVE SMOOTH",
"209 595 OFFCURVE",
"201 629 OFFCURVE",
"158 629 CURVE SMOOTH",
"147 629 OFFCURVE",
"136 612 OFFCURVE",
"136 600 CURVE",
"10 600 LINE",
"10 720 OFFCURVE",
"76 760 OFFCURVE",
"137 760 CURVE SMOOTH",
"183 760 OFFCURVE",
"196 726 OFFCURVE",
"237 726 CURVE SMOOTH",
"248 726 OFFCURVE",
"259 743 OFFCURVE",
"259 755 CURVE"
);
}
);
width = 391;
}
);
unicode = 02DC;
},
{
glyphname = hungarumlaut;
lastChange = "2015-05-10 21:39:18 +0000";
layers = (
{
anchors = (
{
name = _top;
position = "{163, 485}";
}
);
layerId = "24C3257D-BF04-43D4-ADFB-51EF390723A7";
name = Light;
paths = (
{
closed = 1;
nodes = (
"10 614 LINE",
"61 753 LINE",
"195 753 LINE",
"100 589 LINE"
);
},
{
closed = 1;
nodes = (
"210 614 LINE",
"261 753 LINE",
"395 753 LINE",
"300 589 LINE"
);
}
);
width = 405;
},
{
anchors = (
{
name = _top;
position = "{215, 485}";
}
);
layerId = "12413328-B98D-4C90-AAAC-8248DDAE45D4";
name = Bold;
paths = (
{
closed = 1;
nodes = (
"257 610 LINE",
"323 787 LINE",
"503 787 LINE",
"389 588 LINE"
);
},
{
closed = 1;
nodes = (
"10 610 LINE",
"76 787 LINE",
"256 787 LINE",
"142 588 LINE"
);
}
);
width = 513;
}
);
unicode = 02DD;
},
{
glyphname = ogonek;
lastChange = "2015-05-10 21:39:18 +0000";
layers = (
{
anchors = (
{
name = _bottom;
position = "{99, 0}";
}
);
layerId = "24C3257D-BF04-43D4-ADFB-51EF390723A7";
name = Light;
paths = (
{
closed = 1;
nodes = (
"163 5 LINE",
"144 -12 OFFCURVE",
"119 -55 OFFCURVE",
"119 -83 CURVE SMOOTH",
"119 -98 OFFCURVE",
"129 -111 OFFCURVE",
"150 -111 CURVE SMOOTH",
"158 -111 OFFCURVE",
"176 -105 OFFCURVE",
"191 -94 CURVE",
"228 -174 LINE",
"196 -198 OFFCURVE",
"163 -207 OFFCURVE",
"126 -207 CURVE SMOOTH",
"57 -207 OFFCURVE",
"10 -155 OFFCURVE",
"10 -94 CURVE SMOOTH",
"10 -65 OFFCURVE",
"31 -15 OFFCURVE",
"48 5 CURVE"
);
}
);
width = 238;
},
{
anchors = (
{
name = _bottom;
position = "{105, 0}";
}
);
layerId = "12413328-B98D-4C90-AAAC-8248DDAE45D4";
name = Bold;
paths = (
{
closed = 1;
nodes = (
"179 5 LINE",
"166 -12 OFFCURVE",
"147 -54 OFFCURVE",
"147 -79 CURVE SMOOTH",
"147 -95 OFFCURVE",
"159 -111 OFFCURVE",
"176 -111 CURVE SMOOTH",
"189 -111 OFFCURVE",
"201 -108 OFFCURVE",
"220 -91 CURVE",
"281 -193 LINE",
"258 -220 OFFCURVE",
"211 -240 OFFCURVE",
"158 -240 CURVE SMOOTH",
"61 -240 OFFCURVE",
"10 -168 OFFCURVE",
"10 -93 CURVE SMOOTH",
"10 -68 OFFCURVE",
"22 -20 OFFCURVE",
"35 5 CURVE"
);
}
);
width = 291;
}
);
unicode = 02DB;
},
{
glyphname = cedilla;
lastChange = "2015-05-10 21:46:36 +0000";
layers = (
{
anchors = (
{
name = _bottom;
position = "{127, 0}";
}
);
layerId = "24C3257D-BF04-43D4-ADFB-51EF390723A7";
name = Light;
paths = (
{
closed = 1;
nodes = (
"86 13 LINE",
"179 13 LINE",
"161 -29 LINE",
"201 -45 OFFCURVE",
"231 -83 OFFCURVE",
"231 -118 CURVE SMOOTH",
"231 -189 OFFCURVE",
"170 -221 OFFCURVE",
"105 -221 CURVE SMOOTH",
"80 -221 OFFCURVE",
"31 -210 OFFCURVE",
"10 -193 CURVE",
"40 -117 LINE",
"57 -126 OFFCURVE",
"88 -137 OFFCURVE",
"105 -137 CURVE SMOOTH",
"121 -137 OFFCURVE",
"139 -133 OFFCURVE",
"139 -120 CURVE SMOOTH",
"139 -95 OFFCURVE",
"96 -80 OFFCURVE",
"51 -75 CURVE"
);
}
);
width = 241;
},
{
anchors = (
{
name = _bottom;
position = "{148, 0}";
}
);
layerId = "12413328-B98D-4C90-AAAC-8248DDAE45D4";
name = Bold;
paths = (
{
closed = 1;
nodes = (
"93 13 LINE",
"219 13 LINE",
"199 -39 LINE",
"248 -55 OFFCURVE",
"267 -107 OFFCURVE",
"267 -142 CURVE SMOOTH",
"267 -218 OFFCURVE",
"198 -262 OFFCURVE",
"126 -262 CURVE SMOOTH",
"87 -262 OFFCURVE",
"43 -246 OFFCURVE",
"10 -221 CURVE",
"48 -135 LINE",
"61 -140 OFFCURVE",
"85 -150 OFFCURVE",
"104 -150 CURVE SMOOTH",
"121 -150 OFFCURVE",
"135 -144 OFFCURVE",
"135 -132 CURVE SMOOTH",
"135 -107 OFFCURVE",
"89 -98 OFFCURVE",
"50 -94 CURVE"
);
}
);
width = 277;
}
);
unicode = 00B8;
},
{
glyphname = commaaccent;
lastChange = "2015-05-10 21:39:18 +0000";
layers = (
{
anchors = (
{
name = _bottom;
position = "{82, 0}";
}
);
layerId = "24C3257D-BF04-43D4-ADFB-51EF390723A7";
name = Light;
paths = (
{
closed = 1;
nodes = (
"125 -21 OFFCURVE",
"158 -58 OFFCURVE",
"158 -111 CURVE SMOOTH",
"158 -186 OFFCURVE",
"106 -253 OFFCURVE",
"42 -284 CURVE",
"14 -223 LINE",
"31 -216 OFFCURVE",
"57 -195 OFFCURVE",
"66 -167 CURVE",
"42 -167 OFFCURVE",
"10 -132 OFFCURVE",
"10 -95 CURVE SMOOTH",
"10 -59 OFFCURVE",
"43 -21 OFFCURVE",
"84 -21 CURVE SMOOTH"
);
}
);
width = 168;
},
{
anchors = (
{
name = _bottom;
position = "{109, 0}";
}
);
layerId = "12413328-B98D-4C90-AAAC-8248DDAE45D4";
name = Bold;
paths = (
{
closed = 1;
nodes = (
"162 -21 OFFCURVE",
"203 -64 OFFCURVE",
"203 -128 CURVE SMOOTH",
"203 -207 OFFCURVE",
"134 -289 OFFCURVE",
"46 -322 CURVE",
"10 -242 LINE",
"29 -231 OFFCURVE",
"57 -208 OFFCURVE",
"62 -191 CURVE",
"38 -176 OFFCURVE",
"19 -146 OFFCURVE",
"19 -113 CURVE SMOOTH",
"19 -68 OFFCURVE",
"59 -21 OFFCURVE",
"111 -21 CURVE SMOOTH"
);
}
);
width = 213;
}
);
unicode = F6C3;
},
{
glyphname = grave.case;
lastChange = "2015-05-10 21:39:18 +0000";
layers = (
{
anchors = (
{
name = _topU;
position = "{146, 680}";
}
);
layerId = "24C3257D-BF04-43D4-ADFB-51EF390723A7";
name = Light;
paths = (
{
closed = 1;
nodes = (
"10 903 LINE",
"144 903 LINE",
"195 764 LINE",
"105 739 LINE"
);
}
);
width = 205;
},
{
anchors = (
{
name = _topU;
position = "{164, 680}";
}
);
layerId = "12413328-B98D-4C90-AAAC-8248DDAE45D4";
name = Bold;
paths = (
{
closed = 1;
nodes = (
"10 932 LINE",
"190 932 LINE",
"256 755 LINE",
"124 733 LINE"
);
}
);
width = 266;
}
);
},
{
glyphname = dieresis.case;
lastChange = "2015-05-10 22:48:26 +0000";
layers = (
{
anchors = (
{
name = _topU;
position = "{171, 680}";
}
);
layerId = "24C3257D-BF04-43D4-ADFB-51EF390723A7";
name = Light;
paths = (
{
closed = 1;
nodes = (
"39 753 OFFCURVE",
"10 781 OFFCURVE",
"10 817 CURVE SMOOTH",
"10 853 OFFCURVE",
"39 882 OFFCURVE",
"76 882 CURVE SMOOTH",
"112 882 OFFCURVE",
"139 853 OFFCURVE",
"139 817 CURVE SMOOTH",
"139 781 OFFCURVE",
"112 753 OFFCURVE",
"76 753 CURVE SMOOTH"
);
},
{
closed = 1;
nodes = (
"231 753 OFFCURVE",
"201 781 OFFCURVE",
"201 817 CURVE SMOOTH",
"201 853 OFFCURVE",
"231 882 OFFCURVE",
"266 882 CURVE SMOOTH",
"303 882 OFFCURVE",
"331 853 OFFCURVE",
"331 817 CURVE SMOOTH",
"331 781 OFFCURVE",
"303 753 OFFCURVE",
"266 753 CURVE SMOOTH"
);
}
);
width = 341;
},
{
anchors = (
{
name = _topU;
position = "{198, 680}";
}
);
layerId = "12413328-B98D-4C90-AAAC-8248DDAE45D4";
name = Bold;
paths = (
{
closed = 1;
nodes = (
"49 753 OFFCURVE",
"10 789 OFFCURVE",
"10 836 CURVE SMOOTH",
"10 881 OFFCURVE",
"49 919 OFFCURVE",
"93 919 CURVE SMOOTH",
"141 919 OFFCURVE",
"177 881 OFFCURVE",
"177 836 CURVE SMOOTH",
"177 789 OFFCURVE",
"141 753 OFFCURVE",
"93 753 CURVE SMOOTH"
);
},
{
closed = 1;
nodes = (
"260 753 OFFCURVE",
"221 789 OFFCURVE",
"221 836 CURVE SMOOTH",
"221 881 OFFCURVE",
"260 919 OFFCURVE",
"304 919 CURVE SMOOTH",
"352 919 OFFCURVE",
"388 881 OFFCURVE",
"388 836 CURVE SMOOTH",
"388 789 OFFCURVE",
"352 753 OFFCURVE",
"304 753 CURVE SMOOTH"
);
}
);
width = 398;
}
);
},
{
glyphname = macron.case;
lastChange = "2015-05-10 21:39:18 +0000";
layers = (
{
anchors = (
{
name = _topU;
position = "{146, 680}";
}
);
layerId = "24C3257D-BF04-43D4-ADFB-51EF390723A7";
name = Light;
paths = (
{
closed = 1;
nodes = (
"10 866 LINE",
"262 866 LINE",
"272 763 LINE",
"10 763 LINE"
);
}
);
width = 282;
},
{
anchors = (
{
name = _topU;
position = "{158, 680}";
}
);
layerId = "12413328-B98D-4C90-AAAC-8248DDAE45D4";
name = Bold;
paths = (
{
closed = 1;
nodes = (
"10 906 LINE",
"290 906 LINE",
"300 763 LINE",
"10 763 LINE"
);
}
);
width = 310;
}
);
},
{
glyphname = acute.case;
lastChange = "2015-05-10 21:39:18 +0000";
layers = (
{
anchors = (
{
name = _topU;
position = "{81, 680}";
}
);
layerId = "24C3257D-BF04-43D4-ADFB-51EF390723A7";
name = Light;
paths = (
{
closed = 1;
nodes = (
"10 764 LINE",
"61 903 LINE",
"195 903 LINE",
"100 739 LINE"
);
}
);
width = 205;
},
{
anchors = (
{
name = _topU;
position = "{98, 680}";
}
);
layerId = "12413328-B98D-4C90-AAAC-8248DDAE45D4";
name = Bold;
paths = (
{
closed = 1;
nodes = (
"10 755 LINE",
"76 932 LINE",
"256 932 LINE",
"142 733 LINE"
);
}
);
width = 266;
}
);
},
{
glyphname = circumflex.case;
lastChange = "2015-05-10 21:39:18 +0000";
layers = (
{
anchors = (
{
name = _topU;
position = "{202, 680}";
}
);
layerId = "24C3257D-BF04-43D4-ADFB-51EF390723A7";
name = Light;
paths = (
{
closed = 1;
nodes = (
"133 739 LINE",
"10 755 LINE",
"162 903 LINE",
"233 903 LINE",
"385 755 LINE",
"266 739 LINE",
"200 804 LINE"
);
}
);
width = 395;
},
{
anchors = (
{
name = _topU;
position = "{239, 680}";
}
);
layerId = "12413328-B98D-4C90-AAAC-8248DDAE45D4";
name = Bold;
paths = (
{
closed = 1;
nodes = (
"187 739 LINE",
"10 759 LINE",
"184 938 LINE",
"291 938 LINE",
"465 759 LINE",
"292 739 LINE",
"240 801 LINE"
);
}
);
width = 475;
}
);
},
{
glyphname = caron.case;
lastChange = "2015-05-10 22:48:52 +0000";
layers = (
{
anchors = (
{
name = _topU;
position = "{196, 680}";
}
);
layerId = "24C3257D-BF04-43D4-ADFB-51EF390723A7";
name = Light;
paths = (
{
closed = 1;
nodes = (
"266 903 LINE",
"385 887 LINE",
"233 739 LINE",
"162 739 LINE",
"10 887 LINE",
"133 903 LINE",
"200 838 LINE"
);
}
);
width = 395;
},
{
anchors = (
{
name = _topU;
position = "{241, 680}";
}
);
layerId = "12413328-B98D-4C90-AAAC-8248DDAE45D4";
name = Bold;
paths = (
{
closed = 1;
nodes = (
"292 938 LINE",
"465 918 LINE",
"291 739 LINE",
"184 739 LINE",
"10 918 LINE",
"187 938 LINE",
"240 876 LINE"
);
}
);
width = 475;
}
);
},
{
glyphname = breve.case;
lastChange = "2015-05-10 21:39:18 +0000";
layers = (
{
anchors = (
{
name = _topU;
position = "{158, 680}";
}
);
layerId = "24C3257D-BF04-43D4-ADFB-51EF390723A7";
name = Light;
paths = (
{
closed = 1;
nodes = (
"304 903 LINE",
"304 819 OFFCURVE",
"257 740 OFFCURVE",
"157 739 CURVE SMOOTH",
"57 740 OFFCURVE",
"10 819 OFFCURVE",
"10 903 CURVE",
"99 903 LINE",
"99 868 OFFCURVE",
"113 832 OFFCURVE",
"157 832 CURVE SMOOTH",
"200 832 OFFCURVE",
"217 868 OFFCURVE",
"217 903 CURVE"
);
}
);
width = 314;
},
{
anchors = (
{
name = _topU;
position = "{190, 680}";
}
);
layerId = "12413328-B98D-4C90-AAAC-8248DDAE45D4";
name = Bold;
paths = (
{
closed = 1;
nodes = (
"370 928 LINE",
"370 813 OFFCURVE",
"299 740 OFFCURVE",
"190 739 CURVE SMOOTH",
"81 740 OFFCURVE",
"10 813 OFFCURVE",
"10 928 CURVE",
"139 928 LINE",
"139 895 OFFCURVE",
"158 872 OFFCURVE",
"190 872 CURVE SMOOTH",
"222 872 OFFCURVE",
"241 895 OFFCURVE",
"241 928 CURVE"
);
}
);
width = 380;
}
);
},
{
glyphname = dotaccent.case;
lastChange = "2015-05-10 22:48:09 +0000";
layers = (
{
anchors = (
{
name = _topU;
position = "{84, 680}";
}
);
layerId = "24C3257D-BF04-43D4-ADFB-51EF390723A7";
name = Light;
paths = (
{
closed = 1;
nodes = (
"43 744 OFFCURVE",
"10 776 OFFCURVE",
"10 817 CURVE SMOOTH",
"10 858 OFFCURVE",
"43 891 OFFCURVE",
"84 891 CURVE SMOOTH",
"125 891 OFFCURVE",
"156 858 OFFCURVE",
"156 817 CURVE SMOOTH",
"156 776 OFFCURVE",
"125 744 OFFCURVE",
"84 744 CURVE SMOOTH"
);
}
);
width = 166;
},
{
anchors = (
{
name = _topU;
position = "{101, 680}";
}
);
layerId = "12413328-B98D-4C90-AAAC-8248DDAE45D4";
name = Bold;
paths = (
{
closed = 1;
nodes = (
"51 744 OFFCURVE",
"10 783 OFFCURVE",
"10 836 CURVE SMOOTH",
"10 887 OFFCURVE",
"51 928 OFFCURVE",
"102 928 CURVE SMOOTH",
"155 928 OFFCURVE",
"192 887 OFFCURVE",
"192 836 CURVE SMOOTH",
"192 783 OFFCURVE",
"155 744 OFFCURVE",
"102 744 CURVE SMOOTH"
);
}
);
width = 202;
}
);
},
{
glyphname = ring.case;
lastChange = "2015-05-10 21:39:18 +0000";
layers = (
{
anchors = (
{
name = _topU;
position = "{119, 680}";
}
);
layerId = "24C3257D-BF04-43D4-ADFB-51EF390723A7";
name = Light;
paths = (
{
closed = 1;
nodes = (
"174 943 OFFCURVE",
"224 899 OFFCURVE",
"224 842 CURVE SMOOTH",
"224 785 OFFCURVE",
"174 744 OFFCURVE",
"117 744 CURVE SMOOTH",
"60 744 OFFCURVE",
"10 785 OFFCURVE",
"10 842 CURVE SMOOTH",
"10 899 OFFCURVE",
"60 943 OFFCURVE",
"117 943 CURVE SMOOTH"
);
},
{
closed = 1;
nodes = (
"138 802 OFFCURVE",
"156 821 OFFCURVE",
"156 842 CURVE SMOOTH",
"156 863 OFFCURVE",
"138 881 OFFCURVE",
"117 881 CURVE SMOOTH",
"96 881 OFFCURVE",
"77 863 OFFCURVE",
"77 842 CURVE SMOOTH",
"77 821 OFFCURVE",
"96 802 OFFCURVE",
"117 802 CURVE SMOOTH"
);
}
);
width = 234;
},
{
anchors = (
{
name = _topU;
position = "{135, 680}";
}
);
layerId = "12413328-B98D-4C90-AAAC-8248DDAE45D4";
name = Bold;
paths = (
{
closed = 1;
nodes = (
"198 976 OFFCURVE",
"256 924 OFFCURVE",
"256 859 CURVE SMOOTH",
"256 791 OFFCURVE",
"198 744 OFFCURVE",
"133 744 CURVE SMOOTH",
"66 744 OFFCURVE",
"10 791 OFFCURVE",
"10 859 CURVE SMOOTH",
"10 924 OFFCURVE",
"66 976 OFFCURVE",
"133 976 CURVE SMOOTH"
);
},
{
closed = 1;
nodes = (
"151 829 OFFCURVE",
"163 843 OFFCURVE",
"163 859 CURVE SMOOTH",
"163 875 OFFCURVE",
"151 887 OFFCURVE",
"135 887 CURVE SMOOTH",
"119 887 OFFCURVE",
"105 875 OFFCURVE",
"105 859 CURVE SMOOTH",
"105 843 OFFCURVE",
"119 829 OFFCURVE",
"135 829 CURVE SMOOTH"
);
}
);
width = 266;
}
);
},
{
glyphname = tilde.case;
lastChange = "2015-05-10 21:46:50 +0000";
layers = (
{
anchors = (
{
name = _topU;
position = "{182, 680}";
}
);
layerId = "24C3257D-BF04-43D4-ADFB-51EF390723A7";
name = Light;
paths = (
{
closed = 1;
nodes = (
"337 866 LINE",
"337 775 OFFCURVE",
"283 745 OFFCURVE",
"230 745 CURVE SMOOTH",
"174 745 OFFCURVE",
"176 781 OFFCURVE",
"124 781 CURVE SMOOTH",
"109 781 OFFCURVE",
"96 763 OFFCURVE",
"96 750 CURVE",
"10 750 LINE",
"10 839 OFFCURVE",
"64 870 OFFCURVE",
"117 870 CURVE SMOOTH",
"173 870 OFFCURVE",
"177 835 OFFCURVE",
"229 835 CURVE SMOOTH",
"244 835 OFFCURVE",
"256 850 OFFCURVE",
"256 866 CURVE"
);
}
);
width = 347;
},
{
anchors = (
{
name = _topU;
position = "{201, 680}";
}
);
layerId = "12413328-B98D-4C90-AAAC-8248DDAE45D4";
name = Bold;
paths = (
{
closed = 1;
nodes = (
"381 905 LINE",
"381 785 OFFCURVE",
"319 745 OFFCURVE",
"258 745 CURVE SMOOTH",
"209 745 OFFCURVE",
"201 779 OFFCURVE",
"158 779 CURVE SMOOTH",
"147 779 OFFCURVE",
"136 762 OFFCURVE",
"136 750 CURVE",
"10 750 LINE",
"10 870 OFFCURVE",
"76 910 OFFCURVE",
"137 910 CURVE SMOOTH",
"183 910 OFFCURVE",
"196 876 OFFCURVE",
"237 876 CURVE SMOOTH",
"248 876 OFFCURVE",
"259 893 OFFCURVE",
"259 905 CURVE"
);
}
);
width = 391;
}
);
},
{
glyphname = hungarumlaut.case;
lastChange = "2015-05-10 21:39:18 +0000";
layers = (
{
anchors = (
{
name = _topU;
position = "{164, 680}";
}
);
layerId = "24C3257D-BF04-43D4-ADFB-51EF390723A7";
name = Light;
paths = (
{
closed = 1;
nodes = (
"10 764 LINE",
"61 903 LINE",
"195 903 LINE",
"100 739 LINE"
);
},
{
closed = 1;
nodes = (
"210 764 LINE",
"261 903 LINE",
"395 903 LINE",
"300 739 LINE"
);
}
);
width = 405;
},
{
anchors = (
{
name = _topU;
position = "{212, 680}";
}
);
layerId = "12413328-B98D-4C90-AAAC-8248DDAE45D4";
name = Bold;
paths = (
{
closed = 1;
nodes = (
"257 755 LINE",
"323 932 LINE",
"503 932 LINE",
"389 733 LINE"
);
},
{
closed = 1;
nodes = (
"10 755 LINE",
"76 932 LINE",
"256 932 LINE",
"142 733 LINE"
);
}
);
width = 513;
}
);
},
{
glyphname = Thorn;
lastChange = "2015-05-10 21:47:00 +0000";
layers = (
{
layerId = "24C3257D-BF04-43D4-ADFB-51EF390723A7";
name = Light;
paths = (
{
closed = 1;
nodes = (
"214 600 LINE",
"214 680 LINE",
"85 680 LINE",
"85 0 LINE",
"214 0 LINE",
"214 157 LINE",
"289 157 LINE SMOOTH",
"433 157 OFFCURVE",
"566 227 OFFCURVE",
"567 382 CURVE SMOOTH",
"567 538 OFFCURVE",
"446 600 OFFCURVE",
"298 600 CURVE SMOOTH"
);
},
{
closed = 1;
nodes = (
"214 264 LINE",
"214 492 LINE",
"294 492 LINE SMOOTH",
"379 492 OFFCURVE",
"430 462 OFFCURVE",
"430 374 CURVE",
"425 298 OFFCURVE",
"373 264 OFFCURVE",
"296 264 CURVE SMOOTH"
);
}
);
width = 607;
},
{
layerId = "12413328-B98D-4C90-AAAC-8248DDAE45D4";
name = Bold;
paths = (
{
closed = 1;
nodes = (
"262 600 LINE",
"262 680 LINE",
"80 680 LINE",
"80 0 LINE",
"262 0 LINE",
"262 118 LINE",
"358 118 LINE SMOOTH",
"505 118 OFFCURVE",
"646 192 OFFCURVE",
"646 355 CURVE SMOOTH",
"646 519 OFFCURVE",
"517 600 OFFCURVE",
"366 600 CURVE SMOOTH"
);
},
{
closed = 1;
nodes = (
"262 261 LINE",
"262 457 LINE",
"360 457 LINE SMOOTH",
"421 457 OFFCURVE",
"458 415 OFFCURVE",
"458 355 CURVE SMOOTH",
"458 302 OFFCURVE",
"418 261 OFFCURVE",
"362 261 CURVE SMOOTH"
);
}
);
width = 666;
}
);
unicode = 00DE;
},
{
glyphname = Eth;
lastChange = "2015-05-10 21:39:18 +0000";
layers = (
{
layerId = "24C3257D-BF04-43D4-ADFB-51EF390723A7";
name = Light;
paths = (
{
closed = 1;
nodes = (
"29 291 LINE",
"18 392 LINE",
"286 392 LINE",
"295 291 LINE"
);
},
{
closed = 1;
nodes = (
"85 0 LINE",
"85 680 LINE",
"343 680 LINE SMOOTH",
"555 680 OFFCURVE",
"656 539 OFFCURVE",
"656 344 CURVE SMOOTH",
"656 133 OFFCURVE",
"542 3 OFFCURVE",
"343 -1 CURVE"
);
},
{
closed = 1;
nodes = (
"214 570 LINE",
"214 109 LINE",
"341 109 LINE SMOOTH",
"450 109 OFFCURVE",
"522 175 OFFCURVE",
"522 344 CURVE SMOOTH",
"522 485 OFFCURVE",
"468 570 OFFCURVE",
"348 570 CURVE SMOOTH"
);
}
);
width = 691;
},
{
layerId = "12413328-B98D-4C90-AAAC-8248DDAE45D4";
name = Bold;
paths = (
{
closed = 1;
nodes = (
"17 270 LINE",
"0 413 LINE",
"369 413 LINE",
"386 270 LINE"
);
},
{
closed = 1;
nodes = (
"80 0 LINE",
"80 680 LINE",
"388 680 LINE SMOOTH",
"597 680 OFFCURVE",
"709 537 OFFCURVE",
"709 344 CURVE SMOOTH",
"709 132 OFFCURVE",
"575 0 OFFCURVE",
"384 0 CURVE SMOOTH"
);
},
{
closed = 1;
nodes = (
"262 537 LINE",
"262 143 LINE",
"372 143 LINE SMOOTH",
"456 143 OFFCURVE",
"521 209 OFFCURVE",
"521 344 CURVE SMOOTH",
"521 456 OFFCURVE",
"471 537 OFFCURVE",
"379 537 CURVE SMOOTH"
);
}
);
width = 739;
}
);
unicode = 00D0;
},
{
glyphname = AE;
lastChange = "2015-05-10 22:47:59 +0000";
layers = (
{
layerId = "24C3257D-BF04-43D4-ADFB-51EF390723A7";
name = Light;
paths = (
{
closed = 1;
nodes = (
"0 8 LINE",
"453 680 LINE",
"874 680 LINE",
"893 578 LINE",
"597 578 LINE",
"597 395 LINE",
"819 395 LINE",
"840 292 LINE",
"597 292 LINE",
"597 101 LINE",
"922 101 LINE",
"942 0 LINE",
"466 0 LINE",
"466 160 LINE",
"234 160 LINE",
"124 -10 LINE"
);
},
{
closed = 1;
nodes = (
"304 265 LINE",
"466 265 LINE",
"466 502 LINE"
);
}
);
width = 962;
},
{
layerId = "12413328-B98D-4C90-AAAC-8248DDAE45D4";
name = Bold;
paths = (
{
closed = 1;
nodes = (
"10 13 LINE",
"469 680 LINE",
"920 680 LINE",
"937 537 LINE",
"651 537 LINE",
"651 413 LINE",
"860 413 LINE",
"877 270 LINE",
"651 270 LINE",
"651 143 LINE",
"950 143 LINE",
"967 0 LINE",
"469 0 LINE",
"469 128 LINE",
"277 128 LINE",
"185 -13 LINE"
);
},
{
closed = 1;
nodes = (
"378 271 LINE",
"469 271 LINE",
"469 399 LINE"
);
}
);
width = 987;
}
);
unicode = 00C6;
},
{
glyphname = Dcroat;
lastChange = "2015-05-10 21:39:18 +0000";
layers = (
{
layerId = "24C3257D-BF04-43D4-ADFB-51EF390723A7";
name = Light;
paths = (
{
closed = 1;
nodes = (
"29 291 LINE",
"18 392 LINE",
"286 392 LINE",
"295 291 LINE"
);
},
{
closed = 1;
nodes = (
"85 0 LINE",
"85 680 LINE",
"343 680 LINE SMOOTH",
"555 680 OFFCURVE",
"656 539 OFFCURVE",
"656 344 CURVE SMOOTH",
"656 131 OFFCURVE",
"544 3 OFFCURVE",
"343 0 CURVE SMOOTH"
);
},
{
closed = 1;
nodes = (
"214 570 LINE",
"214 109 LINE",
"341 109 LINE SMOOTH",
"450 109 OFFCURVE",
"522 175 OFFCURVE",
"522 344 CURVE SMOOTH",
"522 485 OFFCURVE",
"468 570 OFFCURVE",
"348 570 CURVE SMOOTH"
);
}
);
width = 691;
},
{
layerId = "12413328-B98D-4C90-AAAC-8248DDAE45D4";
name = Bold;
paths = (
{
closed = 1;
nodes = (
"17 270 LINE",
"0 413 LINE",
"369 413 LINE",
"386 270 LINE"
);
},
{
closed = 1;
nodes = (
"80 0 LINE",
"80 680 LINE",
"388 680 LINE SMOOTH",
"597 680 OFFCURVE",
"709 537 OFFCURVE",
"709 344 CURVE SMOOTH",
"709 132 OFFCURVE",
"575 0 OFFCURVE",
"384 0 CURVE SMOOTH"
);
},
{
closed = 1;
nodes = (
"262 537 LINE",
"262 143 LINE",
"372 143 LINE SMOOTH",
"456 143 OFFCURVE",
"521 209 OFFCURVE",
"521 344 CURVE SMOOTH",
"521 456 OFFCURVE",
"471 537 OFFCURVE",
"379 537 CURVE SMOOTH"
);
}
);
width = 739;
}
);
unicode = 0110;
},
{
glyphname = Lslash;
lastChange = "2015-05-10 21:47:43 +0000";
layers = (
{
layerId = "24C3257D-BF04-43D4-ADFB-51EF390723A7";
name = Light;
paths = (
{
closed = 1;
nodes = (
"534 0 LINE",
"514 101 LINE",
"214 101 LINE",
"214 305.506 LINE",
"370 423 LINE",
"320 514 LINE",
"214 433.911 LINE",
"214 680 LINE",
"85 680 LINE",
"85 336.445 LINE",
"5 276 LINE",
"54 185 LINE",
"85 208.348 LINE",
"85 0 LINE"
);
}
);
width = 556;
},
{
layerId = "12413328-B98D-4C90-AAAC-8248DDAE45D4";
name = Bold;
paths = (
{
closed = 1;
nodes = (
"568 0 LINE",
"551 143 LINE",
"262 143 LINE",
"262 290.8 LINE",
"467 414 LINE",
"394 547 LINE",
"262 466.259 LINE",
"262 680 LINE",
"80 680 LINE",
"80 354.934 LINE",
"0 306 LINE",
"56 167 LINE",
"80 181.423 LINE",
"80 0 LINE"
);
}
);
width = 578;
}
);
unicode = 0141;
},
{
glyphname = OE;
lastChange = "2015-05-10 21:39:18 +0000";
layers = (
{
layerId = "24C3257D-BF04-43D4-ADFB-51EF390723A7";
name = Light;
paths = (
{
closed = 1;
nodes = (
"503 557 LINE",
"444 574 OFFCURVE",
"418 585 OFFCURVE",
"359 585 CURVE SMOOTH",
"251 585 OFFCURVE",
"170 491 OFFCURVE",
"170 338 CURVE SMOOTH",
"170 206 OFFCURVE",
"235 95 OFFCURVE",
"351 95 CURVE SMOOTH",
"408 95 OFFCURVE",
"459 109 OFFCURVE",
"500 126 CURVE",
"549 30 LINE",
"497 3 OFFCURVE",
"414 -14 OFFCURVE",
"358 -14 CURVE SMOOTH",
"146 -14 OFFCURVE",
"35 141 OFFCURVE",
"35 337 CURVE SMOOTH",
"35 546 OFFCURVE",
"164 694 OFFCURVE",
"363 694 CURVE SMOOTH",
"403 694 OFFCURVE",
"484 682 OFFCURVE",
"543 650 CURVE"
);
},
{
closed = 1;
nodes = (
"490 0 LINE",
"490 680 LINE",
"896 680 LINE",
"916 578 LINE",
"619 578 LINE",
"619 395 LINE",
"841 395 LINE",
"862 292 LINE",
"619 292 LINE",
"619 101 LINE",
"945 101 LINE",
"966 0 LINE"
);
}
);
width = 986;
},
{
layerId = "12413328-B98D-4C90-AAAC-8248DDAE45D4";
name = Bold;
paths = (
{
closed = 1;
nodes = (
"525 514 LINE",
"453 539 OFFCURVE",
"426 544 OFFCURVE",
"381 544 CURVE SMOOTH",
"300 544 OFFCURVE",
"218 462 OFFCURVE",
"218 338 CURVE SMOOTH",
"218 210 OFFCURVE",
"303 136 OFFCURVE",
"388 136 CURVE SMOOTH",
"437 136 OFFCURVE",
"482 152 OFFCURVE",
"517 173 CURVE",
"586 37 LINE",
"533 5 OFFCURVE",
"452 -13 OFFCURVE",
"383 -13 CURVE SMOOTH",
"162 -13 OFFCURVE",
"30 132 OFFCURVE",
"30 337 CURVE SMOOTH",
"30 546 OFFCURVE",
"178 693 OFFCURVE",
"379 693 CURVE SMOOTH",
"447 693 OFFCURVE",
"526 673 OFFCURVE",
"579 637 CURVE"
);
},
{
closed = 1;
nodes = (
"514 0 LINE",
"514 680 LINE",
"965 680 LINE",
"982 537 LINE",
"696 537 LINE",
"696 413 LINE",
"905 413 LINE",
"922 270 LINE",
"696 270 LINE",
"696 143 LINE",
"995 143 LINE",
"1012 0 LINE"
);
}
);
width = 1032;
}
);
unicode = 0152;
},
{
glyphname = Oslash;
lastChange = "2015-05-10 22:52:17 +0000";
layers = (
{
layerId = "24C3257D-BF04-43D4-ADFB-51EF390723A7";
name = Light;
paths = (
{
closed = 1;
nodes = (
"322 52 LINE",
"215 123 LINE",
"423 622 LINE",
"531 549 LINE"
);
},
{
closed = 1;
nodes = (
"581 696 OFFCURVE",
"702 539 OFFCURVE",
"702 344 CURVE SMOOTH",
"702 133 OFFCURVE",
"567 -10 OFFCURVE",
"368 -14 CURVE SMOOTH",
"156 -14 OFFCURVE",
"35 142 OFFCURVE",
"35 337 CURVE SMOOTH",
"35 546 OFFCURVE",
"169 692 OFFCURVE",
"368 696 CURVE SMOOTH"
);
},
{
closed = 1;
nodes = (
"170 195 OFFCURVE",
"246 95 OFFCURVE",
"367 95 CURVE SMOOTH",
"476 95 OFFCURVE",
"567 175 OFFCURVE",
"567 344 CURVE SMOOTH",
"567 485 OFFCURVE",
"491 586 OFFCURVE",
"370 586 CURVE SMOOTH",
"263 586 OFFCURVE",
"170 490 OFFCURVE",
"170 338 CURVE SMOOTH"
);
}
);
width = 737;
},
{
layerId = "12413328-B98D-4C90-AAAC-8248DDAE45D4";
name = Bold;
paths = (
{
closed = 1;
nodes = (
"341 77 LINE",
"232 138 LINE",
"421 597 LINE",
"541 541 LINE"
);
},
{
closed = 1;
nodes = (
"602 694 OFFCURVE",
"733 539 OFFCURVE",
"733 344 CURVE SMOOTH",
"733 133 OFFCURVE",
"589 -14 OFFCURVE",
"381 -14 CURVE SMOOTH",
"164 -14 OFFCURVE",
"30 142 OFFCURVE",
"30 337 CURVE SMOOTH",
"30 546 OFFCURVE",
"177 694 OFFCURVE",
"381 694 CURVE SMOOTH"
);
},
{
closed = 1;
nodes = (
"217 223 OFFCURVE",
"277 138 OFFCURVE",
"380 138 CURVE SMOOTH",
"473 138 OFFCURVE",
"546 207 OFFCURVE",
"546 344 CURVE SMOOTH",
"546 457 OFFCURVE",
"484 542 OFFCURVE",
"383 542 CURVE SMOOTH",
"292 542 OFFCURVE",
"217 461 OFFCURVE",
"217 338 CURVE SMOOTH"
);
}
);
width = 763;
}
);
unicode = 00D8;
},
{
glyphname = germandbls;
lastChange = "2015-05-10 21:39:18 +0000";
layers = (
{
layerId = "24C3257D-BF04-43D4-ADFB-51EF390723A7";
name = Light;
paths = (
{
closed = 1;
nodes = (
"65 473 LINE SMOOTH",
"65 609 OFFCURVE",
"151 702 OFFCURVE",
"300 702 CURVE SMOOTH",
"439 702 OFFCURVE",
"547 636 OFFCURVE",
"547 508 CURVE SMOOTH",
"547 455 OFFCURVE",
"511 393 OFFCURVE",
"466 372 CURVE",
"529 356 OFFCURVE",
"596 284 OFFCURVE",
"596 195 CURVE SMOOTH",
"596 75 OFFCURVE",
"499 0 OFFCURVE",
"354 0 CURVE SMOOTH",
"254 0 LINE",
"254 107 LINE",
"345 107 LINE SMOOTH",
"406 107 OFFCURVE",
"459 146 OFFCURVE",
"459 199 CURVE SMOOTH",
"459 256 OFFCURVE",
"410 299 OFFCURVE",
"354 299 CURVE SMOOTH",
"260 299 LINE",
"260 403 LINE",
"295 403 LINE SMOOTH",
"367 403 OFFCURVE",
"411 447 OFFCURVE",
"411 499 CURVE SMOOTH",
"411 556 OFFCURVE",
"363 590 OFFCURVE",
"306 590 CURVE SMOOTH",
"241 590 OFFCURVE",
"194 544 OFFCURVE",
"194 471 CURVE SMOOTH",
"194 0 LINE",
"65 0 LINE"
);
}
);
width = 626;
},
{
layerId = "12413328-B98D-4C90-AAAC-8248DDAE45D4";
name = Bold;
paths = (
{
closed = 1;
nodes = (
"60 452 LINE SMOOTH",
"60 598 OFFCURVE",
"163 702 OFFCURVE",
"323 702 CURVE SMOOTH",
"480 702 OFFCURVE",
"596 624 OFFCURVE",
"596 503 CURVE SMOOTH",
"596 459 OFFCURVE",
"579 397 OFFCURVE",
"529 364 CURVE",
"586 341 OFFCURVE",
"630 269 OFFCURVE",
"630 200 CURVE SMOOTH",
"630 77 OFFCURVE",
"532 0 OFFCURVE",
"388 0 CURVE SMOOTH",
"295 0 LINE",
"295 149 LINE",
"371 149 LINE SMOOTH",
"411 149 OFFCURVE",
"445 173 OFFCURVE",
"445 214 CURVE SMOOTH",
"445 261 OFFCURVE",
"414 286 OFFCURVE",
"379 286 CURVE SMOOTH",
"300 286 LINE",
"300 416 LINE",
"327 416 LINE SMOOTH",
"374 416 OFFCURVE",
"414 453 OFFCURVE",
"414 485 CURVE SMOOTH",
"414 518 OFFCURVE",
"381 549 OFFCURVE",
"329 549 CURVE SMOOTH",
"290 549 OFFCURVE",
"242 518 OFFCURVE",
"242 457 CURVE SMOOTH",
"242 0 LINE",
"60 0 LINE"
);
}
);
width = 660;
}
);
unicode = 00DF;
},
{
glyphname = eth;
lastChange = "2015-05-10 21:39:18 +0000";
layers = (
{
layerId = "24C3257D-BF04-43D4-ADFB-51EF390723A7";
name = Light;
paths = (
{
closed = 1;
nodes = (
"543 93 OFFCURVE",
"441 -12 OFFCURVE",
"284 -12 CURVE SMOOTH",
"127 -12 OFFCURVE",
"25 87 OFFCURVE",
"25 242 CURVE SMOOTH",
"25 397 OFFCURVE",
"127 498 OFFCURVE",
"274 498 CURVE SMOOTH",
"358 498 OFFCURVE",
"436 452 OFFCURVE",
"482 402 CURVE",
"437 331 LINE",
"403 363 OFFCURVE",
"354 387 OFFCURVE",
"284 387 CURVE SMOOTH",
"211 387 OFFCURVE",
"159 325 OFFCURVE",
"159 242 CURVE SMOOTH",
"159 158 OFFCURVE",
"211 99 OFFCURVE",
"284 99 CURVE SMOOTH",
"357 99 OFFCURVE",
"409 161 OFFCURVE",
"409 244 CURVE SMOOTH",
"409 428 OFFCURVE",
"258 573 OFFCURVE",
"64 655 CURVE",
"114 749 LINE",
"333 686 OFFCURVE",
"543 473 OFFCURVE",
"543 270 CURVE SMOOTH"
);
},
{
closed = 1;
nodes = (
"54 577 LINE",
"367 742 LINE",
"417 653 LINE",
"105 485 LINE"
);
}
);
width = 568;
},
{
layerId = "12413328-B98D-4C90-AAAC-8248DDAE45D4";
name = Bold;
paths = (
{
closed = 1;
nodes = (
"570 91 OFFCURVE",
"458 -11 OFFCURVE",
"302 -11 CURVE SMOOTH",
"146 -11 OFFCURVE",
"20 72 OFFCURVE",
"20 245 CURVE SMOOTH",
"20 408 OFFCURVE",
"143 502 OFFCURVE",
"275 502 CURVE SMOOTH",
"348 502 OFFCURVE",
"469 453 OFFCURVE",
"517 391 CURVE",
"438 288 LINE",
"394 339 OFFCURVE",
"330 354 OFFCURVE",
"297 354 CURVE SMOOTH",
"240 354 OFFCURVE",
"208 313 OFFCURVE",
"208 245 CURVE SMOOTH",
"208 180 OFFCURVE",
"238 137 OFFCURVE",
"293 137 CURVE SMOOTH",
"350 137 OFFCURVE",
"382 172 OFFCURVE",
"382 240 CURVE SMOOTH",
"382 424 OFFCURVE",
"287 577 OFFCURVE",
"53 638 CURVE",
"114 750 LINE",
"409 684 OFFCURVE",
"570 463 OFFCURVE",
"570 254 CURVE SMOOTH"
);
},
{
closed = 1;
nodes = (
"56 580 LINE",
"412 752 LINE",
"466 642 LINE",
"106 474 LINE"
);
}
);
width = 590;
}
);
unicode = 00F0;
},
{
glyphname = thorn;
lastChange = "2015-05-10 21:39:18 +0000";
layers = (
{
layerId = "24C3257D-BF04-43D4-ADFB-51EF390723A7";
name = Light;
paths = (
{
closed = 1;
nodes = (
"251.582 498 OFFCURVE",
"219.926 489.298 OFFCURVE",
"190 473.755 CURVE",
"190 706 LINE",
"61 695 LINE",
"61 -219 LINE",
"190 -209 LINE",
"190 13.5042 LINE",
"220.261 -1.9508 OFFCURVE",
"252.427 -12 OFFCURVE",
"277 -12 CURVE SMOOTH",
"434 -12 OFFCURVE",
"525 92 OFFCURVE",
"525 244 CURVE SMOOTH",
"525 399 OFFCURVE",
"432 498 OFFCURVE",
"281 498 CURVE SMOOTH"
);
},
{
closed = 1;
nodes = (
"245.792 99 OFFCURVE",
"218.739 106.661 OFFCURVE",
"190 127.124 CURVE",
"190 358.166 LINE",
"218.739 377.086 OFFCURVE",
"245.792 387 OFFCURVE",
"276 387 CURVE SMOOTH",
"349 387 OFFCURVE",
"391 328 OFFCURVE",
"391 244 CURVE SMOOTH",
"391 161 OFFCURVE",
"349 99 OFFCURVE",
"276 99 CURVE SMOOTH"
);
}
);
width = 550;
},
{
layerId = "12413328-B98D-4C90-AAAC-8248DDAE45D4";
name = Bold;
paths = (
{
closed = 1;
nodes = (
"289.445 502 OFFCURVE",
"263.861 495.714 OFFCURVE",
"238 485.545 CURVE",
"238 706 LINE",
"56 695 LINE",
"56 -219 LINE",
"238 -209 LINE",
"238 2.4874 LINE",
"262.951 -6.8227 OFFCURVE",
"285.65 -11 OFFCURVE",
"302 -11 CURVE SMOOTH",
"455 -11 OFFCURVE",
"559 76 OFFCURVE",
"559 249 CURVE SMOOTH",
"559 422 OFFCURVE",
"453 502 OFFCURVE",
"310 502 CURVE SMOOTH"
);
},
{
closed = 1;
nodes = (
"273.131 129 OFFCURVE",
"255.798 133.647 OFFCURVE",
"238 142.49 CURVE",
"238 347.196 LINE",
"253.097 356.697 OFFCURVE",
"267.548 362 OFFCURVE",
"282 362 CURVE SMOOTH",
"339 362 OFFCURVE",
"371 322 OFFCURVE",
"371 248 CURVE SMOOTH",
"371 173 OFFCURVE",
"335 129 OFFCURVE",
"290 129 CURVE SMOOTH"
);
}
);
width = 579;
}
);
unicode = 00FE;
},
{
glyphname = florin;
lastChange = "2015-05-10 21:47:57 +0000";
layers = (
{
layerId = "24C3257D-BF04-43D4-ADFB-51EF390723A7";
name = Light;
paths = (
{
closed = 1;
nodes = (
"156 484 LINE",
"156 521 LINE SMOOTH",
"156 633 OFFCURVE",
"225 702 OFFCURVE",
"345 702 CURVE SMOOTH",
"376 702 OFFCURVE",
"421 688 OFFCURVE",
"442 671 CURVE",
"405 577 LINE",
"385 585 OFFCURVE",
"367 590 OFFCURVE",
"351 590 CURVE SMOOTH",
"306 590 OFFCURVE",
"286 554 OFFCURVE",
"286 503 CURVE SMOOTH",
"286 484 LINE",
"378 484 LINE",
"419 384 LINE",
"286 384 LINE",
"286 58 LINE SMOOTH",
"286 -54 OFFCURVE",
"217 -123 OFFCURVE",
"97 -123 CURVE SMOOTH",
"66 -123 OFFCURVE",
"21 -109 OFFCURVE",
"0 -92 CURVE",
"37 2 LINE",
"57 -6 OFFCURVE",
"75 -11 OFFCURVE",
"91 -11 CURVE SMOOTH",
"136 -11 OFFCURVE",
"156 25 OFFCURVE",
"156 76 CURVE SMOOTH",
"156 384 LINE",
"81 384 LINE",
"81 484 LINE"
);
}
);
width = 442;
},
{
layerId = "12413328-B98D-4C90-AAAC-8248DDAE45D4";
name = Bold;
paths = (
{
closed = 1;
nodes = (
"189 451 LINE",
"189 510 LINE SMOOTH",
"189 639 OFFCURVE",
"302 703 OFFCURVE",
"426 703 CURVE SMOOTH",
"473 703 OFFCURVE",
"536 681 OFFCURVE",
"560 660 CURVE",
"508 536 LINE",
"485 549 OFFCURVE",
"455 555 OFFCURVE",
"438 555 CURVE SMOOTH",
"395 555 OFFCURVE",
"371 530 OFFCURVE",
"371 490 CURVE SMOOTH",
"371 451 LINE",
"505 451 LINE",
"522 308 LINE",
"371 308 LINE",
"371 70 LINE SMOOTH",
"371 -59 OFFCURVE",
"258 -123 OFFCURVE",
"134 -123 CURVE SMOOTH",
"87 -123 OFFCURVE",
"24 -101 OFFCURVE",
"0 -80 CURVE",
"52 44 LINE",
"75 31 OFFCURVE",
"105 25 OFFCURVE",
"122 25 CURVE SMOOTH",
"165 25 OFFCURVE",
"189 50 OFFCURVE",
"189 90 CURVE SMOOTH",
"189 308 LINE",
"109 308 LINE",
"109 451 LINE"
);
}
);
width = 560;
}
);
unicode = 0192;
},
{
glyphname = ae;
lastChange = "2015-05-10 21:48:14 +0000";
layers = (
{
layerId = "24C3257D-BF04-43D4-ADFB-51EF390723A7";
name = Light;
paths = (
{
closed = 1;
nodes = (
"403 78 LINE",
"367 43 OFFCURVE",
"318 -12 OFFCURVE",
"217 -12 CURVE SMOOTH",
"98 -12 OFFCURVE",
"42 52 OFFCURVE",
"42 145 CURVE SMOOTH",
"42 245 OFFCURVE",
"117 300 OFFCURVE",
"226 300 CURVE SMOOTH",
"321 300 LINE",
"320 349 OFFCURVE",
"291 378 OFFCURVE",
"243 378 CURVE SMOOTH",
"198 378 OFFCURVE",
"138 363 OFFCURVE",
"102 346 CURVE",
"67 454 LINE",
"104 479 OFFCURVE",
"200 498 OFFCURVE",
"241 498 CURVE SMOOTH",
"357 498 OFFCURVE",
"452 423 OFFCURVE",
"452 319 CURVE SMOOTH",
"452 213 LINE",
"224 213 LINE SMOOTH",
"179 213 OFFCURVE",
"153 180 OFFCURVE",
"153 145 CURVE SMOOTH",
"153 117 OFFCURVE",
"178 91 OFFCURVE",
"215 91 CURVE SMOOTH",
"289 91 OFFCURVE",
"320 122 OFFCURVE",
"353 161 CURVE"
);
},
{
closed = 1;
nodes = (
"461 204 LINE",
"473 140 OFFCURVE",
"511 99 OFFCURVE",
"607 99 CURVE SMOOTH",
"664 99 OFFCURVE",
"705 117 OFFCURVE",
"748 142 CURVE",
"786 48 LINE",
"741 13 OFFCURVE",
"688 -12 OFFCURVE",
"604 -12 CURVE SMOOTH",
"416 -12 OFFCURVE",
"323 87 OFFCURVE",
"323 242 CURVE SMOOTH",
"323 397 OFFCURVE",
"416 498 OFFCURVE",
"567 498 CURVE SMOOTH",
"719 498 OFFCURVE",
"788 381 OFFCURVE",
"788 244 CURVE SMOOTH",
"788 204 LINE"
);
},
{
closed = 1;
nodes = (
"665 291 LINE",
"652 356 OFFCURVE",
"616 387 OFFCURVE",
"564 387 CURVE SMOOTH",
"511 387 OFFCURVE",
"473 354 OFFCURVE",
"462 291 CURVE"
);
}
);
width = 813;
},
{
layerId = "12413328-B98D-4C90-AAAC-8248DDAE45D4";
name = Bold;
paths = (
{
closed = 1;
nodes = (
"376 54 LINE",
"347 25 OFFCURVE",
"304 -11 OFFCURVE",
"214 -11 CURVE SMOOTH",
"91 -11 OFFCURVE",
"32 56 OFFCURVE",
"32 156 CURVE SMOOTH",
"32 261 OFFCURVE",
"110 298 OFFCURVE",
"222 298 CURVE SMOOTH",
"280 298 LINE",
"275 337 OFFCURVE",
"250 354 OFFCURVE",
"217 354 CURVE SMOOTH",
"184 354 OFFCURVE",
"133 341 OFFCURVE",
"96 325 CURVE",
"48 456 LINE",
"99 479 OFFCURVE",
"182 502 OFFCURVE",
"262 502 CURVE SMOOTH",
"394 502 OFFCURVE",
"463 423 OFFCURVE",
"463 300 CURVE SMOOTH",
"463 198 LINE",
"225 198 LINE SMOOTH",
"201 198 OFFCURVE",
"184 182 OFFCURVE",
"184 159 CURVE SMOOTH",
"184 139 OFFCURVE",
"198 125 OFFCURVE",
"217 125 CURVE SMOOTH",
"260 125 OFFCURVE",
"285 146 OFFCURVE",
"306 163 CURVE"
);
},
{
closed = 1;
nodes = (
"478 197 LINE",
"491 157 OFFCURVE",
"526 131 OFFCURVE",
"588 131 CURVE SMOOTH",
"646 131 OFFCURVE",
"692 149 OFFCURVE",
"721 164 CURVE",
"772 41 LINE",
"733 13 OFFCURVE",
"651 -11 OFFCURVE",
"570 -11 CURVE SMOOTH",
"403 -11 OFFCURVE",
"280 77 OFFCURVE",
"280 242 CURVE SMOOTH",
"280 405 OFFCURVE",
"394 502 OFFCURVE",
"541 502 CURVE SMOOTH",
"696 502 OFFCURVE",
"773 386 OFFCURVE",
"773 250 CURVE SMOOTH",
"773 197 LINE"
);
},
{
closed = 1;
nodes = (
"599 287 LINE",
"599 315 OFFCURVE",
"581 356 OFFCURVE",
"536 356 CURVE SMOOTH",
"503 356 OFFCURVE",
"472 324 OFFCURVE",
"473 287 CURVE"
);
}
);
width = 793;
}
);
unicode = 00E6;
},
{
glyphname = dcroat;
lastChange = "2015-05-10 22:54:31 +0000";
layers = (
{
layerId = "24C3257D-BF04-43D4-ADFB-51EF390723A7";
name = Light;
paths = (
{
closed = 1;
nodes = (
"357 121 OFFCURVE",
"319 99 OFFCURVE",
"274 99 CURVE SMOOTH",
"201 99 OFFCURVE",
"159 158 OFFCURVE",
"159 242 CURVE SMOOTH",
"159 325 OFFCURVE",
"201 387 OFFCURVE",
"274 387 CURVE SMOOTH",
"319 387 OFFCURVE",
"357 370 OFFCURVE",
"404 319 CURVE",
"441 407 LINE",
"411 453 OFFCURVE",
"325 498 OFFCURVE",
"273 498 CURVE SMOOTH",
"116 498 OFFCURVE",
"25 394 OFFCURVE",
"25 242 CURVE SMOOTH",
"25 87 OFFCURVE",
"118 -12 OFFCURVE",
"269 -12 CURVE SMOOTH",
"328 -12 OFFCURVE",
"396 23 OFFCURVE",
"441 78 CURVE",
"404 162 LINE"
);
},
{
closed = 1;
nodes = (
"577 545 LINE",
"566 640 LINE",
"507 640 LINE",
"507 706 LINE",
"376 695 LINE",
"376 640 LINE",
"304 640 LINE",
"316 545 LINE",
"376 545 LINE",
"376 91 LINE",
"439 0 LINE",
"507 0 LINE",
"507 545 LINE"
);
}
);
width = 572;
},
{
layerId = "12413328-B98D-4C90-AAAC-8248DDAE45D4";
name = Bold;
paths = (
{
closed = 1;
nodes = (
"361 155 OFFCURVE",
"329 129 OFFCURVE",
"297 129 CURVE SMOOTH",
"240 129 OFFCURVE",
"208 169 OFFCURVE",
"208 243 CURVE SMOOTH",
"208 318 OFFCURVE",
"244 362 OFFCURVE",
"289 362 CURVE SMOOTH",
"324 362 OFFCURVE",
"361 342 OFFCURVE",
"400 306 CURVE",
"451 413 LINE",
"395 477 OFFCURVE",
"317 502 OFFCURVE",
"277 502 CURVE SMOOTH",
"124 502 OFFCURVE",
"20 415 OFFCURVE",
"20 242 CURVE SMOOTH",
"20 69 OFFCURVE",
"126 -11 OFFCURVE",
"269 -11 CURVE SMOOTH",
"324 -11 OFFCURVE",
"415 34 OFFCURVE",
"451 78 CURVE",
"400 195 LINE"
);
},
{
closed = 1;
nodes = (
"583 550 LINE",
"566 663 LINE",
"523 663 LINE",
"523 706 LINE",
"341 695 LINE",
"341 663 LINE",
"237 663 LINE",
"254 550 LINE",
"341 550 LINE",
"341 117 LINE",
"431 0 LINE",
"523 0 LINE",
"523 550 LINE"
);
}
);
width = 583;
}
);
unicode = 0111;
},
{
glyphname = oe;
lastChange = "2015-05-10 21:49:09 +0000";
layers = (
{
layerId = "24C3257D-BF04-43D4-ADFB-51EF390723A7";
name = Light;
paths = (
{
closed = 1;
nodes = (
"451 38 LINE",
"406 3 OFFCURVE",
"324 -12 OFFCURVE",
"283 -12 CURVE SMOOTH",
"126 -12 OFFCURVE",
"25 87 OFFCURVE",
"25 242 CURVE SMOOTH",
"25 397 OFFCURVE",
"126 498 OFFCURVE",
"283 498 CURVE SMOOTH",
"324 498 OFFCURVE",
"403 480 OFFCURVE",
"451 447 CURVE",
"414 354 LINE",
"367 375 OFFCURVE",
"329 387 OFFCURVE",
"284 387 CURVE SMOOTH",
"211 387 OFFCURVE",
"159 325 OFFCURVE",
"159 242 CURVE SMOOTH",
"159 158 OFFCURVE",
"211 99 OFFCURVE",
"284 99 CURVE SMOOTH",
"329 99 OFFCURVE",
"367 111 OFFCURVE",
"414 132 CURVE"
);
},
{
closed = 1;
nodes = (
"490 204 LINE",
"502 140 OFFCURVE",
"540 99 OFFCURVE",
"636 99 CURVE SMOOTH",
"693 99 OFFCURVE",
"734 117 OFFCURVE",
"777 142 CURVE",
"815 48 LINE",
"770 13 OFFCURVE",
"717 -12 OFFCURVE",
"633 -12 CURVE SMOOTH",
"445 -12 OFFCURVE",
"352 87 OFFCURVE",
"352 242 CURVE SMOOTH",
"352 397 OFFCURVE",
"445 498 OFFCURVE",
"596 498 CURVE SMOOTH",
"748 498 OFFCURVE",
"817 381 OFFCURVE",
"817 244 CURVE SMOOTH",
"817 204 LINE"
);
},
{
closed = 1;
nodes = (
"694 291 LINE",
"681 356 OFFCURVE",
"645 387 OFFCURVE",
"593 387 CURVE SMOOTH",
"540 387 OFFCURVE",
"502 354 OFFCURVE",
"491 291 CURVE"
);
}
);
width = 842;
},
{
layerId = "12413328-B98D-4C90-AAAC-8248DDAE45D4";
name = Bold;
paths = (
{
closed = 1;
nodes = (
"451 38 LINE",
"395 -6 OFFCURVE",
"325 -11 OFFCURVE",
"285 -11 CURVE SMOOTH",
"128 -11 OFFCURVE",
"20 79 OFFCURVE",
"20 242 CURVE SMOOTH",
"20 405 OFFCURVE",
"128 502 OFFCURVE",
"285 502 CURVE SMOOTH",
"325 502 OFFCURVE",
"395 497 OFFCURVE",
"451 453 CURVE",
"400 328 LINE",
"361 348 OFFCURVE",
"338 354 OFFCURVE",
"303 354 CURVE SMOOTH",
"254 354 OFFCURVE",
"208 311 OFFCURVE",
"208 242 CURVE SMOOTH",
"208 174 OFFCURVE",
"254 137 OFFCURVE",
"303 137 CURVE SMOOTH",
"335 137 OFFCURVE",
"361 143 OFFCURVE",
"400 163 CURVE"
);
},
{
closed = 1;
nodes = (
"541 197 LINE",
"554 157 OFFCURVE",
"589 131 OFFCURVE",
"651 131 CURVE SMOOTH",
"709 131 OFFCURVE",
"755 149 OFFCURVE",
"784 164 CURVE",
"835 41 LINE",
"796 13 OFFCURVE",
"714 -11 OFFCURVE",
"633 -11 CURVE SMOOTH",
"466 -11 OFFCURVE",
"343 77 OFFCURVE",
"343 242 CURVE SMOOTH",
"343 405 OFFCURVE",
"457 502 OFFCURVE",
"604 502 CURVE SMOOTH",
"759 502 OFFCURVE",
"836 386 OFFCURVE",
"836 250 CURVE SMOOTH",
"836 197 LINE"
);
},
{
closed = 1;
nodes = (
"662 287 LINE",
"662 315 OFFCURVE",
"644 356 OFFCURVE",
"599 356 CURVE SMOOTH",
"566 356 OFFCURVE",
"535 324 OFFCURVE",
"536 287 CURVE"
);
}
);
width = 856;
}
);
unicode = 0153;
},
{
glyphname = lacute;
lastChange = "2015-05-10 21:39:18 +0000";
layers = (
{
layerId = "24C3257D-BF04-43D4-ADFB-51EF390723A7";
name = Light;
paths = (
{
closed = 1;
nodes = (
"65 0 LINE",
"65 673 LINE",
"194 685 LINE",
"194 0 LINE"
);
},
{
closed = 1;
nodes = (
"87 764 LINE",
"138 903 LINE",
"272 903 LINE",
"177 739 LINE"
);
}
);
width = 259;
},
{
layerId = "12413328-B98D-4C90-AAAC-8248DDAE45D4";
name = Bold;
paths = (
{
closed = 1;
nodes = (
"60 0 LINE",
"60 695 LINE",
"242 706 LINE",
"242 0 LINE"
);
},
{
closed = 1;
nodes = (
"84 755 LINE",
"150 932 LINE",
"330 932 LINE",
"216 733 LINE"
);
}
);
width = 302;
}
);
unicode = 013A;
},
{
glyphname = lslash;
lastChange = "2015-05-10 22:54:22 +0000";
layers = (
{
layerId = "24C3257D-BF04-43D4-ADFB-51EF390723A7";
name = Light;
paths = (
{
closed = 1;
nodes = (
"366 445 LINE",
"248 356 LINE",
"248 0 LINE",
"119 0 LINE",
"119 257 LINE",
"50 206 LINE",
"0 296 LINE",
"119 386 LINE",
"119 695 LINE",
"248 706 LINE",
"248 484 LINE",
"315 535 LINE"
);
}
);
width = 366;
},
{
layerId = "12413328-B98D-4C90-AAAC-8248DDAE45D4";
name = Bold;
paths = (
{
closed = 1;
nodes = (
"386 395 LINE",
"280 322 LINE",
"280 0 LINE",
"98 0 LINE",
"98 196 LINE",
"40 156 LINE",
"0 316 LINE",
"98 384 LINE",
"98 695 LINE",
"280 706 LINE",
"280 510 LINE",
"345 555 LINE"
);
}
);
width = 386;
}
);
unicode = 0142;
},
{
glyphname = dotlessi;
lastChange = "2015-05-10 21:39:18 +0000";
layers = (
{
anchors = (
{
name = top;
position = "{120, 485}";
}
);
layerId = "24C3257D-BF04-43D4-ADFB-51EF390723A7";
name = Light;
paths = (
{
closed = 1;
nodes = (
"55 0 LINE",
"55 485 LINE",
"185 485 LINE",
"185 0 LINE"
);
}
);
width = 240;
},
{
anchors = (
{
name = top;
position = "{143, 485}";
}
);
layerId = "12413328-B98D-4C90-AAAC-8248DDAE45D4";
name = Bold;
paths = (
{
closed = 1;
nodes = (
"50 0 LINE",
"50 485 LINE",
"232 485 LINE",
"232 0 LINE"
);
}
);
width = 282;
}
);
unicode = 0131;
},
{
glyphname = oslash;
lastChange = "2015-05-10 22:58:20 +0000";
layers = (
{
layerId = "24C3257D-BF04-43D4-ADFB-51EF390723A7";
name = Light;
paths = (
{
closed = 1;
nodes = (
"248 76 LINE",
"404 339 LINE",
"314 397 LINE",
"155 118 LINE"
);
},
{
closed = 1;
nodes = (
"543 399 OFFCURVE",
"441 498 OFFCURVE",
"284 498 CURVE SMOOTH",
"127 498 OFFCURVE",
"25 397 OFFCURVE",
"25 242 CURVE SMOOTH",
"25 87 OFFCURVE",
"127 -12 OFFCURVE",
"284 -12 CURVE SMOOTH",
"441 -12 OFFCURVE",
"543 89 OFFCURVE",
"543 244 CURVE SMOOTH"
);
},
{
closed = 1;
nodes = (
"211 99 OFFCURVE",
"159 158 OFFCURVE",
"159 242 CURVE SMOOTH",
"159 325 OFFCURVE",
"211 387 OFFCURVE",
"284 387 CURVE SMOOTH",
"357 387 OFFCURVE",
"409 328 OFFCURVE",
"409 244 CURVE SMOOTH",
"409 161 OFFCURVE",
"357 99 OFFCURVE",
"284 99 CURVE SMOOTH"
);
}
);
width = 568;
},
{
layerId = "12413328-B98D-4C90-AAAC-8248DDAE45D4";
name = Bold;
paths = (
{
closed = 1;
nodes = (
"263 91 LINE",
"400 333 LINE",
"315 378 LINE",
"187 143 LINE"
);
},
{
closed = 1;
nodes = (
"570 413 OFFCURVE",
"455 502 OFFCURVE",
"295 502 CURVE SMOOTH",
"143 502 OFFCURVE",
"20 408 OFFCURVE",
"20 245 CURVE SMOOTH",
"20 72 OFFCURVE",
"135 -11 OFFCURVE",
"291 -11 CURVE SMOOTH",
"447 -11 OFFCURVE",
"570 77 OFFCURVE",
"570 240 CURVE SMOOTH"
);
},
{
closed = 1;
nodes = (
"238 137 OFFCURVE",
"208 180 OFFCURVE",
"208 245 CURVE SMOOTH",
"208 313 OFFCURVE",
"240 354 OFFCURVE",
"297 354 CURVE SMOOTH",
"352 354 OFFCURVE",
"382 305 OFFCURVE",
"382 240 CURVE SMOOTH",
"382 172 OFFCURVE",
"350 137 OFFCURVE",
"293 137 CURVE SMOOTH"
);
}
);
width = 590;
}
);
unicode = 00F8;
},
{
glyphname = dcaron;
lastChange = "2015-05-10 21:39:18 +0000";
layers = (
{
components = (
{
name = d;
transform = "{1, 0, 0, 1, 0, 0}";
}
);
layerId = "24C3257D-BF04-43D4-ADFB-51EF390723A7";
name = Light;
paths = (
{
closed = 1;
nodes = (
"702 742 OFFCURVE",
"737 706 OFFCURVE",
"737 653 CURVE SMOOTH",
"737 578 OFFCURVE",
"681 486 OFFCURVE",
"605 443 CURVE",
"577 504 LINE",
"610 533 OFFCURVE",
"635 554 OFFCURVE",
"644 597 CURVE",
"621 597 OFFCURVE",
"588 632 OFFCURVE",
"588 668 CURVE SMOOTH",
"588 703 OFFCURVE",
"620 742 OFFCURVE",
"661 742 CURVE SMOOTH"
);
}
);
width = 767;
},
{
components = (
{
name = d;
transform = "{1, 0, 0, 1, 0, 0}";
}
);
layerId = "12413328-B98D-4C90-AAAC-8248DDAE45D4";
name = Bold;
paths = (
{
closed = 1;
nodes = (
"725 742 OFFCURVE",
"766 699 OFFCURVE",
"766 635 CURVE SMOOTH",
"766 556 OFFCURVE",
"697 474 OFFCURVE",
"609 441 CURVE",
"573 521 LINE",
"592 532 OFFCURVE",
"620 555 OFFCURVE",
"625 572 CURVE",
"601 587 OFFCURVE",
"582 617 OFFCURVE",
"582 650 CURVE SMOOTH",
"582 695 OFFCURVE",
"622 742 OFFCURVE",
"674 742 CURVE SMOOTH"
);
}
);
width = 796;
}
);
unicode = 010F;
},
{
glyphname = lcaron;
lastChange = "2015-05-10 21:39:18 +0000";
layers = (
{
components = (
{
name = l;
transform = "{1, 0, 0, 1, 0, 0}";
}
);
layerId = "24C3257D-BF04-43D4-ADFB-51EF390723A7";
name = Light;
paths = (
{
closed = 1;
nodes = (
"387 742 OFFCURVE",
"422 706 OFFCURVE",
"422 653 CURVE SMOOTH",
"422 578 OFFCURVE",
"366 486 OFFCURVE",
"290 443 CURVE",
"262 504 LINE",
"295 533 OFFCURVE",
"320 554 OFFCURVE",
"329 597 CURVE",
"306 597 OFFCURVE",
"273 632 OFFCURVE",
"273 668 CURVE SMOOTH",
"273 703 OFFCURVE",
"305 742 OFFCURVE",
"346 742 CURVE SMOOTH"
);
}
);
width = 452;
},
{
components = (
{
name = l;
transform = "{1, 0, 0, 1, 0, 0}";
}
);
layerId = "12413328-B98D-4C90-AAAC-8248DDAE45D4";
name = Bold;
paths = (
{
closed = 1;
nodes = (
"443 742 OFFCURVE",
"484 699 OFFCURVE",
"484 635 CURVE SMOOTH",
"484 556 OFFCURVE",
"415 474 OFFCURVE",
"327 441 CURVE",
"291 521 LINE",
"310 532 OFFCURVE",
"338 555 OFFCURVE",
"343 572 CURVE",
"319 587 OFFCURVE",
"300 617 OFFCURVE",
"300 650 CURVE SMOOTH",
"300 695 OFFCURVE",
"340 742 OFFCURVE",
"392 742 CURVE SMOOTH"
);
}
);
width = 514;
}
);
unicode = 013E;
},
{
glyphname = tcaron;
lastChange = "2015-05-10 21:39:18 +0000";
layers = (
{
components = (
{
name = t;
transform = "{1, 0, 0, 1, 0, 0}";
}
);
layerId = "24C3257D-BF04-43D4-ADFB-51EF390723A7";
name = Light;
paths = (
{
closed = 1;
nodes = (
"485 742 OFFCURVE",
"520 706 OFFCURVE",
"520 653 CURVE SMOOTH",
"520 578 OFFCURVE",
"464 486 OFFCURVE",
"388 443 CURVE",
"360 504 LINE",
"393 533 OFFCURVE",
"418 554 OFFCURVE",
"427 597 CURVE",
"404 597 OFFCURVE",
"371 632 OFFCURVE",
"371 668 CURVE SMOOTH",
"371 703 OFFCURVE",
"403 742 OFFCURVE",
"444 742 CURVE SMOOTH"
);
}
);
width = 550;
},
{
components = (
{
name = t;
transform = "{1, 0, 0, 1, 0, 0}";
}
);
layerId = "12413328-B98D-4C90-AAAC-8248DDAE45D4";
name = Bold;
paths = (
{
closed = 1;
nodes = (
"570 742 OFFCURVE",
"611 699 OFFCURVE",
"611 635 CURVE SMOOTH",
"611 556 OFFCURVE",
"542 474 OFFCURVE",
"454 441 CURVE",
"418 521 LINE",
"437 532 OFFCURVE",
"465 555 OFFCURVE",
"470 572 CURVE",
"446 587 OFFCURVE",
"427 617 OFFCURVE",
"427 650 CURVE SMOOTH",
"427 695 OFFCURVE",
"467 742 OFFCURVE",
"519 742 CURVE SMOOTH"
);
}
);
width = 641;
}
);
unicode = 0165;
},
{
glyphname = mu;
lastChange = "2015-05-10 21:49:26 +0000";
layers = (
{
layerId = "24C3257D-BF04-43D4-ADFB-51EF390723A7";
name = Light;
paths = (
{
closed = 1;
nodes = (
"61 -219 LINE",
"61 316 LINE",
"191 350 LINE",
"191 -209 LINE"
);
},
{
closed = 1;
nodes = (
"521 485 LINE",
"521 0 LINE",
"436 0 LINE",
"414 52 LINE",
"352 8 OFFCURVE",
"279 -16 OFFCURVE",
"227 -16 CURVE SMOOTH",
"95 -16 OFFCURVE",
"61 69 OFFCURVE",
"61 181 CURVE SMOOTH",
"61 485 LINE",
"191 485 LINE",
"191 187 LINE SMOOTH",
"191 126 OFFCURVE",
"218 92 OFFCURVE",
"261 92 CURVE SMOOTH",
"312 92 OFFCURVE",
"358 125 OFFCURVE",
"391 149 CURVE",
"391 485 LINE"
);
}
);
width = 576;
},
{
layerId = "12413328-B98D-4C90-AAAC-8248DDAE45D4";
name = Bold;
paths = (
{
closed = 1;
nodes = (
"56 -219 LINE",
"56 389 LINE",
"238 393 LINE",
"238 -209 LINE"
);
},
{
closed = 1;
nodes = (
"570 484 LINE",
"570 -1 LINE",
"462 -1 LINE",
"430 49 LINE",
"382 19 OFFCURVE",
"310 -17 OFFCURVE",
"232 -17 CURVE SMOOTH",
"109 -17 OFFCURVE",
"56 63 OFFCURVE",
"56 171 CURVE SMOOTH",
"56 484 LINE",
"238 484 LINE",
"238 188 LINE SMOOTH",
"238 158 OFFCURVE",
"250 130 OFFCURVE",
"290 130 CURVE SMOOTH",
"313 130 OFFCURVE",
"359 145 OFFCURVE",
"388 158 CURVE",
"388 484 LINE"
);
}
);
width = 620;
}
);
unicode = 00B5;
},
{
glyphname = uni02C9;
lastChange = "2015-05-10 21:39:18 +0000";
layers = (
{
layerId = "24C3257D-BF04-43D4-ADFB-51EF390723A7";
name = Light;
paths = (
{
closed = 1;
nodes = (
"10 716 LINE",
"262 716 LINE",
"272 613 LINE",
"10 613 LINE"
);
}
);
width = 282;
},
{
layerId = "12413328-B98D-4C90-AAAC-8248DDAE45D4";
name = Bold;
paths = (
{
closed = 1;
nodes = (
"10 756 LINE",
"290 756 LINE",
"300 613 LINE",
"10 613 LINE"
);
}
);
width = 310;
}
);
unicode = 02C9;
},
{
glyphname = litre;
lastChange = "2015-05-10 21:50:16 +0000";
layers = (
{
layerId = "24C3257D-BF04-43D4-ADFB-51EF390723A7";
name = Light;
paths = (
{
closed = 1;
nodes = (
"10 271 LINE",
"31 284 OFFCURVE",
"56 300 OFFCURVE",
"79 317 CURVE",
"79 549 LINE SMOOTH",
"79 645 OFFCURVE",
"153 702 OFFCURVE",
"238 702 CURVE SMOOTH",
"319 702 OFFCURVE",
"385 647 OFFCURVE",
"385 555 CURVE SMOOTH",
"385 462 OFFCURVE",
"306 356 OFFCURVE",
"210 272 CURVE",
"210 179 LINE SMOOTH",
"210 135 OFFCURVE",
"221 101 OFFCURVE",
"257 101 CURVE SMOOTH",
"269 101 OFFCURVE",
"294 101 OFFCURVE",
"323 125 CURVE",
"367 42 LINE",
"327 7 OFFCURVE",
"282 -10 OFFCURVE",
"243 -10 CURVE SMOOTH",
"123 -10 OFFCURVE",
"79 62 OFFCURVE",
"79 167 CURVE SMOOTH",
"79 174 LINE",
"67 167 OFFCURVE",
"56 159 OFFCURVE",
"42 153 CURVE"
);
},
{
closed = 1;
nodes = (
"257 572 OFFCURVE",
"248 588 OFFCURVE",
"233 588 CURVE SMOOTH",
"219 588 OFFCURVE",
"210 572 OFFCURVE",
"210 542 CURVE SMOOTH",
"210 433 LINE",
"239 468 OFFCURVE",
"257 507 OFFCURVE",
"257 548 CURVE SMOOTH"
);
}
);
width = 415;
},
{
layerId = "12413328-B98D-4C90-AAAC-8248DDAE45D4";
name = Bold;
paths = (
{
closed = 1;
nodes = (
"10 312 LINE",
"27 317 OFFCURVE",
"85 341 OFFCURVE",
"107 350 CURVE",
"107 532 LINE SMOOTH",
"107 635 OFFCURVE",
"201 702 OFFCURVE",
"300 702 CURVE SMOOTH",
"407 702 OFFCURVE",
"484 643 OFFCURVE",
"484 544 CURVE SMOOTH",
"484 440 OFFCURVE",
"394 346 OFFCURVE",
"289 275 CURVE",
"289 185 LINE SMOOTH",
"289 148 OFFCURVE",
"311 137 OFFCURVE",
"356 137 CURVE SMOOTH",
"373 137 OFFCURVE",
"403 143 OFFCURVE",
"426 156 CURVE",
"478 32 LINE",
"454 11 OFFCURVE",
"391 -11 OFFCURVE",
"344 -11 CURVE SMOOTH",
"220 -11 OFFCURVE",
"107 26 OFFCURVE",
"107 155 CURVE SMOOTH",
"107 181 LINE",
"97 178 OFFCURVE",
"60 165 OFFCURVE",
"51 162 CURVE"
);
},
{
closed = 1;
nodes = (
"323 551 OFFCURVE",
"316 560 OFFCURVE",
"303 560 CURVE SMOOTH",
"288 560 OFFCURVE",
"283 543 OFFCURVE",
"283 527 CURVE SMOOTH",
"283 440 LINE",
"306 469 OFFCURVE",
"323 503 OFFCURVE",
"323 539 CURVE SMOOTH"
);
}
);
width = 514;
}
);
unicode = 2113;
},
{
glyphname = Ohm;
lastChange = "2015-05-10 21:50:34 +0000";
layers = (
{
layerId = "24C3257D-BF04-43D4-ADFB-51EF390723A7";
name = Light;
paths = (
{
closed = 1;
nodes = (
"532 495 OFFCURVE",
"461 586 OFFCURVE",
"353 586 CURVE SMOOTH",
"246 586 OFFCURVE",
"175 495 OFFCURVE",
"175 344 CURVE SMOOTH",
"175 236 OFFCURVE",
"213 138 OFFCURVE",
"280 105 CURVE",
"280 0 LINE",
"40 0 LINE",
"35 105 LINE",
"121 105 LINE",
"68 161 OFFCURVE",
"40 259 OFFCURVE",
"40 348 CURVE SMOOTH",
"40 557 OFFCURVE",
"154 696 OFFCURVE",
"353 696 CURVE SMOOTH",
"552 696 OFFCURVE",
"667 557 OFFCURVE",
"667 348 CURVE SMOOTH",
"667 259 OFFCURVE",
"639 161 OFFCURVE",
"586 105 CURVE",
"672 105 LINE",
"666 0 LINE",
"427 0 LINE",
"427 105 LINE",
"495 138 OFFCURVE",
"532 236 OFFCURVE",
"532 344 CURVE SMOOTH"
);
}
);
width = 707;
},
{
layerId = "12413328-B98D-4C90-AAAC-8248DDAE45D4";
name = Bold;
paths = (
{
closed = 1;
nodes = (
"509 461 OFFCURVE",
"454 542 OFFCURVE",
"363 542 CURVE SMOOTH",
"272 542 OFFCURVE",
"217 461 OFFCURVE",
"217 338 CURVE SMOOTH",
"217 265 OFFCURVE",
"239 168 OFFCURVE",
"302 143 CURVE",
"302 0 LINE",
"46 0 LINE",
"30 143 LINE",
"93 143 LINE",
"53 202 OFFCURVE",
"30 272 OFFCURVE",
"30 337 CURVE SMOOTH",
"30 546 OFFCURVE",
"159 694 OFFCURVE",
"363 694 CURVE SMOOTH",
"567 694 OFFCURVE",
"696 546 OFFCURVE",
"696 337 CURVE SMOOTH",
"696 272 OFFCURVE",
"673 202 OFFCURVE",
"633 143 CURVE",
"696 143 LINE",
"680 0 LINE",
"424 0 LINE",
"424 143 LINE",
"485 168 OFFCURVE",
"509 265 OFFCURVE",
"509 338 CURVE SMOOTH"
);
}
);
width = 726;
}
);
unicode = 2126;
},
{
glyphname = Delta;
lastChange = "2015-05-10 21:39:18 +0000";
layers = (
{
layerId = "24C3257D-BF04-43D4-ADFB-51EF390723A7";
name = Light;
paths = (
{
closed = 1;
nodes = (
"385 680 LINE",
"649 18 LINE",
"649 0 LINE",
"10 0 LINE",
"275 680 LINE"
);
},
{
closed = 1;
nodes = (
"327 502 LINE",
"178 104 LINE",
"479 104 LINE"
);
}
);
width = 659;
},
{
layerId = "12413328-B98D-4C90-AAAC-8248DDAE45D4";
name = Bold;
paths = (
{
closed = 1;
nodes = (
"405 680 LINE",
"689 18 LINE",
"689 0 LINE",
"10 0 LINE",
"295 680 LINE"
);
},
{
closed = 1;
nodes = (
"347 408 LINE",
"234 143 LINE",
"462 143 LINE"
);
}
);
width = 699;
}
);
unicode = 2206;
},
{
glyphname = divisionslash;
lastChange = "2015-05-10 21:39:18 +0000";
layers = (
{
layerId = "24C3257D-BF04-43D4-ADFB-51EF390723A7";
name = Light;
paths = (
{
closed = 1;
nodes = (
"444 706 LINE",
"145 -4 LINE",
"10 0 LINE",
"308 710 LINE"
);
}
);
width = 454;
},
{
layerId = "12413328-B98D-4C90-AAAC-8248DDAE45D4";
name = Bold;
paths = (
{
closed = 1;
nodes = (
"496 706 LINE",
"197 0 LINE",
"10 0 LINE",
"308 706 LINE"
);
}
);
width = 506;
}
);
unicode = 2215;
},
{
glyphname = bulletmath;
lastChange = "2015-05-10 21:39:18 +0000";
layers = (
{
layerId = "24C3257D-BF04-43D4-ADFB-51EF390723A7";
name = Light;
paths = (
{
closed = 1;
nodes = (
"78 223 OFFCURVE",
"30 270 OFFCURVE",
"30 330 CURVE SMOOTH",
"30 389 OFFCURVE",
"78 438 OFFCURVE",
"138 438 CURVE SMOOTH",
"198 438 OFFCURVE",
"247 389 OFFCURVE",
"247 330 CURVE SMOOTH",
"247 270 OFFCURVE",
"198 223 OFFCURVE",
"138 223 CURVE SMOOTH"
);
}
);
width = 277;
},
{
layerId = "12413328-B98D-4C90-AAAC-8248DDAE45D4";
name = Bold;
paths = (
{
closed = 1;
nodes = (
"85 208 OFFCURVE",
"30 263 OFFCURVE",
"30 331 CURVE SMOOTH",
"30 399 OFFCURVE",
"85 455 OFFCURVE",
"153 455 CURVE SMOOTH",
"221 455 OFFCURVE",
"278 399 OFFCURVE",
"278 331 CURVE SMOOTH",
"278 263 OFFCURVE",
"221 208 OFFCURVE",
"153 208 CURVE SMOOTH"
);
}
);
width = 308;
}
);
unicode = 2219;
},
{
glyphname = Turkishlira;
lastChange = "2015-05-10 21:50:43 +0000";
layers = (
{
layerId = "24C3257D-BF04-43D4-ADFB-51EF390723A7";
name = Light;
paths = (
{
closed = 1;
nodes = (
"86 298 LINE",
"19 275 LINE",
"0 375 LINE",
"86 405 LINE",
"86 447 LINE",
"19 422 LINE",
"0 523 LINE",
"86 553 LINE",
"86 695 LINE",
"216 706 LINE",
"216 600 LINE",
"366 652 LINE",
"384 552 LINE",
"216 493 LINE",
"216 452 LINE",
"366 504 LINE",
"384 404 LINE",
"216 344 LINE",
"216 123 LINE",
"320 123 OFFCURVE",
"394 203 OFFCURVE",
"393 315 CURVE",
"526 315 LINE",
"526 126 OFFCURVE",
"393 0 OFFCURVE",
"216 0 CURVE SMOOTH",
"86 0 LINE"
);
}
);
width = 546;
},
{
layerId = "12413328-B98D-4C90-AAAC-8248DDAE45D4";
name = Bold;
paths = (
{
closed = 1;
nodes = (
"79 279 LINE",
"9 255 LINE",
"0 375 LINE",
"79 403 LINE",
"79 436 LINE",
"9 412 LINE",
"0 533 LINE",
"79 561 LINE",
"79 692 LINE",
"261 707 LINE",
"261 625 LINE",
"366 662 LINE",
"404 550 LINE",
"261 500 LINE",
"261 467 LINE",
"366 504 LINE",
"404 392 LINE",
"261 342 LINE",
"261 149 LINE",
"345 150 OFFCURVE",
"416 218 OFFCURVE",
"416 361 CURVE",
"604 360 LINE",
"604 139 OFFCURVE",
"482 0 OFFCURVE",
"261 0 CURVE SMOOTH",
"79 0 LINE"
);
}
);
width = 624;
}
);
unicode = 20BA;
},
{
glyphname = Ruble;
lastChange = "2015-05-10 22:55:04 +0000";
layers = (
{
layerId = "24C3257D-BF04-43D4-ADFB-51EF390723A7";
name = Light;
paths = (
{
closed = 1;
nodes = (
"476 98 LINE",
"36 98 LINE",
"25 200 LINE",
"465 200 LINE"
);
},
{
closed = 1;
nodes = (
"85 0 LINE",
"85 680 LINE",
"298 680 LINE SMOOTH",
"446 680 OFFCURVE",
"567 618 OFFCURVE",
"567 462 CURVE SMOOTH",
"566 307 OFFCURVE",
"433 237 OFFCURVE",
"289 237 CURVE SMOOTH",
"214 237 LINE",
"214 0 LINE"
);
},
{
closed = 1;
nodes = (
"214 572 LINE",
"214 344 LINE",
"296 344 LINE SMOOTH",
"373 344 OFFCURVE",
"425 378 OFFCURVE",
"430 454 CURVE",
"430 542 OFFCURVE",
"379 572 OFFCURVE",
"294 572 CURVE SMOOTH"
);
},
{
closed = 1;
nodes = (
"186 239 LINE",
"36 239 LINE",
"25 341 LINE",
"175 341 LINE"
);
}
);
width = 592;
},
{
layerId = "12413328-B98D-4C90-AAAC-8248DDAE45D4";
name = Bold;
paths = (
{
closed = 1;
nodes = (
"506 43 LINE",
"10 43 LINE",
"0 166 LINE",
"496 166 LINE"
);
},
{
closed = 1;
nodes = (
"80 0 LINE",
"80 680 LINE",
"366 680 LINE SMOOTH",
"517 680 OFFCURVE",
"646 603 OFFCURVE",
"646 439 CURVE SMOOTH",
"646 276 OFFCURVE",
"505 208 OFFCURVE",
"358 208 CURVE SMOOTH",
"262 208 LINE",
"262 0 LINE"
);
},
{
closed = 1;
nodes = (
"262 537 LINE",
"262 351 LINE",
"362 351 LINE SMOOTH",
"418 351 OFFCURVE",
"458 386 OFFCURVE",
"458 439 CURVE SMOOTH",
"458 499 OFFCURVE",
"421 537 OFFCURVE",
"360 537 CURVE SMOOTH"
);
},
{
closed = 1;
nodes = (
"216 217 LINE",
"10 217 LINE",
"0 340 LINE",
"206 340 LINE"
);
}
);
width = 666;
}
);
unicode = 20BD;
},
{
glyphname = cent;
lastChange = "2015-05-10 22:52:39 +0000";
layers = (
{
layerId = "24C3257D-BF04-43D4-ADFB-51EF390723A7";
name = Light;
paths = (
{
closed = 1;
nodes = (
"227 455 LINE",
"227 598 LINE",
"357 611 LINE",
"357 451 LINE"
);
},
{
closed = 1;
nodes = (
"359 -115 LINE",
"229 -115 LINE",
"229 34 LINE",
"359 36 LINE"
);
},
{
closed = 1;
nodes = (
"451 38 LINE",
"406 3 OFFCURVE",
"324 -12 OFFCURVE",
"283 -12 CURVE SMOOTH",
"126 -12 OFFCURVE",
"25 87 OFFCURVE",
"25 242 CURVE SMOOTH",
"25 397 OFFCURVE",
"126 498 OFFCURVE",
"283 498 CURVE SMOOTH",
"324 498 OFFCURVE",
"403 480 OFFCURVE",
"451 447 CURVE",
"414 354 LINE",
"367 375 OFFCURVE",
"329 387 OFFCURVE",
"284 387 CURVE SMOOTH",
"211 387 OFFCURVE",
"159 325 OFFCURVE",
"159 242 CURVE SMOOTH",
"159 158 OFFCURVE",
"211 99 OFFCURVE",
"284 99 CURVE SMOOTH",
"329 99 OFFCURVE",
"367 111 OFFCURVE",
"414 132 CURVE"
);
}
);
width = 472;
},
{
layerId = "12413328-B98D-4C90-AAAC-8248DDAE45D4";
name = Bold;
paths = (
{
closed = 1;
nodes = (
"212 456 LINE",
"212 618 LINE",
"362 631 LINE",
"362 460 LINE"
);
},
{
closed = 1;
nodes = (
"362 -125 LINE",
"212 -125 LINE",
"212 54 LINE",
"362 51 LINE"
);
},
{
closed = 1;
nodes = (
"451 38 LINE",
"395 -6 OFFCURVE",
"325 -11 OFFCURVE",
"285 -11 CURVE SMOOTH",
"128 -11 OFFCURVE",
"20 79 OFFCURVE",
"20 242 CURVE SMOOTH",
"20 405 OFFCURVE",
"128 502 OFFCURVE",
"285 502 CURVE SMOOTH",
"325 502 OFFCURVE",
"395 497 OFFCURVE",
"451 453 CURVE",
"400 328 LINE",
"361 348 OFFCURVE",
"338 354 OFFCURVE",
"303 354 CURVE SMOOTH",
"254 354 OFFCURVE",
"208 311 OFFCURVE",
"208 242 CURVE SMOOTH",
"208 174 OFFCURVE",
"254 137 OFFCURVE",
"303 137 CURVE SMOOTH",
"335 137 OFFCURVE",
"361 143 OFFCURVE",
"400 163 CURVE"
);
}
);
width = 457;
}
);
unicode = 00A2;
},
{
glyphname = sterling;
lastChange = "2015-05-10 21:51:02 +0000";
layers = (
{
layerId = "24C3257D-BF04-43D4-ADFB-51EF390723A7";
name = Light;
paths = (
{
closed = 1;
nodes = (
"47 101 LINE",
"106 102 OFFCURVE",
"120 136 OFFCURVE",
"120 187 CURVE SMOOTH",
"120 291 LINE",
"45 291 LINE",
"45 390 LINE",
"120 390 LINE",
"120 503 LINE SMOOTH",
"120 615 OFFCURVE",
"190 684 OFFCURVE",
"310 684 CURVE SMOOTH",
"342 684 OFFCURVE",
"387 671 OFFCURVE",
"408 652 CURVE",
"370 560 LINE",
"351 568 OFFCURVE",
"332 572 OFFCURVE",
"316 572 CURVE SMOOTH",
"269 572 OFFCURVE",
"251 535 OFFCURVE",
"251 486 CURVE SMOOTH",
"251 390 LINE",
"369 390 LINE",
"412 291 LINE",
"251 291 LINE",
"251 200 LINE SMOOTH",
"251 163 OFFCURVE",
"245 128 OFFCURVE",
"230 101 CURVE",
"476 101 LINE",
"496 0 LINE",
"57 0 LINE"
);
}
);
width = 506;
},
{
layerId = "12413328-B98D-4C90-AAAC-8248DDAE45D4";
name = Bold;
paths = (
{
closed = 1;
nodes = (
"39 143 LINE",
"101 144 OFFCURVE",
"121 169 OFFCURVE",
"121 208 CURVE SMOOTH",
"121 268 LINE",
"40 268 LINE",
"40 411 LINE",
"121 411 LINE",
"121 491 LINE SMOOTH",
"121 620 OFFCURVE",
"234 684 OFFCURVE",
"358 684 CURVE SMOOTH",
"405 684 OFFCURVE",
"468 662 OFFCURVE",
"492 641 CURVE",
"440 517 LINE",
"417 530 OFFCURVE",
"387 536 OFFCURVE",
"370 536 CURVE SMOOTH",
"327 536 OFFCURVE",
"303 511 OFFCURVE",
"303 471 CURVE SMOOTH",
"303 411 LINE",
"436 411 LINE",
"453 268 LINE",
"303 268 LINE",
"303 188 LINE SMOOTH",
"303 172 OFFCURVE",
"301 156 OFFCURVE",
"298 143 CURVE",
"495 143 LINE",
"512 0 LINE",
"49 0 LINE"
);
}
);
width = 522;
}
);
unicode = 00A3;
},
{
glyphname = currency;
lastChange = "2015-05-10 21:51:41 +0000";
layers = (
{
layerId = "24C3257D-BF04-43D4-ADFB-51EF390723A7";
name = Light;
paths = (
{
closed = 1;
nodes = (
"591 -85 LINE",
"485 21 LINE",
"446 0 OFFCURVE",
"402 -12 OFFCURVE",
"353 -13 CURVE",
"302 -12 OFFCURVE",
"256 2 OFFCURVE",
"216 23 CURVE",
"110 -85 LINE",
"30 11 LINE",
"128 111 LINE",
"107 148 OFFCURVE",
"94 192 OFFCURVE",
"94 241 CURVE SMOOTH",
"94 290 OFFCURVE",
"108 337 OFFCURVE",
"129 372 CURVE",
"30 473 LINE",
"110 569 LINE",
"216 462 LINE",
"256 483 OFFCURVE",
"302 497 OFFCURVE",
"353 498 CURVE",
"402 497 OFFCURVE",
"446 484 OFFCURVE",
"485 463 CURVE",
"591 569 LINE",
"671 473 LINE",
"575 376 LINE",
"598 339 OFFCURVE",
"611 292 OFFCURVE",
"612 243 CURVE",
"611 191 OFFCURVE",
"598 145 OFFCURVE",
"575 108 CURVE",
"671 11 LINE"
);
},
{
closed = 1;
nodes = (
"477 315 OFFCURVE",
"418 372 OFFCURVE",
"351 372 CURVE SMOOTH",
"286 371 OFFCURVE",
"229 314 OFFCURVE",
"228 242 CURVE SMOOTH",
"229 170 OFFCURVE",
"286 112 OFFCURVE",
"351 111 CURVE SMOOTH",
"418 111 OFFCURVE",
"477 170 OFFCURVE",
"478 242 CURVE"
);
}
);
width = 701;
},
{
layerId = "12413328-B98D-4C90-AAAC-8248DDAE45D4";
name = Bold;
paths = (
{
closed = 1;
nodes = (
"641 -98 LINE",
"534 16 LINE",
"498 -1 OFFCURVE",
"451 -11 OFFCURVE",
"407 -12 CURVE",
"363 -11 OFFCURVE",
"315 -2 OFFCURVE",
"279 15 CURVE",
"167 -103 LINE",
"42 21 LINE",
"158 135 LINE",
"143 168 OFFCURVE",
"133 208 OFFCURVE",
"133 249 CURVE SMOOTH",
"133 290 OFFCURVE",
"143 332 OFFCURVE",
"159 365 CURVE",
"30 481 LINE",
"172 599 LINE",
"279 485 LINE",
"315 502 OFFCURVE",
"362 512 OFFCURVE",
"406 512 CURVE SMOOTH",
"450 512 OFFCURVE",
"498 503 OFFCURVE",
"534 486 CURVE",
"646 604 LINE",
"771 480 LINE",
"655 366 LINE",
"670 333 OFFCURVE",
"680 293 OFFCURVE",
"680 252 CURVE SMOOTH",
"680 211 OFFCURVE",
"670 169 OFFCURVE",
"654 136 CURVE",
"783 20 LINE"
);
},
{
closed = 1;
nodes = (
"501 303 OFFCURVE",
"459 342 OFFCURVE",
"406 342 CURVE SMOOTH",
"350 342 OFFCURVE",
"313 301 OFFCURVE",
"312 250 CURVE",
"313 198 OFFCURVE",
"354 159 OFFCURVE",
"407 159 CURVE SMOOTH",
"463 159 OFFCURVE",
"501 200 OFFCURVE",
"501 251 CURVE SMOOTH"
);
}
);
width = 813;
}
);
unicode = 00A4;
},
{
glyphname = yen;
lastChange = "2015-05-10 21:39:18 +0000";
layers = (
{
layerId = "24C3257D-BF04-43D4-ADFB-51EF390723A7";
name = Light;
paths = (
{
closed = 1;
nodes = (
"522 314 LINE",
"532 218 LINE",
"86 218 LINE",
"75 314 LINE"
);
},
{
closed = 1;
nodes = (
"86 66 LINE",
"75 162 LINE",
"522 162 LINE",
"532 66 LINE"
);
},
{
closed = 1;
nodes = (
"232 0 LINE",
"232 265 LINE",
"10 657 LINE",
"138 694 LINE",
"296 396 LINE",
"461 680 LINE",
"598 680 LINE",
"362 260 LINE",
"362 0 LINE"
);
}
);
width = 608;
},
{
layerId = "12413328-B98D-4C90-AAAC-8248DDAE45D4";
name = Bold;
paths = (
{
closed = 1;
nodes = (
"546 316 LINE",
"556 200 LINE",
"108 200 LINE",
"98 316 LINE"
);
},
{
closed = 1;
nodes = (
"108 46 LINE",
"98 162 LINE",
"546 162 LINE",
"556 46 LINE"
);
},
{
closed = 1;
nodes = (
"226 0 LINE",
"226 268 LINE",
"10 646 LINE",
"184 694 LINE",
"316 435 LINE",
"457 680 LINE",
"644 680 LINE",
"408 266 LINE",
"408 0 LINE"
);
}
);
width = 654;
}
);
unicode = 00A5;
},
{
glyphname = Euro;
lastChange = "2015-05-10 21:39:18 +0000";
layers = (
{
layerId = "24C3257D-BF04-43D4-ADFB-51EF390723A7";
name = Light;
paths = (
{
closed = 1;
nodes = (
"446 475 LINE",
"456 379 LINE",
"12 379 LINE",
"0 475 LINE"
);
},
{
closed = 1;
nodes = (
"446 298 LINE",
"456 202 LINE",
"12 202 LINE",
"0 298 LINE"
);
},
{
closed = 1;
nodes = (
"561 557 LINE",
"502 574 OFFCURVE",
"476 585 OFFCURVE",
"417 585 CURVE SMOOTH",
"309 585 OFFCURVE",
"228 491 OFFCURVE",
"228 338 CURVE SMOOTH",
"228 206 OFFCURVE",
"293 95 OFFCURVE",
"409 95 CURVE SMOOTH",
"466 95 OFFCURVE",
"517 109 OFFCURVE",
"558 126 CURVE",
"607 30 LINE",
"555 3 OFFCURVE",
"472 -14 OFFCURVE",
"416 -14 CURVE SMOOTH",
"204 -14 OFFCURVE",
"93 141 OFFCURVE",
"93 337 CURVE SMOOTH",
"93 546 OFFCURVE",
"222 694 OFFCURVE",
"421 694 CURVE SMOOTH",
"461 694 OFFCURVE",
"542 682 OFFCURVE",
"601 650 CURVE"
);
}
);
width = 622;
},
{
layerId = "12413328-B98D-4C90-AAAC-8248DDAE45D4";
name = Bold;
paths = (
{
closed = 1;
nodes = (
"506 480 LINE",
"516 364 LINE",
"12 364 LINE",
"0 480 LINE"
);
},
{
closed = 1;
nodes = (
"506 318 LINE",
"516 202 LINE",
"12 202 LINE",
"0 318 LINE"
);
},
{
closed = 1;
nodes = (
"585 514 LINE",
"513 539 OFFCURVE",
"486 544 OFFCURVE",
"441 544 CURVE SMOOTH",
"360 544 OFFCURVE",
"278 462 OFFCURVE",
"278 338 CURVE SMOOTH",
"278 210 OFFCURVE",
"363 136 OFFCURVE",
"448 136 CURVE SMOOTH",
"497 136 OFFCURVE",
"542 152 OFFCURVE",
"577 173 CURVE",
"646 37 LINE",
"593 5 OFFCURVE",
"512 -13 OFFCURVE",
"443 -13 CURVE SMOOTH",
"222 -13 OFFCURVE",
"90 132 OFFCURVE",
"90 337 CURVE SMOOTH",
"90 546 OFFCURVE",
"238 693 OFFCURVE",
"439 693 CURVE SMOOTH",
"507 693 OFFCURVE",
"586 673 OFFCURVE",
"639 637 CURVE"
);
}
);
width = 656;
}
);
unicode = 20AC;
},
{
glyphname = dollar;
lastChange = "2015-05-10 21:52:19 +0000";
layers = (
{
layerId = "24C3257D-BF04-43D4-ADFB-51EF390723A7";
name = Light;
paths = (
{
closed = 1;
nodes = (
"300 794 LINE",
"300 694 LINE",
"290 695 OFFCURVE",
"279 696 OFFCURVE",
"269 696 CURVE SMOOTH",
"243 695 LINE",
"243 808 LINE",
"155 794 LINE",
"155 677 LINE",
"77 648 OFFCURVE",
"35 587 OFFCURVE",
"35 514 CURVE SMOOTH",
"35 409 OFFCURVE",
"142 346 OFFCURVE",
"238 288 CURVE SMOOTH",
"300 251 OFFCURVE",
"368 221 OFFCURVE",
"368 176 CURVE SMOOTH",
"368 128 OFFCURVE",
"327 102 OFFCURVE",
"246 102 CURVE SMOOTH",
"189 102 OFFCURVE",
"117 129 OFFCURVE",
"76 150 CURVE",
"47 45 LINE",
"69 31 OFFCURVE",
"107 16 OFFCURVE",
"145 5 CURVE",
"145 -128 LINE",
"233 -128 LINE",
"233 -13 LINE",
"248 -13 LINE SMOOTH",
"263 -13 OFFCURVE",
"277 -12 OFFCURVE",
"290 -11 CURVE",
"290 -128 LINE",
"379 -128 LINE",
"379 8 LINE",
"459 39 OFFCURVE",
"502 100 OFFCURVE",
"502 174 CURVE SMOOTH",
"502 290 OFFCURVE",
"394 340 OFFCURVE",
"297 398 CURVE SMOOTH",
"230 438 OFFCURVE",
"169 463 OFFCURVE",
"169 514 CURVE SMOOTH",
"169 561 OFFCURVE",
"214 583 OFFCURVE",
"271 583 CURVE SMOOTH",
"330 583 OFFCURVE",
"377 561 OFFCURVE",
"418 541 CURVE",
"461 645 LINE",
"440 655 OFFCURVE",
"415 666 OFFCURVE",
"389 674 CURVE",
"389 808 LINE"
);
}
);
width = 527;
},
{
layerId = "12413328-B98D-4C90-AAAC-8248DDAE45D4";
name = Bold;
paths = (
{
closed = 1;
nodes = (
"313 789 LINE",
"313 691.764 LINE",
"302.845 692.584 OFFCURVE",
"292.808 693 OFFCURVE",
"283 693 CURVE SMOOTH",
"269 692.77 LINE",
"269 799 LINE",
"151 789 LINE",
"151 668.315 LINE",
"74.874 635.683 OFFCURVE",
"30.6734 573.416 OFFCURVE",
"30 498 CURVE SMOOTH",
"30 382 OFFCURVE",
"146 320 OFFCURVE",
"234 268 CURVE SMOOTH",
"286 237 OFFCURVE",
"339 213 OFFCURVE",
"339 189 CURVE SMOOTH",
"339 164 OFFCURVE",
"308 136 OFFCURVE",
"251 136 CURVE SMOOTH",
"202 136 OFFCURVE",
"128 158 OFFCURVE",
"93 179 CURVE",
"33 42 LINE",
"56.5361 27.7896 OFFCURVE",
"89.5382 15.3541 OFFCURVE",
"125 5.9193 CURVE",
"125 -119 LINE",
"243 -119 LINE",
"243 -12.7449 LINE",
"256 -12.9999 LINE SMOOTH",
"268.003 -12.9999 OFFCURVE",
"279.674 -12.5658 OFFCURVE",
"291 -11.7181 CURVE",
"291 -122 LINE",
"410 -122 LINE",
"410 17.2988 LINE",
"484.662 51.8714 OFFCURVE",
"527 113.27 OFFCURVE",
"527 187 CURVE",
"527 298 OFFCURVE",
"417 364 OFFCURVE",
"321 419 CURVE SMOOTH",
"267 450 OFFCURVE",
"218 467 OFFCURVE",
"218 496 CURVE SMOOTH",
"218 521 OFFCURVE",
"244 544 OFFCURVE",
"285 544 CURVE SMOOTH",
"330 544 OFFCURVE",
"357 539 OFFCURVE",
"429 514 CURVE",
"483 637 LINE",
"467.839 647.298 OFFCURVE",
"450.55 656.287 OFFCURVE",
"432 663.873 CURVE",
"432 799 LINE"
);
}
);
width = 547;
}
);
unicode = 0024;
},
{
glyphname = comma;
lastChange = "2015-05-10 21:39:18 +0000";
layers = (
{
layerId = "24C3257D-BF04-43D4-ADFB-51EF390723A7";
name = Light;
paths = (
{
closed = 1;
nodes = (
"146 146 OFFCURVE",
"181 109 OFFCURVE",
"181 56 CURVE SMOOTH",
"181 -17 OFFCURVE",
"125 -111 OFFCURVE",
"49 -154 CURVE",
"20 -92 LINE",
"55 -63 OFFCURVE",
"79 -43 OFFCURVE",
"88 0 CURVE",
"65 0 OFFCURVE",
"33 36 OFFCURVE",
"33 72 CURVE SMOOTH",
"33 108 OFFCURVE",
"65 146 OFFCURVE",
"105 146 CURVE SMOOTH"
);
}
);
width = 211;
},
{
layerId = "12413328-B98D-4C90-AAAC-8248DDAE45D4";
name = Bold;
paths = (
{
closed = 1;
nodes = (
"172 147 OFFCURVE",
"213 104 OFFCURVE",
"213 40 CURVE SMOOTH",
"213 -39 OFFCURVE",
"144 -121 OFFCURVE",
"56 -154 CURVE",
"20 -74 LINE",
"39 -63 OFFCURVE",
"67 -40 OFFCURVE",
"72 -23 CURVE",
"48 -8 OFFCURVE",
"29 22 OFFCURVE",
"29 55 CURVE SMOOTH",
"29 100 OFFCURVE",
"69 147 OFFCURVE",
"121 147 CURVE SMOOTH"
);
}
);
width = 243;
}
);
unicode = 002C;
},
{
glyphname = period;
lastChange = "2015-05-10 22:50:21 +0000";
layers = (
{
layerId = "24C3257D-BF04-43D4-ADFB-51EF390723A7";
name = Light;
paths = (
{
closed = 1;
nodes = (
"63 0 OFFCURVE",
"30 32 OFFCURVE",
"30 73 CURVE SMOOTH",
"30 114 OFFCURVE",
"63 146 OFFCURVE",
"104 146 CURVE SMOOTH",
"145 146 OFFCURVE",
"176 114 OFFCURVE",
"176 73 CURVE SMOOTH",
"176 32 OFFCURVE",
"145 0 OFFCURVE",
"104 0 CURVE SMOOTH"
);
}
);
width = 206;
},
{
layerId = "12413328-B98D-4C90-AAAC-8248DDAE45D4";
name = Bold;
paths = (
{
closed = 1;
nodes = (
"70 0 OFFCURVE",
"30 39 OFFCURVE",
"30 91 CURVE SMOOTH",
"30 143 OFFCURVE",
"70 183 OFFCURVE",
"122 183 CURVE SMOOTH",
"173 183 OFFCURVE",
"213 143 OFFCURVE",
"213 91 CURVE SMOOTH",
"213 39 OFFCURVE",
"173 0 OFFCURVE",
"122 0 CURVE SMOOTH"
);
}
);
width = 243;
}
);
unicode = 002E;
},
{
glyphname = exclam;
lastChange = "2015-05-10 22:50:00 +0000";
layers = (
{
layerId = "24C3257D-BF04-43D4-ADFB-51EF390723A7";
name = Light;
paths = (
{
closed = 1;
nodes = (
"35 702 LINE",
"171 702 LINE",
"156 196 LINE",
"52 244 LINE"
);
},
{
closed = 1;
nodes = (
"144 146 OFFCURVE",
"177 114 OFFCURVE",
"177 73 CURVE SMOOTH",
"177 32 OFFCURVE",
"144 0 OFFCURVE",
"103 0 CURVE SMOOTH",
"63 0 OFFCURVE",
"30 32 OFFCURVE",
"30 73 CURVE SMOOTH",
"30 114 OFFCURVE",
"63 146 OFFCURVE",
"103 146 CURVE SMOOTH"
);
}
);
width = 207;
},
{
layerId = "12413328-B98D-4C90-AAAC-8248DDAE45D4";
name = Bold;
paths = (
{
closed = 1;
nodes = (
"31 714 LINE",
"213 714 LINE",
"193 208 LINE",
"51 248 LINE"
);
},
{
closed = 1;
nodes = (
"173 183 OFFCURVE",
"213 143 OFFCURVE",
"213 91 CURVE SMOOTH",
"213 39 OFFCURVE",
"173 0 OFFCURVE",
"122 0 CURVE SMOOTH",
"70 0 OFFCURVE",
"30 39 OFFCURVE",
"30 91 CURVE SMOOTH",
"30 143 OFFCURVE",
"70 183 OFFCURVE",
"122 183 CURVE SMOOTH"
);
}
);
width = 243;
}
);
unicode = 0021;
},
{
glyphname = exclamdown;
lastChange = "2015-05-10 22:50:10 +0000";
layers = (
{
layerId = "24C3257D-BF04-43D4-ADFB-51EF390723A7";
name = Light;
paths = (
{
closed = 1;
nodes = (
"63 555 OFFCURVE",
"30 588 OFFCURVE",
"30 629 CURVE SMOOTH",
"30 669 OFFCURVE",
"63 702 OFFCURVE",
"103 702 CURVE SMOOTH",
"144 702 OFFCURVE",
"177 669 OFFCURVE",
"177 629 CURVE SMOOTH",
"177 588 OFFCURVE",
"144 555 OFFCURVE",
"103 555 CURVE SMOOTH"
);
},
{
closed = 1;
nodes = (
"170 0 LINE",
"35 0 LINE",
"51 505 LINE",
"156 458 LINE"
);
}
);
width = 207;
},
{
layerId = "12413328-B98D-4C90-AAAC-8248DDAE45D4";
name = Bold;
paths = (
{
closed = 1;
nodes = (
"70 531 OFFCURVE",
"30 571 OFFCURVE",
"30 623 CURVE SMOOTH",
"30 675 OFFCURVE",
"70 714 OFFCURVE",
"121 714 CURVE SMOOTH",
"173 714 OFFCURVE",
"213 675 OFFCURVE",
"213 623 CURVE SMOOTH",
"213 571 OFFCURVE",
"173 531 OFFCURVE",
"121 531 CURVE SMOOTH"
);
},
{
closed = 1;
nodes = (
"212 0 LINE",
"30 0 LINE",
"50 506 LINE",
"192 466 LINE"
);
}
);
width = 243;
}
);
unicode = 00A1;
},
{
glyphname = colon;
lastChange = "2015-05-10 22:50:32 +0000";
layers = (
{
layerId = "24C3257D-BF04-43D4-ADFB-51EF390723A7";
name = Light;
paths = (
{
closed = 1;
nodes = (
"63 327 OFFCURVE",
"30 360 OFFCURVE",
"30 401 CURVE SMOOTH",
"30 441 OFFCURVE",
"63 474 OFFCURVE",
"104 474 CURVE SMOOTH",
"145 474 OFFCURVE",
"176 441 OFFCURVE",
"176 401 CURVE SMOOTH",
"176 360 OFFCURVE",
"145 327 OFFCURVE",
"104 327 CURVE SMOOTH"
);
},
{
closed = 1;
nodes = (
"63 0 OFFCURVE",
"30 32 OFFCURVE",
"30 73 CURVE SMOOTH",
"30 114 OFFCURVE",
"63 146 OFFCURVE",
"104 146 CURVE SMOOTH",
"145 146 OFFCURVE",
"176 114 OFFCURVE",
"176 73 CURVE SMOOTH",
"176 32 OFFCURVE",
"145 0 OFFCURVE",
"104 0 CURVE SMOOTH"
);
}
);
width = 206;
},
{
layerId = "12413328-B98D-4C90-AAAC-8248DDAE45D4";
name = Bold;
paths = (
{
closed = 1;
nodes = (
"70 293 OFFCURVE",
"30 332 OFFCURVE",
"30 384 CURVE SMOOTH",
"30 436 OFFCURVE",
"70 476 OFFCURVE",
"122 476 CURVE SMOOTH",
"173 476 OFFCURVE",
"213 436 OFFCURVE",
"213 384 CURVE SMOOTH",
"213 332 OFFCURVE",
"173 293 OFFCURVE",
"122 293 CURVE SMOOTH"
);
},
{
closed = 1;
nodes = (
"70 0 OFFCURVE",
"30 39 OFFCURVE",
"30 91 CURVE SMOOTH",
"30 143 OFFCURVE",
"70 183 OFFCURVE",
"122 183 CURVE SMOOTH",
"173 183 OFFCURVE",
"213 143 OFFCURVE",
"213 91 CURVE SMOOTH",
"213 39 OFFCURVE",
"173 0 OFFCURVE",
"122 0 CURVE SMOOTH"
);
}
);
width = 243;
}
);
unicode = 003A;
},
{
glyphname = semicolon;
lastChange = "2015-05-10 21:39:18 +0000";
layers = (
{
layerId = "24C3257D-BF04-43D4-ADFB-51EF390723A7";
name = Light;
paths = (
{
closed = 1;
nodes = (
"150 474 OFFCURVE",
"182 441 OFFCURVE",
"182 401 CURVE SMOOTH",
"182 360 OFFCURVE",
"150 327 OFFCURVE",
"109 327 CURVE SMOOTH",
"68 327 OFFCURVE",
"34 360 OFFCURVE",
"34 401 CURVE SMOOTH",
"34 441 OFFCURVE",
"68 474 OFFCURVE",
"109 474 CURVE SMOOTH"
);
},
{
closed = 1;
nodes = (
"146 146 OFFCURVE",
"181 109 OFFCURVE",
"181 56 CURVE SMOOTH",
"181 -17 OFFCURVE",
"125 -111 OFFCURVE",
"49 -154 CURVE",
"20 -92 LINE",
"55 -63 OFFCURVE",
"79 -43 OFFCURVE",
"88 0 CURVE",
"65 0 OFFCURVE",
"33 36 OFFCURVE",
"33 72 CURVE SMOOTH",
"33 108 OFFCURVE",
"65 146 OFFCURVE",
"105 146 CURVE SMOOTH"
);
}
);
width = 212;
},
{
layerId = "12413328-B98D-4C90-AAAC-8248DDAE45D4";
name = Bold;
paths = (
{
closed = 1;
nodes = (
"174 476 OFFCURVE",
"214 436 OFFCURVE",
"214 384 CURVE SMOOTH",
"214 332 OFFCURVE",
"174 293 OFFCURVE",
"123 293 CURVE SMOOTH",
"71 293 OFFCURVE",
"31 332 OFFCURVE",
"31 384 CURVE SMOOTH",
"31 436 OFFCURVE",
"71 476 OFFCURVE",
"123 476 CURVE SMOOTH"
);
},
{
closed = 1;
nodes = (
"172 183 OFFCURVE",
"213 140 OFFCURVE",
"213 76 CURVE SMOOTH",
"213 -3 OFFCURVE",
"144 -85 OFFCURVE",
"56 -118 CURVE",
"20 -38 LINE",
"39 -27 OFFCURVE",
"67 -4 OFFCURVE",
"72 13 CURVE",
"48 28 OFFCURVE",
"29 58 OFFCURVE",
"29 91 CURVE SMOOTH",
"29 136 OFFCURVE",
"69 183 OFFCURVE",
"121 183 CURVE SMOOTH"
);
}
);
width = 244;
}
);
unicode = 003B;
},
{
glyphname = question;
lastChange = "2015-05-10 21:39:18 +0000";
layers = (
{
layerId = "24C3257D-BF04-43D4-ADFB-51EF390723A7";
name = Light;
paths = (
{
closed = 1;
nodes = (
"337 701 OFFCURVE",
"405 629 OFFCURVE",
"405 522 CURVE SMOOTH",
"405 450 OFFCURVE",
"333 365 OFFCURVE",
"240 316 CURVE",
"223 179 LINE",
"131 218 LINE",
"123 383 LINE",
"218 414 OFFCURVE",
"286 465 OFFCURVE",
"286 520 CURVE SMOOTH",
"286 565 OFFCURVE",
"249 593 OFFCURVE",
"201 593 CURVE SMOOTH",
"160 593 OFFCURVE",
"94 574 OFFCURVE",
"27 529 CURVE",
"10 645 LINE",
"71 684 OFFCURVE",
"132 701 OFFCURVE",
"204 701 CURVE SMOOTH"
);
},
{
closed = 1;
nodes = (
"211 146 OFFCURVE",
"243 114 OFFCURVE",
"243 73 CURVE SMOOTH",
"243 32 OFFCURVE",
"211 0 OFFCURVE",
"170 0 CURVE SMOOTH",
"129 0 OFFCURVE",
"96 32 OFFCURVE",
"96 73 CURVE SMOOTH",
"96 114 OFFCURVE",
"129 146 OFFCURVE",
"170 146 CURVE SMOOTH"
);
}
);
width = 435;
},
{
layerId = "12413328-B98D-4C90-AAAC-8248DDAE45D4";
name = Bold;
paths = (
{
closed = 1;
nodes = (
"341 701 OFFCURVE",
"437 624 OFFCURVE",
"437 509 CURVE SMOOTH",
"437 428 OFFCURVE",
"387 364 OFFCURVE",
"260 319 CURVE",
"248 204 LINE",
"105 243 LINE",
"98 402 LINE",
"186 430 OFFCURVE",
"249 476 OFFCURVE",
"249 512 CURVE SMOOTH",
"249 537 OFFCURVE",
"227 553 OFFCURVE",
"198 553 CURVE SMOOTH",
"165 553 OFFCURVE",
"113 545 OFFCURVE",
"33 500 CURVE",
"10 649 LINE",
"78 688 OFFCURVE",
"142 701 OFFCURVE",
"201 701 CURVE SMOOTH"
);
},
{
closed = 1;
nodes = (
"218 183 OFFCURVE",
"258 143 OFFCURVE",
"258 91 CURVE SMOOTH",
"258 39 OFFCURVE",
"218 0 OFFCURVE",
"167 0 CURVE SMOOTH",
"115 0 OFFCURVE",
"75 39 OFFCURVE",
"75 91 CURVE SMOOTH",
"75 143 OFFCURVE",
"115 183 OFFCURVE",
"167 183 CURVE SMOOTH"
);
}
);
width = 467;
}
);
unicode = 003F;
},
{
glyphname = questiondown;
lastChange = "2015-05-10 21:39:18 +0000";
layers = (
{
layerId = "24C3257D-BF04-43D4-ADFB-51EF390723A7";
name = Light;
paths = (
{
closed = 1;
nodes = (
"223 517 OFFCURVE",
"191 550 OFFCURVE",
"191 591 CURVE SMOOTH",
"191 631 OFFCURVE",
"223 664 OFFCURVE",
"264 664 CURVE SMOOTH",
"305 664 OFFCURVE",
"338 631 OFFCURVE",
"338 591 CURVE SMOOTH",
"338 550 OFFCURVE",
"305 517 OFFCURVE",
"264 517 CURVE SMOOTH"
);
},
{
closed = 1;
nodes = (
"97 -37 OFFCURVE",
"30 37 OFFCURVE",
"30 142 CURVE SMOOTH",
"30 215 OFFCURVE",
"102 298 OFFCURVE",
"194 349 CURVE",
"211 485 LINE",
"303 447 LINE",
"312 282 LINE",
"216 251 OFFCURVE",
"148 199 OFFCURVE",
"148 143 CURVE SMOOTH",
"148 99 OFFCURVE",
"185 71 OFFCURVE",
"233 71 CURVE SMOOTH",
"276 71 OFFCURVE",
"340 88 OFFCURVE",
"407 136 CURVE",
"424 19 LINE",
"363 -20 OFFCURVE",
"302 -37 OFFCURVE",
"229 -37 CURVE SMOOTH"
);
}
);
width = 434;
},
{
layerId = "12413328-B98D-4C90-AAAC-8248DDAE45D4";
name = Bold;
paths = (
{
closed = 1;
nodes = (
"249 481 OFFCURVE",
"209 521 OFFCURVE",
"209 573 CURVE SMOOTH",
"209 625 OFFCURVE",
"249 664 OFFCURVE",
"300 664 CURVE SMOOTH",
"352 664 OFFCURVE",
"392 625 OFFCURVE",
"392 573 CURVE SMOOTH",
"392 521 OFFCURVE",
"352 481 OFFCURVE",
"300 481 CURVE SMOOTH"
);
},
{
closed = 1;
nodes = (
"126 -37 OFFCURVE",
"30 40 OFFCURVE",
"30 155 CURVE SMOOTH",
"30 236 OFFCURVE",
"80 300 OFFCURVE",
"207 345 CURVE",
"219 460 LINE",
"362 421 LINE",
"369 262 LINE",
"281 234 OFFCURVE",
"218 188 OFFCURVE",
"218 152 CURVE SMOOTH",
"218 127 OFFCURVE",
"240 111 OFFCURVE",
"269 111 CURVE SMOOTH",
"302 111 OFFCURVE",
"354 119 OFFCURVE",
"434 164 CURVE",
"457 15 LINE",
"389 -24 OFFCURVE",
"325 -37 OFFCURVE",
"266 -37 CURVE SMOOTH"
);
}
);
width = 467;
}
);
unicode = 00BF;
},
{
glyphname = asterisk;
lastChange = "2015-05-10 22:50:40 +0000";
layers = (
{
layerId = "24C3257D-BF04-43D4-ADFB-51EF390723A7";
name = Light;
paths = (
{
closed = 1;
nodes = (
"246 668 LINE",
"348 690 LINE",
"378 599 LINE",
"277 579 LINE",
"346 481 LINE",
"268 420 LINE",
"194 519 LINE",
"121 420 LINE",
"42 481 LINE",
"111 578 LINE",
"10 599 LINE",
"40 690 LINE",
"141 668 LINE",
"143 767 LINE",
"245 767 LINE"
);
}
);
width = 388;
},
{
layerId = "12413328-B98D-4C90-AAAC-8248DDAE45D4";
name = Bold;
paths = (
{
closed = 1;
nodes = (
"285 686 LINE",
"380 714 LINE",
"414 585 LINE",
"320 568 LINE",
"392 477 LINE",
"275 403 LINE",
"212 496 LINE",
"149 403 LINE",
"32 477 LINE",
"104 568 LINE",
"10 585 LINE",
"44 714 LINE",
"141 686 LINE",
"141 782 LINE",
"285 782 LINE"
);
}
);
width = 424;
}
);
unicode = 002A;
},
{
glyphname = quotedbl;
lastChange = "2015-05-10 21:39:18 +0000";
layers = (
{
layerId = "24C3257D-BF04-43D4-ADFB-51EF390723A7";
name = Light;
paths = (
{
closed = 1;
nodes = (
"331 742 OFFCURVE",
"364 706 OFFCURVE",
"364 653 CURVE SMOOTH",
"364 578 OFFCURVE",
"309 486 OFFCURVE",
"233 443 CURVE",
"204 504 LINE",
"237 533 OFFCURVE",
"263 554 OFFCURVE",
"272 597 CURVE",
"248 597 OFFCURVE",
"216 632 OFFCURVE",
"216 668 CURVE SMOOTH",
"216 703 OFFCURVE",
"249 742 OFFCURVE",
"290 742 CURVE SMOOTH"
);
},
{
closed = 1;
nodes = (
"145 742 OFFCURVE",
"180 706 OFFCURVE",
"180 653 CURVE SMOOTH",
"180 578 OFFCURVE",
"124 486 OFFCURVE",
"48 443 CURVE",
"20 504 LINE",
"53 533 OFFCURVE",
"78 554 OFFCURVE",
"87 597 CURVE",
"64 597 OFFCURVE",
"31 632 OFFCURVE",
"31 668 CURVE SMOOTH",
"31 703 OFFCURVE",
"63 742 OFFCURVE",
"104 742 CURVE SMOOTH"
);
}
);
width = 394;
},
{
layerId = "12413328-B98D-4C90-AAAC-8248DDAE45D4";
name = Bold;
paths = (
{
closed = 1;
nodes = (
"382 742 OFFCURVE",
"423 699 OFFCURVE",
"423 635 CURVE SMOOTH",
"423 556 OFFCURVE",
"354 474 OFFCURVE",
"266 441 CURVE",
"230 521 LINE",
"249 532 OFFCURVE",
"277 555 OFFCURVE",
"282 572 CURVE",
"258 587 OFFCURVE",
"239 617 OFFCURVE",
"239 650 CURVE SMOOTH",
"239 695 OFFCURVE",
"279 742 OFFCURVE",
"331 742 CURVE SMOOTH"
);
},
{
closed = 1;
nodes = (
"172 742 OFFCURVE",
"213 699 OFFCURVE",
"213 635 CURVE SMOOTH",
"213 556 OFFCURVE",
"144 474 OFFCURVE",
"56 441 CURVE",
"20 521 LINE",
"39 532 OFFCURVE",
"67 555 OFFCURVE",
"72 572 CURVE",
"48 587 OFFCURVE",
"29 617 OFFCURVE",
"29 650 CURVE SMOOTH",
"29 695 OFFCURVE",
"69 742 OFFCURVE",
"121 742 CURVE SMOOTH"
);
}
);
width = 453;
}
);
unicode = 0022;
},
{
glyphname = quotesingle;
lastChange = "2015-05-10 21:39:18 +0000";
layers = (
{
layerId = "24C3257D-BF04-43D4-ADFB-51EF390723A7";
name = Light;
paths = (
{
closed = 1;
nodes = (
"145 742 OFFCURVE",
"180 706 OFFCURVE",
"180 653 CURVE SMOOTH",
"180 578 OFFCURVE",
"124 486 OFFCURVE",
"48 443 CURVE",
"20 504 LINE",
"53 533 OFFCURVE",
"78 554 OFFCURVE",
"87 597 CURVE",
"64 597 OFFCURVE",
"31 632 OFFCURVE",
"31 668 CURVE SMOOTH",
"31 703 OFFCURVE",
"63 742 OFFCURVE",
"104 742 CURVE SMOOTH"
);
}
);
width = 210;
},
{
layerId = "12413328-B98D-4C90-AAAC-8248DDAE45D4";
name = Bold;
paths = (
{
closed = 1;
nodes = (
"172 742 OFFCURVE",
"213 699 OFFCURVE",
"213 635 CURVE SMOOTH",
"213 556 OFFCURVE",
"144 474 OFFCURVE",
"56 441 CURVE",
"20 521 LINE",
"39 532 OFFCURVE",
"67 555 OFFCURVE",
"72 572 CURVE",
"48 587 OFFCURVE",
"29 617 OFFCURVE",
"29 650 CURVE SMOOTH",
"29 695 OFFCURVE",
"69 742 OFFCURVE",
"121 742 CURVE SMOOTH"
);
}
);
width = 243;
}
);
unicode = 0027;
},
{
glyphname = quoteleft;
lastChange = "2015-05-10 21:39:18 +0000";
layers = (
{
layerId = "24C3257D-BF04-43D4-ADFB-51EF390723A7";
name = Light;
paths = (
{
closed = 1;
nodes = (
"54 443 OFFCURVE",
"20 481 OFFCURVE",
"20 533 CURVE SMOOTH",
"20 608 OFFCURVE",
"76 701 OFFCURVE",
"152 742 CURVE",
"181 682 LINE",
"146 653 OFFCURVE",
"122 633 OFFCURVE",
"113 589 CURVE",
"136 589 OFFCURVE",
"168 554 OFFCURVE",
"168 517 CURVE SMOOTH",
"168 482 OFFCURVE",
"136 443 OFFCURVE",
"95 443 CURVE SMOOTH"
);
}
);
width = 211;
},
{
layerId = "12413328-B98D-4C90-AAAC-8248DDAE45D4";
name = Bold;
paths = (
{
closed = 1;
nodes = (
"71 441 OFFCURVE",
"30 484 OFFCURVE",
"30 548 CURVE SMOOTH",
"30 627 OFFCURVE",
"99 709 OFFCURVE",
"187 742 CURVE",
"223 662 LINE",
"204 651 OFFCURVE",
"176 628 OFFCURVE",
"171 611 CURVE",
"195 596 OFFCURVE",
"214 566 OFFCURVE",
"214 533 CURVE SMOOTH",
"214 488 OFFCURVE",
"174 441 OFFCURVE",
"122 441 CURVE SMOOTH"
);
}
);
width = 243;
}
);
unicode = 2018;
},
{
glyphname = quoteright;
lastChange = "2015-05-10 21:39:18 +0000";
layers = (
{
layerId = "24C3257D-BF04-43D4-ADFB-51EF390723A7";
name = Light;
paths = (
{
closed = 1;
nodes = (
"145 742 OFFCURVE",
"180 706 OFFCURVE",
"180 653 CURVE SMOOTH",
"180 578 OFFCURVE",
"124 486 OFFCURVE",
"48 443 CURVE",
"20 504 LINE",
"53 533 OFFCURVE",
"78 554 OFFCURVE",
"87 597 CURVE",
"64 597 OFFCURVE",
"31 632 OFFCURVE",
"31 668 CURVE SMOOTH",
"31 703 OFFCURVE",
"63 742 OFFCURVE",
"104 742 CURVE SMOOTH"
);
}
);
width = 210;
},
{
layerId = "12413328-B98D-4C90-AAAC-8248DDAE45D4";
name = Bold;
paths = (
{
closed = 1;
nodes = (
"172 742 OFFCURVE",
"213 699 OFFCURVE",
"213 635 CURVE SMOOTH",
"213 556 OFFCURVE",
"144 474 OFFCURVE",
"56 441 CURVE",
"20 521 LINE",
"39 532 OFFCURVE",
"67 555 OFFCURVE",
"72 572 CURVE",
"48 587 OFFCURVE",
"29 617 OFFCURVE",
"29 650 CURVE SMOOTH",
"29 695 OFFCURVE",
"69 742 OFFCURVE",
"121 742 CURVE SMOOTH"
);
}
);
width = 243;
}
);
unicode = 2019;
},
{
glyphname = quotesinglbase;
lastChange = "2015-05-10 21:39:18 +0000";
layers = (
{
layerId = "24C3257D-BF04-43D4-ADFB-51EF390723A7";
name = Light;
paths = (
{
closed = 1;
nodes = (
"145 146 OFFCURVE",
"180 109 OFFCURVE",
"180 56 CURVE SMOOTH",
"180 -17 OFFCURVE",
"124 -111 OFFCURVE",
"48 -154 CURVE",
"20 -92 LINE",
"53 -63 OFFCURVE",
"78 -43 OFFCURVE",
"87 0 CURVE",
"64 0 OFFCURVE",
"31 36 OFFCURVE",
"31 72 CURVE SMOOTH",
"31 108 OFFCURVE",
"63 146 OFFCURVE",
"104 146 CURVE SMOOTH"
);
}
);
width = 210;
},
{
layerId = "12413328-B98D-4C90-AAAC-8248DDAE45D4";
name = Bold;
paths = (
{
closed = 1;
nodes = (
"172 147 OFFCURVE",
"213 104 OFFCURVE",
"213 40 CURVE SMOOTH",
"213 -39 OFFCURVE",
"144 -121 OFFCURVE",
"56 -154 CURVE",
"20 -74 LINE",
"39 -63 OFFCURVE",
"67 -40 OFFCURVE",
"72 -23 CURVE",
"48 -8 OFFCURVE",
"29 22 OFFCURVE",
"29 55 CURVE SMOOTH",
"29 100 OFFCURVE",
"69 147 OFFCURVE",
"121 147 CURVE SMOOTH"
);
}
);
width = 243;
}
);
unicode = 201A;
},
{
glyphname = quotedblleft;
lastChange = "2015-05-10 21:39:18 +0000";
layers = (
{
layerId = "24C3257D-BF04-43D4-ADFB-51EF390723A7";
name = Light;
paths = (
{
closed = 1;
nodes = (
"64 443 OFFCURVE",
"30 481 OFFCURVE",
"30 533 CURVE SMOOTH",
"30 608 OFFCURVE",
"86 701 OFFCURVE",
"162 742 CURVE",
"191 682 LINE",
"156 653 OFFCURVE",
"132 633 OFFCURVE",
"123 589 CURVE",
"146 589 OFFCURVE",
"178 554 OFFCURVE",
"178 517 CURVE SMOOTH",
"178 482 OFFCURVE",
"146 443 OFFCURVE",
"105 443 CURVE SMOOTH"
);
},
{
closed = 1;
nodes = (
"249 443 OFFCURVE",
"215 481 OFFCURVE",
"215 533 CURVE SMOOTH",
"215 608 OFFCURVE",
"271 701 OFFCURVE",
"346 742 CURVE",
"376 682 LINE",
"341 653 OFFCURVE",
"317 633 OFFCURVE",
"308 589 CURVE",
"329 589 OFFCURVE",
"364 554 OFFCURVE",
"364 517 CURVE SMOOTH",
"364 482 OFFCURVE",
"331 443 OFFCURVE",
"290 443 CURVE SMOOTH"
);
}
);
width = 396;
},
{
layerId = "12413328-B98D-4C90-AAAC-8248DDAE45D4";
name = Bold;
paths = (
{
closed = 1;
nodes = (
"71 441 OFFCURVE",
"30 484 OFFCURVE",
"30 548 CURVE SMOOTH",
"30 627 OFFCURVE",
"99 709 OFFCURVE",
"187 742 CURVE",
"223 662 LINE",
"204 651 OFFCURVE",
"176 628 OFFCURVE",
"171 611 CURVE",
"195 596 OFFCURVE",
"214 566 OFFCURVE",
"214 533 CURVE SMOOTH",
"214 488 OFFCURVE",
"174 441 OFFCURVE",
"122 441 CURVE SMOOTH"
);
},
{
closed = 1;
nodes = (
"281 441 OFFCURVE",
"240 484 OFFCURVE",
"240 548 CURVE SMOOTH",
"240 627 OFFCURVE",
"309 709 OFFCURVE",
"397 742 CURVE",
"433 662 LINE",
"414 651 OFFCURVE",
"386 628 OFFCURVE",
"381 611 CURVE",
"405 596 OFFCURVE",
"424 566 OFFCURVE",
"424 533 CURVE SMOOTH",
"424 488 OFFCURVE",
"384 441 OFFCURVE",
"332 441 CURVE SMOOTH"
);
}
);
width = 453;
}
);
unicode = 201C;
},
{
glyphname = quotedblright;
lastChange = "2015-05-10 21:39:18 +0000";
layers = (
{
layerId = "24C3257D-BF04-43D4-ADFB-51EF390723A7";
name = Light;
paths = (
{
closed = 1;
nodes = (
"331 742 OFFCURVE",
"364 706 OFFCURVE",
"364 653 CURVE SMOOTH",
"364 578 OFFCURVE",
"309 486 OFFCURVE",
"233 443 CURVE",
"204 504 LINE",
"237 533 OFFCURVE",
"263 554 OFFCURVE",
"272 597 CURVE",
"248 597 OFFCURVE",
"216 632 OFFCURVE",
"216 668 CURVE SMOOTH",
"216 703 OFFCURVE",
"249 742 OFFCURVE",
"290 742 CURVE SMOOTH"
);
},
{
closed = 1;
nodes = (
"145 742 OFFCURVE",
"180 706 OFFCURVE",
"180 653 CURVE SMOOTH",
"180 578 OFFCURVE",
"124 486 OFFCURVE",
"48 443 CURVE",
"20 504 LINE",
"53 533 OFFCURVE",
"78 554 OFFCURVE",
"87 597 CURVE",
"64 597 OFFCURVE",
"31 632 OFFCURVE",
"31 668 CURVE SMOOTH",
"31 703 OFFCURVE",
"63 742 OFFCURVE",
"104 742 CURVE SMOOTH"
);
}
);
width = 394;
},
{
layerId = "12413328-B98D-4C90-AAAC-8248DDAE45D4";
name = Bold;
paths = (
{
closed = 1;
nodes = (
"382 742 OFFCURVE",
"423 699 OFFCURVE",
"423 635 CURVE SMOOTH",
"423 556 OFFCURVE",
"354 474 OFFCURVE",
"266 441 CURVE",
"230 521 LINE",
"249 532 OFFCURVE",
"277 555 OFFCURVE",
"282 572 CURVE",
"258 587 OFFCURVE",
"239 617 OFFCURVE",
"239 650 CURVE SMOOTH",
"239 695 OFFCURVE",
"279 742 OFFCURVE",
"331 742 CURVE SMOOTH"
);
},
{
closed = 1;
nodes = (
"172 742 OFFCURVE",
"213 699 OFFCURVE",
"213 635 CURVE SMOOTH",
"213 556 OFFCURVE",
"144 474 OFFCURVE",
"56 441 CURVE",
"20 521 LINE",
"39 532 OFFCURVE",
"67 555 OFFCURVE",
"72 572 CURVE",
"48 587 OFFCURVE",
"29 617 OFFCURVE",
"29 650 CURVE SMOOTH",
"29 695 OFFCURVE",
"69 742 OFFCURVE",
"121 742 CURVE SMOOTH"
);
}
);
width = 453;
}
);
unicode = 201D;
},
{
glyphname = quotedblbase;
lastChange = "2015-05-10 21:39:18 +0000";
layers = (
{
layerId = "24C3257D-BF04-43D4-ADFB-51EF390723A7";
name = Light;
paths = (
{
closed = 1;
nodes = (
"331 146 OFFCURVE",
"364 109 OFFCURVE",
"364 56 CURVE SMOOTH",
"364 -17 OFFCURVE",
"309 -111 OFFCURVE",
"233 -154 CURVE",
"204 -92 LINE",
"237 -63 OFFCURVE",
"263 -43 OFFCURVE",
"272 0 CURVE",
"248 0 OFFCURVE",
"216 36 OFFCURVE",
"216 72 CURVE SMOOTH",
"216 108 OFFCURVE",
"249 146 OFFCURVE",
"290 146 CURVE SMOOTH"
);
},
{
closed = 1;
nodes = (
"145 146 OFFCURVE",
"180 109 OFFCURVE",
"180 56 CURVE SMOOTH",
"180 -17 OFFCURVE",
"124 -111 OFFCURVE",
"48 -154 CURVE",
"20 -92 LINE",
"53 -63 OFFCURVE",
"78 -43 OFFCURVE",
"87 0 CURVE",
"64 0 OFFCURVE",
"31 36 OFFCURVE",
"31 72 CURVE SMOOTH",
"31 108 OFFCURVE",
"63 146 OFFCURVE",
"104 146 CURVE SMOOTH"
);
}
);
width = 394;
},
{
layerId = "12413328-B98D-4C90-AAAC-8248DDAE45D4";
name = Bold;
paths = (
{
closed = 1;
nodes = (
"382 147 OFFCURVE",
"423 104 OFFCURVE",
"423 40 CURVE SMOOTH",
"423 -39 OFFCURVE",
"354 -121 OFFCURVE",
"266 -154 CURVE",
"230 -74 LINE",
"249 -63 OFFCURVE",
"277 -40 OFFCURVE",
"282 -23 CURVE",
"258 -8 OFFCURVE",
"239 22 OFFCURVE",
"239 55 CURVE SMOOTH",
"239 100 OFFCURVE",
"279 147 OFFCURVE",
"331 147 CURVE SMOOTH"
);
},
{
closed = 1;
nodes = (
"172 147 OFFCURVE",
"213 104 OFFCURVE",
"213 40 CURVE SMOOTH",
"213 -39 OFFCURVE",
"144 -121 OFFCURVE",
"56 -154 CURVE",
"20 -74 LINE",
"39 -63 OFFCURVE",
"67 -40 OFFCURVE",
"72 -23 CURVE",
"48 -8 OFFCURVE",
"29 22 OFFCURVE",
"29 55 CURVE SMOOTH",
"29 100 OFFCURVE",
"69 147 OFFCURVE",
"121 147 CURVE SMOOTH"
);
}
);
width = 453;
}
);
unicode = 201E;
},
{
glyphname = periodcentered;
lastChange = "2015-05-10 22:50:47 +0000";
layers = (
{
layerId = "24C3257D-BF04-43D4-ADFB-51EF390723A7";
name = Light;
paths = (
{
closed = 1;
nodes = (
"63 189 OFFCURVE",
"30 221 OFFCURVE",
"30 262 CURVE SMOOTH",
"30 303 OFFCURVE",
"63 335 OFFCURVE",
"104 335 CURVE SMOOTH",
"145 335 OFFCURVE",
"176 303 OFFCURVE",
"176 262 CURVE SMOOTH",
"176 221 OFFCURVE",
"145 189 OFFCURVE",
"104 189 CURVE SMOOTH"
);
}
);
width = 206;
},
{
layerId = "12413328-B98D-4C90-AAAC-8248DDAE45D4";
name = Bold;
paths = (
{
closed = 1;
nodes = (
"70 172 OFFCURVE",
"30 211 OFFCURVE",
"30 263 CURVE SMOOTH",
"30 315 OFFCURVE",
"70 355 OFFCURVE",
"122 355 CURVE SMOOTH",
"173 355 OFFCURVE",
"213 315 OFFCURVE",
"213 263 CURVE SMOOTH",
"213 211 OFFCURVE",
"173 172 OFFCURVE",
"122 172 CURVE SMOOTH"
);
}
);
width = 243;
}
);
unicode = 00B7;
},
{
glyphname = parenleft;
lastChange = "2015-05-10 21:39:18 +0000";
layers = (
{
layerId = "24C3257D-BF04-43D4-ADFB-51EF390723A7";
name = Light;
paths = (
{
closed = 1;
nodes = (
"177 -39 LINE",
"98 65 OFFCURVE",
"50 189 OFFCURVE",
"50 321 CURVE SMOOTH",
"50 450 OFFCURVE",
"96 566 OFFCURVE",
"177 682 CURVE",
"278 645 LINE",
"221 566 OFFCURVE",
"170 422 OFFCURVE",
"170 322 CURVE SMOOTH",
"170 219 OFFCURVE",
"220 68 OFFCURVE",
"277 -1 CURVE"
);
}
);
width = 308;
},
{
layerId = "12413328-B98D-4C90-AAAC-8248DDAE45D4";
name = Bold;
paths = (
{
closed = 1;
nodes = (
"177 -39 LINE",
"98 65 OFFCURVE",
"50 189 OFFCURVE",
"50 321 CURVE SMOOTH",
"50 450 OFFCURVE",
"96 566 OFFCURVE",
"177 682 CURVE",
"340 645 LINE",
"283 566 OFFCURVE",
"232 422 OFFCURVE",
"232 322 CURVE SMOOTH",
"232 219 OFFCURVE",
"282 68 OFFCURVE",
"339 -1 CURVE"
);
}
);
width = 370;
}
);
unicode = 0028;
},
{
glyphname = parenright;
lastChange = "2015-05-10 21:39:18 +0000";
layers = (
{
layerId = "24C3257D-BF04-43D4-ADFB-51EF390723A7";
name = Light;
paths = (
{
closed = 1;
nodes = (
"131 682 LINE",
"208 578 OFFCURVE",
"258 453 OFFCURVE",
"258 321 CURVE SMOOTH",
"258 193 OFFCURVE",
"210 77 OFFCURVE",
"130 -39 CURVE",
"30 -2 LINE",
"87 77 OFFCURVE",
"136 221 OFFCURVE",
"136 321 CURVE SMOOTH",
"136 422 OFFCURVE",
"88 575 OFFCURVE",
"31 643 CURVE"
);
}
);
width = 308;
},
{
layerId = "12413328-B98D-4C90-AAAC-8248DDAE45D4";
name = Bold;
paths = (
{
closed = 1;
nodes = (
"193 682 LINE",
"272 578 OFFCURVE",
"320 454 OFFCURVE",
"320 322 CURVE SMOOTH",
"320 193 OFFCURVE",
"274 77 OFFCURVE",
"193 -39 CURVE",
"30 -2 LINE",
"87 77 OFFCURVE",
"138 221 OFFCURVE",
"138 321 CURVE SMOOTH",
"138 424 OFFCURVE",
"88 575 OFFCURVE",
"31 644 CURVE"
);
}
);
width = 370;
}
);
unicode = 0029;
},
{
glyphname = bracketleft;
lastChange = "2015-05-10 22:44:58 +0000";
layers = (
{
layerId = "24C3257D-BF04-43D4-ADFB-51EF390723A7";
name = Light;
paths = (
{
closed = 1;
nodes = (
"100 696 LINE",
"352 696 LINE",
"332 594 LINE",
"229 594 LINE",
"229 13 LINE",
"332 13 LINE",
"352 -88 LINE",
"100 -88 LINE"
);
}
);
width = 362;
},
{
layerId = "12413328-B98D-4C90-AAAC-8248DDAE45D4";
name = Bold;
paths = (
{
closed = 1;
nodes = (
"100 696 LINE",
"468 696 LINE",
"452 553 LINE",
"282 553 LINE",
"282 56 LINE",
"451 56 LINE",
"468 -87 LINE",
"100 -87 LINE"
);
}
);
width = 478;
}
);
unicode = 005B;
},
{
glyphname = bracketright;
lastChange = "2015-05-10 22:45:04 +0000";
layers = (
{
layerId = "24C3257D-BF04-43D4-ADFB-51EF390723A7";
name = Light;
paths = (
{
closed = 1;
nodes = (
"262 -88 LINE",
"10 -88 LINE",
"28 13 LINE",
"131 13 LINE",
"131 594 LINE",
"28 594 LINE",
"10 696 LINE",
"262 696 LINE"
);
}
);
width = 362;
},
{
layerId = "12413328-B98D-4C90-AAAC-8248DDAE45D4";
name = Bold;
paths = (
{
closed = 1;
nodes = (
"378 -87 LINE",
"10 -87 LINE",
"27 56 LINE",
"196 56 LINE",
"196 553 LINE",
"26 553 LINE",
"10 696 LINE",
"378 696 LINE"
);
}
);
width = 478;
}
);
unicode = 005D;
},
{
glyphname = braceleft;
lastChange = "2015-05-10 21:52:31 +0000";
layers = (
{
layerId = "24C3257D-BF04-43D4-ADFB-51EF390723A7";
name = Light;
paths = (
{
closed = 1;
nodes = (
"215 285 OFFCURVE",
"226 250 OFFCURVE",
"226 209 CURVE SMOOTH",
"226 157 OFFCURVE",
"191 135 OFFCURVE",
"191 85 CURVE SMOOTH",
"191 74 OFFCURVE",
"204 58 OFFCURVE",
"229 58 CURVE SMOOTH",
"271 58 LINE",
"284 -42 LINE",
"226 -42 LINE SMOOTH",
"127 -42 OFFCURVE",
"84 9 OFFCURVE",
"84 85 CURVE SMOOTH",
"84 124 OFFCURVE",
"117 186 OFFCURVE",
"117 221 CURVE SMOOTH",
"117 248 OFFCURVE",
"96 265 OFFCURVE",
"75 265 CURVE SMOOTH",
"30 265 LINE",
"30 351 LINE",
"75 351 LINE SMOOTH",
"96 351 OFFCURVE",
"117 368 OFFCURVE",
"117 395 CURVE SMOOTH",
"117 422 OFFCURVE",
"84 489 OFFCURVE",
"84 533 CURVE SMOOTH",
"84 609 OFFCURVE",
"127 659 OFFCURVE",
"226 659 CURVE SMOOTH",
"284 659 LINE",
"271 559 LINE",
"229 559 LINE SMOOTH",
"204 559 OFFCURVE",
"191 543 OFFCURVE",
"191 532 CURVE SMOOTH",
"191 483 OFFCURVE",
"226 465 OFFCURVE",
"226 408 CURVE SMOOTH",
"226 363 OFFCURVE",
"216 332 OFFCURVE",
"191 309 CURVE"
);
}
);
width = 294;
},
{
layerId = "12413328-B98D-4C90-AAAC-8248DDAE45D4";
name = Bold;
paths = (
{
closed = 1;
nodes = (
"265 301 OFFCURVE",
"286 285 OFFCURVE",
"286 248 CURVE SMOOTH",
"286 193 OFFCURVE",
"251 191 OFFCURVE",
"251 138 CURVE SMOOTH",
"251 119 OFFCURVE",
"260 103 OFFCURVE",
"289 103 CURVE SMOOTH",
"326 103 LINE",
"339 -39 LINE",
"226 -39 LINE SMOOTH",
"127 -39 OFFCURVE",
"84 11 OFFCURVE",
"84 87 CURVE SMOOTH",
"84 134 OFFCURVE",
"117 177 OFFCURVE",
"117 209 CURVE SMOOTH",
"117 232 OFFCURVE",
"96 247 OFFCURVE",
"75 247 CURVE SMOOTH",
"30 247 LINE",
"30 373 LINE",
"75 373 LINE SMOOTH",
"96 373 OFFCURVE",
"117 388 OFFCURVE",
"117 411 CURVE SMOOTH",
"117 440 OFFCURVE",
"84 486 OFFCURVE",
"84 533 CURVE SMOOTH",
"84 609 OFFCURVE",
"127 659 OFFCURVE",
"226 659 CURVE SMOOTH",
"339 659 LINE",
"326 517 LINE",
"289 517 LINE SMOOTH",
"260 517 OFFCURVE",
"251 501 OFFCURVE",
"251 482 CURVE SMOOTH",
"251 430 OFFCURVE",
"286 431 OFFCURVE",
"286 372 CURVE SMOOTH",
"286 333 OFFCURVE",
"265 319 OFFCURVE",
"252 310 CURVE"
);
}
);
width = 349;
}
);
unicode = 007B;
},
{
glyphname = braceright;
lastChange = "2015-05-10 21:52:38 +0000";
layers = (
{
layerId = "24C3257D-BF04-43D4-ADFB-51EF390723A7";
name = Light;
paths = (
{
closed = 1;
nodes = (
"76 332 OFFCURVE",
"66 363 OFFCURVE",
"66 408 CURVE SMOOTH",
"66 465 OFFCURVE",
"101 483 OFFCURVE",
"101 532 CURVE SMOOTH",
"101 543 OFFCURVE",
"88 559 OFFCURVE",
"63 559 CURVE SMOOTH",
"21 559 LINE",
"8 659 LINE",
"66 659 LINE SMOOTH",
"165 659 OFFCURVE",
"208 609 OFFCURVE",
"208 533 CURVE SMOOTH",
"208 489 OFFCURVE",
"175 422 OFFCURVE",
"175 395 CURVE SMOOTH",
"175 368 OFFCURVE",
"196 351 OFFCURVE",
"217 351 CURVE SMOOTH",
"262 351 LINE",
"262 265 LINE",
"217 265 LINE SMOOTH",
"196 265 OFFCURVE",
"175 248 OFFCURVE",
"175 221 CURVE SMOOTH",
"175 186 OFFCURVE",
"208 124 OFFCURVE",
"208 85 CURVE SMOOTH",
"208 9 OFFCURVE",
"165 -42 OFFCURVE",
"66 -42 CURVE SMOOTH",
"8 -42 LINE",
"21 58 LINE",
"63 58 LINE SMOOTH",
"88 58 OFFCURVE",
"101 74 OFFCURVE",
"101 85 CURVE SMOOTH",
"101 135 OFFCURVE",
"66 157 OFFCURVE",
"66 209 CURVE SMOOTH",
"66 250 OFFCURVE",
"77 285 OFFCURVE",
"101 309 CURVE"
);
}
);
width = 292;
},
{
layerId = "12413328-B98D-4C90-AAAC-8248DDAE45D4";
name = Bold;
paths = (
{
closed = 1;
nodes = (
"84 319 OFFCURVE",
"63 335 OFFCURVE",
"63 372 CURVE SMOOTH",
"63 427 OFFCURVE",
"98 429 OFFCURVE",
"98 482 CURVE SMOOTH",
"98 501 OFFCURVE",
"89 517 OFFCURVE",
"60 517 CURVE SMOOTH",
"23 517 LINE",
"10 659 LINE",
"123 659 LINE SMOOTH",
"222 659 OFFCURVE",
"265 609 OFFCURVE",
"265 533 CURVE SMOOTH",
"265 488 OFFCURVE",
"232 441 OFFCURVE",
"232 411 CURVE SMOOTH",
"232 388 OFFCURVE",
"253 373 OFFCURVE",
"274 373 CURVE SMOOTH",
"319 373 LINE",
"319 247 LINE",
"274 247 LINE SMOOTH",
"253 247 OFFCURVE",
"232 232 OFFCURVE",
"232 209 CURVE SMOOTH",
"232 183 OFFCURVE",
"265 132 OFFCURVE",
"265 87 CURVE SMOOTH",
"265 11 OFFCURVE",
"222 -39 OFFCURVE",
"123 -39 CURVE SMOOTH",
"10 -39 LINE",
"23 103 LINE",
"60 103 LINE SMOOTH",
"89 103 OFFCURVE",
"98 119 OFFCURVE",
"98 138 CURVE SMOOTH",
"98 192 OFFCURVE",
"63 193 OFFCURVE",
"63 248 CURVE SMOOTH",
"63 287 OFFCURVE",
"84 301 OFFCURVE",
"97 310 CURVE"
);
}
);
width = 349;
}
);
unicode = 007D;
},
{
glyphname = slash;
lastChange = "2015-05-10 21:39:18 +0000";
layers = (
{
layerId = "24C3257D-BF04-43D4-ADFB-51EF390723A7";
name = Light;
paths = (
{
closed = 1;
nodes = (
"444 706 LINE",
"145 -4 LINE",
"10 0 LINE",
"308 710 LINE"
);
}
);
width = 454;
},
{
layerId = "12413328-B98D-4C90-AAAC-8248DDAE45D4";
name = Bold;
paths = (
{
closed = 1;
nodes = (
"496 706 LINE",
"197 0 LINE",
"10 0 LINE",
"308 706 LINE"
);
}
);
width = 506;
}
);
unicode = 002F;
},
{
glyphname = backslash;
lastChange = "2015-05-10 21:39:18 +0000";
layers = (
{
layerId = "24C3257D-BF04-43D4-ADFB-51EF390723A7";
name = Light;
paths = (
{
closed = 1;
nodes = (
"308 -4 LINE",
"10 706 LINE",
"145 710 LINE",
"444 0 LINE"
);
}
);
width = 454;
},
{
layerId = "12413328-B98D-4C90-AAAC-8248DDAE45D4";
name = Bold;
paths = (
{
closed = 1;
nodes = (
"309 0 LINE",
"10 710 LINE",
"198 710 LINE",
"496 0 LINE"
);
}
);
width = 506;
}
);
unicode = 005C;
},
{
glyphname = bar;
lastChange = "2015-05-10 22:45:12 +0000";
layers = (
{
layerId = "24C3257D-BF04-43D4-ADFB-51EF390723A7";
name = Light;
paths = (
{
closed = 1;
nodes = (
"214 703 LINE",
"214 -10 LINE",
"85 0 LINE",
"85 713 LINE"
);
}
);
width = 299;
},
{
layerId = "12413328-B98D-4C90-AAAC-8248DDAE45D4";
name = Bold;
paths = (
{
closed = 1;
nodes = (
"262 697 LINE",
"262 -16 LINE",
"80 0 LINE",
"80 713 LINE"
);
}
);
width = 342;
}
);
unicode = 007C;
},
{
glyphname = brokenbar;
lastChange = "2015-05-10 22:45:23 +0000";
layers = (
{
layerId = "24C3257D-BF04-43D4-ADFB-51EF390723A7";
name = Light;
paths = (
{
closed = 1;
nodes = (
"214 703 LINE",
"214 406 LINE",
"85 417 LINE",
"85 713 LINE"
);
},
{
closed = 1;
nodes = (
"214 288 LINE",
"214 -10 LINE",
"85 0 LINE",
"85 297 LINE"
);
}
);
width = 299;
},
{
layerId = "12413328-B98D-4C90-AAAC-8248DDAE45D4";
name = Bold;
paths = (
{
closed = 1;
nodes = (
"262 697 LINE",
"262 394 LINE",
"80 410 LINE",
"80 713 LINE"
);
},
{
closed = 1;
nodes = (
"262 287 LINE",
"262 -16 LINE",
"80 0 LINE",
"80 303 LINE"
);
}
);
width = 342;
}
);
unicode = 00A6;
},
{
glyphname = guillemotleft;
lastChange = "2015-05-10 22:51:00 +0000";
layers = (
{
layerId = "24C3257D-BF04-43D4-ADFB-51EF390723A7";
name = Light;
paths = (
{
closed = 1;
nodes = (
"199 269 LINE",
"360 408 LINE",
"381 321 LINE",
"297 245 LINE",
"381 169 LINE",
"360 83 LINE",
"199 221 LINE"
);
},
{
closed = 1;
nodes = (
"30 269 LINE",
"190 408 LINE",
"213 321 LINE",
"128 245 LINE",
"213 169 LINE",
"190 83 LINE",
"30 221 LINE"
);
}
);
width = 401;
},
{
layerId = "12413328-B98D-4C90-AAAC-8248DDAE45D4";
name = Bold;
paths = (
{
closed = 1;
nodes = (
"211 269 LINE",
"368 421 LINE",
"401 314 LINE",
"335 247 LINE",
"401 179 LINE",
"368 73 LINE",
"211 224 LINE"
);
},
{
closed = 1;
nodes = (
"30 269 LINE",
"187 421 LINE",
"220 314 LINE",
"154 247 LINE",
"220 179 LINE",
"187 73 LINE",
"30 224 LINE"
);
}
);
width = 421;
}
);
unicode = 00AB;
},
{
glyphname = guillemotright;
lastChange = "2015-05-10 22:51:12 +0000";
layers = (
{
layerId = "24C3257D-BF04-43D4-ADFB-51EF390723A7";
name = Light;
paths = (
{
closed = 1;
nodes = (
"202 221 LINE",
"43 83 LINE",
"20 169 LINE",
"105 245 LINE",
"20 321 LINE",
"43 408 LINE",
"202 269 LINE"
);
},
{
closed = 1;
nodes = (
"373 221 LINE",
"212 83 LINE",
"190 169 LINE",
"275 245 LINE",
"190 321 LINE",
"212 408 LINE",
"373 269 LINE"
);
}
);
width = 403;
},
{
layerId = "12413328-B98D-4C90-AAAC-8248DDAE45D4";
name = Bold;
paths = (
{
closed = 1;
nodes = (
"210 225 LINE",
"53 73 LINE",
"20 180 LINE",
"86 247 LINE",
"20 315 LINE",
"53 421 LINE",
"210 270 LINE"
);
},
{
closed = 1;
nodes = (
"391 225 LINE",
"234 73 LINE",
"201 180 LINE",
"267 247 LINE",
"201 315 LINE",
"234 421 LINE",
"391 270 LINE"
);
}
);
width = 421;
}
);
unicode = 00BB;
},
{
glyphname = pi;
lastChange = "2015-05-10 22:45:38 +0000";
layers = (
{
layerId = "24C3257D-BF04-43D4-ADFB-51EF390723A7";
name = Light;
paths = (
{
closed = 1;
nodes = (
"115 0 LINE",
"115 384 LINE",
"10 384 LINE",
"10 485 LINE",
"648 485 LINE",
"648 384 LINE",
"543 384 LINE",
"543 0 LINE",
"413 0 LINE",
"413 384 LINE",
"244 384 LINE",
"244 0 LINE"
);
}
);
width = 658;
},
{
layerId = "12413328-B98D-4C90-AAAC-8248DDAE45D4";
name = Bold;
paths = (
{
closed = 1;
nodes = (
"110 0 LINE",
"110 342 LINE",
"10 342 LINE",
"10 485 LINE",
"712 485 LINE",
"712 342 LINE",
"612 342 LINE",
"612 0 LINE",
"430 0 LINE",
"430 342 LINE",
"292 342 LINE",
"292 0 LINE"
);
}
);
width = 722;
}
);
unicode = 03C0;
},
{
glyphname = dagger;
lastChange = "2015-05-10 21:39:18 +0000";
layers = (
{
layerId = "24C3257D-BF04-43D4-ADFB-51EF390723A7";
name = Light;
paths = (
{
closed = 1;
nodes = (
"295 780 LINE",
"295 625 LINE",
"398 625 LINE",
"416 503 LINE",
"295 503 LINE",
"284 -4 LINE",
"165 0 LINE",
"155 503 LINE",
"49 503 LINE",
"30 625 LINE",
"155 625 LINE",
"155 783 LINE"
);
}
);
width = 446;
},
{
layerId = "12413328-B98D-4C90-AAAC-8248DDAE45D4";
name = Bold;
paths = (
{
closed = 1;
nodes = (
"345 780 LINE",
"345 625 LINE",
"458 625 LINE",
"476 483 LINE",
"334 483 LINE",
"334 0 LINE",
"165 0 LINE",
"165 483 LINE",
"49 483 LINE",
"30 625 LINE",
"165 625 LINE",
"165 780 LINE"
);
}
);
width = 506;
}
);
unicode = 2020;
},
{
glyphname = daggerdbl;
lastChange = "2015-05-10 21:39:18 +0000";
layers = (
{
layerId = "24C3257D-BF04-43D4-ADFB-51EF390723A7";
name = Light;
paths = (
{
closed = 1;
nodes = (
"153 -6 LINE",
"158 154 LINE",
"49 154 LINE",
"30 276 LINE",
"155 276 LINE",
"158 503 LINE",
"49 503 LINE",
"30 625 LINE",
"160 625 LINE",
"155 783 LINE",
"307 780 LINE",
"303 625 LINE",
"411 625 LINE",
"429 503 LINE",
"303 503 LINE",
"303 276 LINE",
"411 276 LINE",
"429 154 LINE",
"300 154 LINE",
"305 1 LINE"
);
}
);
width = 459;
},
{
layerId = "12413328-B98D-4C90-AAAC-8248DDAE45D4";
name = Bold;
paths = (
{
closed = 1;
nodes = (
"163 -6 LINE",
"168 154 LINE",
"49 154 LINE",
"30 297 LINE",
"168 297 LINE",
"168 483 LINE",
"49 483 LINE",
"30 625 LINE",
"165 625 LINE",
"165 780 LINE",
"353 780 LINE",
"353 625 LINE",
"471 625 LINE",
"489 483 LINE",
"353 483 LINE",
"353 297 LINE",
"471 297 LINE",
"489 154 LINE",
"350 154 LINE",
"355 1 LINE"
);
}
);
width = 519;
}
);
unicode = 2021;
},
